<?xml version="1.0" encoding="UTF-8" standalone="no"?>
<svg
   xmlns:dc="http://purl.org/dc/elements/1.1/"
   xmlns:cc="http://creativecommons.org/ns#"
   xmlns:rdf="http://www.w3.org/1999/02/22-rdf-syntax-ns#"
   xmlns:svg="http://www.w3.org/2000/svg"
   xmlns="http://www.w3.org/2000/svg"
   xmlns:sodipodi="http://sodipodi.sourceforge.net/DTD/sodipodi-0.dtd"
   xmlns:inkscape="http://www.inkscape.org/namespaces/inkscape"
   width="509.65939"
   height="106.71123"
   viewBox="0 0 509.6594 106.71123"
   version="1.2"
   id="svg270"
   sodipodi:docname="the-black-perl-2.svg"
   inkscape:version="0.92.3 (2405546, 2018-03-11)">
  <metadata
     id="metadata276">
    <rdf:RDF>
      <cc:Work
         rdf:about="">
        <dc:format>image/svg+xml</dc:format>
        <dc:type
           rdf:resource="http://purl.org/dc/dcmitype/StillImage" />
        <dc:title>the-black-perl-2</dc:title>
      </cc:Work>
    </rdf:RDF>
  </metadata>
  <defs
     id="defs274" />
  <sodipodi:namedview
     pagecolor="#ffffff"
     bordercolor="#666666"
     borderopacity="1"
     objecttolerance="10"
     gridtolerance="10"
     guidetolerance="10"
     inkscape:pageopacity="0"
     inkscape:pageshadow="2"
     inkscape:window-width="741"
     inkscape:window-height="480"
     id="namedview272"
     showgrid="false"
     fit-margin-top="0"
     fit-margin-left="0"
     fit-margin-right="0"
     fit-margin-bottom="0"
     inkscape:zoom="0.28032165"
     inkscape:cx="254.5404"
     inkscape:cy="-279.13638"
     inkscape:window-x="0"
     inkscape:window-y="0"
     inkscape:window-maximized="0"
     inkscape:current-layer="svg270" />
  <title
     id="title2">the-black-perl-2</title>
  <desc
     id="desc4">Generated by MuseScore 2.1.0</desc>
  <polyline
     class="StaffLines"
     points="96.2218,63.3487 538.584,63.3487"
     id="polyline6"
     style="fill:none;stroke:#000000;stroke-width:0.40000001;stroke-linejoin:bevel"
     transform="translate(-28.9246,-35.0974)" />
  <polyline
     class="StaffLines"
     points="96.2218,68.349 538.584,68.349"
     id="polyline8"
     style="fill:none;stroke:#000000;stroke-width:0.40000001;stroke-linejoin:bevel"
     transform="translate(-28.9246,-35.0974)" />
  <polyline
     class="StaffLines"
     points="96.2218,73.3493 538.584,73.3493"
     id="polyline10"
     style="fill:none;stroke:#000000;stroke-width:0.40000001;stroke-linejoin:bevel"
     transform="translate(-28.9246,-35.0974)" />
  <polyline
     class="StaffLines"
     points="96.2218,78.3496 538.584,78.3496"
     id="polyline12"
     style="fill:none;stroke:#000000;stroke-width:0.40000001;stroke-linejoin:bevel"
     transform="translate(-28.9246,-35.0974)" />
  <polyline
     class="StaffLines"
     points="96.2218,83.3499 538.584,83.3499"
     id="polyline14"
     style="fill:none;stroke:#000000;stroke-width:0.40000001;stroke-linejoin:bevel"
     transform="translate(-28.9246,-35.0974)" />
  <polyline
     class="StaffLines"
     points="96.2218,115.852 538.584,115.852"
     id="polyline16"
     style="fill:none;stroke:#000000;stroke-width:0.40000001;stroke-linejoin:bevel"
     transform="translate(-28.9246,-35.0974)" />
  <polyline
     class="StaffLines"
     points="96.2218,120.852 538.584,120.852"
     id="polyline18"
     style="fill:none;stroke:#000000;stroke-width:0.40000001;stroke-linejoin:bevel"
     transform="translate(-28.9246,-35.0974)" />
  <polyline
     class="StaffLines"
     points="96.2218,125.853 538.584,125.853"
     id="polyline20"
     style="fill:none;stroke:#000000;stroke-width:0.40000001;stroke-linejoin:bevel"
     transform="translate(-28.9246,-35.0974)" />
  <polyline
     class="StaffLines"
     points="96.2218,130.853 538.584,130.853"
     id="polyline22"
     style="fill:none;stroke:#000000;stroke-width:0.40000001;stroke-linejoin:bevel"
     transform="translate(-28.9246,-35.0974)" />
  <polyline
     class="StaffLines"
     points="96.2218,135.853 538.584,135.853"
     id="polyline24"
     style="fill:none;stroke:#000000;stroke-width:0.40000001;stroke-linejoin:bevel"
     transform="translate(-28.9246,-35.0974)" />
  <path
     class="InstrumentName"
     d="m 41.5781,81.9896 c 0,0.208 -0.0234,0.406 -0.0703,0.594 -0.0469,0.187 -0.1406,0.388 -0.2813,0.601 -0.1406,0.214 -0.3255,0.399 -0.5546,0.555 -0.2292,0.156 -0.5443,0.284 -0.9454,0.383 -0.401,0.099 -0.8671,0.148 -1.3984,0.148 -0.2396,0 -0.5156,-0.01 -0.8281,-0.031 v 2.203 c 0,0.438 0.0703,0.724 0.2109,0.859 0.1406,0.136 0.4453,0.209 0.9141,0.219 v 0.235 h -3.3438 v -0.235 c 0.4479,-0.031 0.7266,-0.114 0.836,-0.25 0.1093,-0.135 0.164,-0.453 0.164,-0.953 v -5.187 c 0,-0.438 -0.0573,-0.717 -0.1718,-0.836 -0.1146,-0.12 -0.3907,-0.206 -0.8282,-0.258 v -0.219 h 3.1563 c 0.3646,0 0.7135,0.034 1.0469,0.102 0.3333,0.067 0.6666,0.177 1,0.328 0.3333,0.151 0.5989,0.375 0.7968,0.672 0.1979,0.297 0.2969,0.653 0.2969,1.07 M 37.5,80.6766 v 3.11 c 0.2812,0.021 0.5104,0.031 0.6875,0.031 1.3958,0 2.0937,-0.583 2.0937,-1.75 0,-0.614 -0.1927,-1.068 -0.5781,-1.359 -0.3854,-0.292 -0.9844,-0.438 -1.7969,-0.438 -0.1562,0 -0.263,0.029 -0.3203,0.086 -0.0573,0.057 -0.0859,0.164 -0.0859,0.32 m 5.25,2.36 c -0.1771,0 -0.349,0.015 -0.5156,0.047 v -0.188 c 0.5625,-0.156 1.1822,-0.375 1.8593,-0.656 l 0.0469,0.031 v 4.266 c 0,0.427 0.0521,0.698 0.1563,0.812 0.1041,0.115 0.3489,0.188 0.7343,0.219 v 0.188 h -2.8437 v -0.188 c 0.4166,-0.021 0.6797,-0.091 0.789,-0.211 0.1094,-0.12 0.1641,-0.393 0.1641,-0.82 v -2.781 c 0,-0.271 -0.0312,-0.459 -0.0937,-0.563 -0.0625,-0.104 -0.1615,-0.156 -0.2969,-0.156 m 0.7812,-3.469 c 0.1771,0 0.3255,0.06 0.4453,0.18 0.1198,0.12 0.1797,0.263 0.1797,0.429 0,0.178 -0.0599,0.323 -0.1797,0.438 -0.1198,0.115 -0.2682,0.172 -0.4453,0.172 -0.1666,0 -0.3073,-0.06 -0.4218,-0.18 -0.1146,-0.12 -0.1719,-0.263 -0.1719,-0.43 0,-0.166 0.0599,-0.309 0.1797,-0.429 0.1198,-0.12 0.2578,-0.18 0.414,-0.18 m 2.0938,7 c 0,-0.146 0.0156,-0.279 0.0469,-0.398 0.0312,-0.12 0.0885,-0.235 0.1718,-0.344 0.0834,-0.109 0.1589,-0.208 0.2266,-0.297 0.0677,-0.089 0.1745,-0.177 0.3203,-0.266 0.1458,-0.088 0.2682,-0.164 0.3672,-0.226 0.0989,-0.063 0.2448,-0.136 0.4375,-0.219 0.1927,-0.083 0.3411,-0.146 0.4453,-0.187 0.1042,-0.042 0.2682,-0.107 0.4922,-0.196 0.2239,-0.088 0.388,-0.153 0.4922,-0.195 v -0.719 c 0,-0.666 -0.3021,-1 -0.9063,-1 -0.2396,0 -0.4453,0.06 -0.6172,0.18 -0.1718,0.12 -0.2578,0.258 -0.2578,0.414 0,0.062 0.0104,0.151 0.0313,0.266 0.0208,0.114 0.0312,0.187 0.0312,0.218 0,0.136 -0.0521,0.253 -0.1562,0.352 -0.1042,0.099 -0.2292,0.148 -0.375,0.148 -0.1354,0 -0.2552,-0.052 -0.3594,-0.156 -0.1042,-0.104 -0.1562,-0.224 -0.1562,-0.359 0,-0.375 0.1927,-0.693 0.5781,-0.953 0.3854,-0.261 0.8646,-0.391 1.4375,-0.391 0.6562,0 1.1067,0.156 1.3515,0.469 0.2448,0.312 0.3672,0.791 0.3672,1.437 v 2.328 c 0,0.261 0.0261,0.44 0.0782,0.539 0.052,0.099 0.1458,0.149 0.2812,0.149 0.1667,0 0.3438,-0.073 0.5313,-0.219 v 0.313 c -0.2084,0.239 -0.3907,0.403 -0.5469,0.492 -0.1563,0.088 -0.3334,0.133 -0.5313,0.133 -0.25,0 -0.4323,-0.071 -0.5468,-0.211 -0.1146,-0.141 -0.1875,-0.373 -0.2188,-0.696 -0.6875,0.605 -1.2708,0.907 -1.75,0.907 -0.375,0 -0.6797,-0.123 -0.9141,-0.368 -0.2343,-0.244 -0.3515,-0.559 -0.3515,-0.945 m 3,-0.312 v -1.719 c -0.7188,0.26 -1.2214,0.513 -1.5078,0.758 -0.2865,0.244 -0.4297,0.544 -0.4297,0.898 0,0.323 0.0781,0.565 0.2344,0.727 0.1562,0.161 0.3281,0.242 0.5156,0.242 0.2708,0 0.5625,-0.094 0.875,-0.281 0.125,-0.073 0.2083,-0.149 0.25,-0.227 0.0416,-0.078 0.0625,-0.211 0.0625,-0.398 m 2.0469,-3.282 v -0.203 c 0.5833,-0.177 1.1354,-0.354 1.6562,-0.531 l 0.0781,0.016 v 0.937 c 0.4063,-0.375 0.7266,-0.628 0.961,-0.758 0.2343,-0.13 0.4922,-0.195 0.7734,-0.195 0.4375,0 0.7839,0.156 1.0391,0.469 0.2552,0.312 0.3828,0.75 0.3828,1.312 v 2.766 c 0,0.292 0.0469,0.487 0.1406,0.586 0.0938,0.099 0.2917,0.164 0.5938,0.195 v 0.188 h -2.5 v -0.188 c 0.302,-0.021 0.5026,-0.099 0.6015,-0.234 0.099,-0.136 0.1485,-0.391 0.1485,-0.766 v -2.516 c 0,-0.781 -0.2917,-1.171 -0.875,-1.171 -0.198,0 -0.3803,0.046 -0.5469,0.14 -0.1667,0.094 -0.3959,0.276 -0.6875,0.547 v 3.375 c 0,0.219 0.0573,0.372 0.1719,0.461 0.1145,0.089 0.3229,0.143 0.625,0.164 v 0.188 h -2.5469 v -0.188 c 0.3021,-0.021 0.5026,-0.088 0.6015,-0.203 0.099,-0.115 0.1485,-0.344 0.1485,-0.688 v -2.984 c 0,-0.302 -0.0313,-0.505 -0.0938,-0.609 -0.0625,-0.104 -0.1823,-0.157 -0.3593,-0.157 -0.1459,0 -0.25,0.016 -0.3125,0.047 m 8.6875,-0.734 c 0.7708,0 1.4036,0.255 1.8984,0.766 0.4948,0.51 0.7422,1.156 0.7422,1.937 0,0.833 -0.2578,1.531 -0.7735,2.094 -0.5156,0.562 -1.1484,0.844 -1.8984,0.844 -0.75,0 -1.375,-0.271 -1.875,-0.813 -0.5,-0.542 -0.75,-1.213 -0.75,-2.016 0,-0.833 0.2474,-1.51 0.7422,-2.031 0.4948,-0.521 1.1328,-0.781 1.9141,-0.781 m -1.5782,2.219 c 0,0.854 0.1563,1.578 0.4688,2.172 0.3125,0.593 0.7239,0.89 1.2344,0.89 0.4375,0 0.7864,-0.19 1.0468,-0.57 0.2604,-0.38 0.3907,-0.909 0.3907,-1.586 0,-0.813 -0.1615,-1.477 -0.4844,-1.992 -0.3229,-0.516 -0.7344,-0.774 -1.2344,-0.774 -0.4271,0 -0.7708,0.17 -1.0312,0.508 -0.2605,0.339 -0.3907,0.789 -0.3907,1.352"
     id="path26"
     inkscape:connector-curvature="0" />
  <path
     class="InstrumentName"
     d="m 8.7031,103.8806 c -0.2083,-0.125 -0.4245,-0.279 -0.6484,-0.461 -0.224,-0.183 -0.4766,-0.433 -0.7578,-0.75 -0.2813,-0.318 -0.5313,-0.659 -0.75,-1.024 -0.2188,-0.364 -0.4011,-0.802 -0.5469,-1.312 -0.1459,-0.511 -0.2188,-1.042 -0.2188,-1.594 0,-0.583 0.0729,-1.133 0.2188,-1.648 0.1458,-0.516 0.3203,-0.943 0.5234,-1.282 0.2031,-0.338 0.4583,-0.666 0.7656,-0.984 0.3073,-0.318 0.5599,-0.552 0.7579,-0.703 0.1979,-0.151 0.427,-0.31 0.6875,-0.477 l 0.1093,0.188 C 8.5,94.1246 8.2187,94.3876 8,94.6226 c -0.2188,0.234 -0.4271,0.536 -0.625,0.906 -0.1979,0.37 -0.3412,0.813 -0.4297,1.328 -0.0886,0.516 -0.1328,1.128 -0.1328,1.836 0,0.75 0.0442,1.393 0.1328,1.93 0.0885,0.536 0.2318,0.992 0.4297,1.367 0.1979,0.375 0.4062,0.682 0.625,0.922 0.2187,0.239 0.5,0.5 0.8437,0.781 l -0.1406,0.188 m 4.7656,-2.579 c 0.2084,0 0.4037,-0.013 0.586,-0.039 0.1823,-0.026 0.3411,-0.052 0.4765,-0.078 0.1354,-0.026 0.2657,-0.07 0.3907,-0.133 0.125,-0.062 0.2291,-0.114 0.3125,-0.156 0.0833,-0.041 0.1666,-0.109 0.25,-0.203 0.0833,-0.094 0.1458,-0.161 0.1875,-0.203 0.0416,-0.042 0.0911,-0.115 0.1484,-0.219 0.0573,-0.104 0.0937,-0.172 0.1094,-0.203 0.0156,-0.031 0.0468,-0.101 0.0937,-0.211 0.0469,-0.109 0.0703,-0.169 0.0703,-0.18 h 0.2969 l -0.5781,2.079 H 9.375 v -0.235 c 0.4375,-0.021 0.7187,-0.099 0.8437,-0.234 0.125,-0.136 0.1875,-0.417 0.1875,-0.844 v -5.312 c 0,-0.427 -0.0625,-0.706 -0.1875,-0.836 -0.125,-0.131 -0.4062,-0.216 -0.8437,-0.258 v -0.219 h 3.375 v 0.219 c -0.4688,0.042 -0.7709,0.127 -0.9063,0.258 -0.1354,0.13 -0.2031,0.409 -0.2031,0.836 v 5.671 c 0,0.209 0.0599,0.344 0.1797,0.407 0.1198,0.062 0.4036,0.093 0.8516,0.093 h 0.7968 m 4.2032,-2.875 c 0.0208,0.5 0.0911,0.928 0.2109,1.282 0.1198,0.354 0.276,0.62 0.4687,0.797 0.1927,0.177 0.3855,0.304 0.5782,0.382 0.1927,0.079 0.3984,0.118 0.6172,0.118 0.3854,0 0.7213,-0.097 1.0078,-0.289 0.2864,-0.193 0.5703,-0.508 0.8515,-0.946 l 0.1875,0.078 c -0.2396,0.657 -0.5807,1.159 -1.0234,1.508 -0.4427,0.349 -0.9453,0.524 -1.5078,0.524 -0.6875,0 -1.2344,-0.245 -1.6406,-0.735 -0.4063,-0.489 -0.6094,-1.146 -0.6094,-1.969 0,-0.885 0.2344,-1.596 0.7031,-2.132 0.4688,-0.537 1.0729,-0.805 1.8125,-0.805 0.6042,0 1.0729,0.182 1.4063,0.547 0.3333,0.364 0.5468,0.911 0.6406,1.64 h -3.7031 m 0.0312,-0.359 h 2.4531 c -0.0833,-0.521 -0.2083,-0.88 -0.375,-1.078 -0.1666,-0.198 -0.4375,-0.297 -0.8125,-0.297 -0.7187,0 -1.1406,0.458 -1.2656,1.375 m 8.0938,-3.297 c -0.125,0 -0.2344,-0.044 -0.3282,-0.133 -0.0937,-0.088 -0.1666,-0.19 -0.2187,-0.304 -0.0521,-0.115 -0.1328,-0.216 -0.2422,-0.305 -0.1094,-0.089 -0.237,-0.133 -0.3828,-0.133 -0.4584,0 -0.6875,0.36 -0.6875,1.078 v 1.391 h 1.4844 v 0.359 h -1.4688 v 3.782 c 0,0.448 0.0625,0.734 0.1875,0.859 0.125,0.125 0.4323,0.193 0.9219,0.203 v 0.188 h -3.1094 v -0.188 c 0.4271,-0.021 0.6979,-0.094 0.8125,-0.219 0.1146,-0.125 0.1719,-0.406 0.1719,-0.843 v -3.782 h -0.9844 v -0.359 h 0.9844 c 0.0208,-0.906 0.1901,-1.604 0.5078,-2.094 0.3177,-0.489 0.8516,-0.734 1.6016,-0.734 0.3645,0 0.664,0.07 0.8984,0.211 0.2344,0.14 0.3516,0.32 0.3516,0.539 0,0.135 -0.0495,0.25 -0.1485,0.344 -0.0989,0.093 -0.2161,0.14 -0.3515,0.14 m 3.6093,1.594 v 0.359 h -1.2187 v 3.422 c 0,0.375 0.0495,0.649 0.1484,0.821 0.099,0.171 0.2578,0.257 0.4766,0.257 0.25,0 0.4896,-0.14 0.7187,-0.422 l 0.1563,0.141 c -0.3854,0.625 -0.8646,0.938 -1.4375,0.938 -0.7084,0 -1.0625,-0.511 -1.0625,-1.532 v -3.625 H 26.5469 C 26.5156,96.6926 26.5,96.6666 26.5,96.6456 c 0,-0.041 0.013,-0.073 0.039,-0.094 0.0261,-0.02 0.073,-0.052 0.1407,-0.093 0.0677,-0.042 0.1484,-0.102 0.2422,-0.18 0.0937,-0.078 0.2239,-0.219 0.3906,-0.422 0.1666,-0.203 0.3541,-0.445 0.5625,-0.726 0.125,-0.188 0.2031,-0.302 0.2344,-0.344 0.052,0 0.0781,0.052 0.0781,0.156 v 1.422 h 1.2187 m 5.7344,1.078 h 3.6406 v -2.312 c 0,-0.438 -0.0599,-0.719 -0.1797,-0.844 -0.1198,-0.125 -0.414,-0.208 -0.8828,-0.25 v -0.219 h 3.3438 v 0.219 c -0.4688,0.042 -0.763,0.125 -0.8828,0.25 C 40.0599,94.4116 40,94.6926 40,95.1306 v 5.312 c 0,0.427 0.0651,0.706 0.1953,0.836 0.1302,0.13 0.4193,0.211 0.8672,0.242 v 0.235 h -3.3438 v -0.235 c 0.4688,-0.031 0.763,-0.114 0.8828,-0.25 0.1198,-0.135 0.1797,-0.453 0.1797,-0.953 v -2.344 h -3.6406 v 2.469 c 0,0.427 0.0651,0.706 0.1953,0.836 0.1302,0.13 0.4193,0.211 0.8672,0.242 v 0.235 H 32.875 v -0.235 c 0.4583,-0.031 0.7474,-0.114 0.8672,-0.25 0.1198,-0.135 0.1797,-0.453 0.1797,-0.953 v -5.187 c 0,-0.438 -0.0599,-0.719 -0.1797,-0.844 -0.1198,-0.125 -0.4089,-0.208 -0.8672,-0.25 v -0.219 h 3.3281 v 0.219 c -0.4687,0.042 -0.763,0.125 -0.8828,0.25 -0.1198,0.125 -0.1797,0.406 -0.1797,0.844 v 2.312 m 6.4063,3.125 c 0,-0.146 0.0156,-0.279 0.0468,-0.398 0.0313,-0.12 0.0886,-0.235 0.1719,-0.344 0.0833,-0.109 0.1589,-0.208 0.2266,-0.297 0.0677,-0.089 0.1744,-0.177 0.3203,-0.266 0.1458,-0.088 0.2682,-0.164 0.3672,-0.226 0.0989,-0.063 0.2448,-0.136 0.4375,-0.219 0.1927,-0.083 0.3411,-0.146 0.4453,-0.187 0.1041,-0.042 0.2682,-0.107 0.4922,-0.196 0.2239,-0.088 0.388,-0.153 0.4922,-0.195 v -0.719 c 0,-0.666 -0.3021,-1 -0.9063,-1 -0.2396,0 -0.4453,0.06 -0.6172,0.18 -0.1719,0.12 -0.2578,0.258 -0.2578,0.414 0,0.062 0.0104,0.151 0.0313,0.266 0.0208,0.114 0.0312,0.187 0.0312,0.218 0,0.136 -0.0521,0.253 -0.1562,0.352 -0.1042,0.099 -0.2292,0.148 -0.375,0.148 -0.1355,0 -0.2553,-0.052 -0.3594,-0.156 -0.1042,-0.104 -0.1563,-0.224 -0.1563,-0.359 0,-0.375 0.1927,-0.693 0.5782,-0.953 0.3854,-0.261 0.8645,-0.391 1.4375,-0.391 0.6562,0 1.1067,0.156 1.3515,0.469 0.2448,0.312 0.3672,0.791 0.3672,1.437 v 2.328 c 0,0.261 0.026,0.44 0.0781,0.539 0.0521,0.099 0.1459,0.149 0.2813,0.149 0.1666,0 0.3437,-0.073 0.5312,-0.219 v 0.313 c -0.2083,0.239 -0.3906,0.403 -0.5468,0.492 -0.1563,0.088 -0.3334,0.133 -0.5313,0.133 -0.25,0 -0.4323,-0.071 -0.5469,-0.211 -0.1146,-0.141 -0.1875,-0.373 -0.2187,-0.696 -0.6875,0.605 -1.2709,0.907 -1.75,0.907 -0.375,0 -0.6797,-0.123 -0.9141,-0.368 -0.2344,-0.244 -0.3515,-0.559 -0.3515,-0.945 m 3,-0.312 v -1.719 c -0.7188,0.26 -1.2214,0.513 -1.5079,0.758 -0.2864,0.244 -0.4296,0.544 -0.4296,0.898 0,0.323 0.0781,0.565 0.2343,0.727 0.1563,0.161 0.3282,0.242 0.5157,0.242 0.2708,0 0.5625,-0.094 0.875,-0.281 0.125,-0.073 0.2083,-0.149 0.25,-0.227 0.0416,-0.078 0.0625,-0.211 0.0625,-0.398 m 2.0468,-3.282 v -0.203 c 0.5834,-0.177 1.1354,-0.354 1.6563,-0.531 l 0.0781,0.016 v 0.937 c 0.4063,-0.375 0.7266,-0.628 0.9609,-0.758 0.2344,-0.13 0.4922,-0.195 0.7735,-0.195 0.4375,0 0.7838,0.156 1.039,0.469 0.2552,0.312 0.3829,0.75 0.3829,1.312 v 2.766 c 0,0.292 0.0468,0.487 0.1406,0.586 0.0937,0.099 0.2916,0.164 0.5937,0.195 v 0.188 h -2.5 v -0.188 c 0.3021,-0.021 0.5026,-0.099 0.6016,-0.234 0.0989,-0.136 0.1484,-0.391 0.1484,-0.766 v -2.516 c 0,-0.781 -0.2916,-1.171 -0.875,-1.171 -0.1979,0 -0.3802,0.046 -0.5468,0.14 -0.1667,0.094 -0.3959,0.276 -0.6875,0.547 v 3.375 c 0,0.219 0.0572,0.372 0.1718,0.461 0.1146,0.089 0.3229,0.143 0.625,0.164 v 0.188 h -2.5468 v -0.188 c 0.302,-0.021 0.5026,-0.088 0.6015,-0.203 0.099,-0.115 0.1485,-0.344 0.1485,-0.688 v -2.984 c 0,-0.302 -0.0313,-0.505 -0.0938,-0.609 -0.0625,-0.104 -0.1823,-0.157 -0.3594,-0.157 -0.1458,0 -0.25,0.016 -0.3125,0.047 m 9.8438,4.907 -0.0625,-0.047 v -0.782 c -0.375,0.553 -0.8854,0.829 -1.5313,0.829 -0.6666,0 -1.2031,-0.24 -1.6093,-0.719 -0.4063,-0.479 -0.6094,-1.104 -0.6094,-1.875 0,-0.844 0.2448,-1.563 0.7344,-2.156 0.4895,-0.594 1.0781,-0.891 1.7656,-0.891 0.4271,0 0.8437,0.177 1.25,0.531 v -1.875 c 0,-0.25 -0.0339,-0.416 -0.1016,-0.5 -0.0677,-0.083 -0.2161,-0.125 -0.4453,-0.125 -0.1146,0 -0.2031,0.005 -0.2656,0.016 v -0.188 c 0.7291,-0.198 1.3177,-0.375 1.7656,-0.531 l 0.0625,0.016 v 6.781 c 0,0.281 0.0339,0.466 0.1016,0.555 0.0677,0.088 0.2109,0.132 0.4297,0.132 0.0416,0 0.1302,-0.005 0.2656,-0.015 v 0.187 l -1.75,0.657 m -1.125,-0.657 c 0.3021,0 0.5547,-0.083 0.7578,-0.25 0.2031,-0.166 0.3047,-0.317 0.3047,-0.453 v -2.734 c 0,-0.313 -0.1224,-0.589 -0.3672,-0.828 -0.2448,-0.24 -0.5287,-0.36 -0.8516,-0.36 -0.4583,0 -0.8229,0.201 -1.0937,0.602 -0.2709,0.401 -0.4063,0.94 -0.4063,1.617 0,0.729 0.1537,1.313 0.461,1.75 0.3073,0.438 0.7057,0.656 1.1953,0.656 m 3.4844,-7.578 c 0.2083,0.125 0.4244,0.279 0.6484,0.461 0.2239,0.182 0.4792,0.432 0.7656,0.75 0.2865,0.318 0.5365,0.659 0.75,1.024 0.2136,0.364 0.3958,0.802 0.5469,1.312 0.151,0.511 0.2266,1.042 0.2266,1.594 0,0.583 -0.0756,1.133 -0.2266,1.648 -0.1511,0.516 -0.3255,0.943 -0.5234,1.282 -0.198,0.338 -0.4506,0.666 -0.7579,0.984 -0.3073,0.318 -0.5625,0.552 -0.7656,0.703 -0.2031,0.151 -0.4349,0.31 -0.6953,0.477 l -0.1094,-0.188 c 0.3542,-0.292 0.638,-0.555 0.8516,-0.789 0.2135,-0.234 0.4219,-0.536 0.625,-0.906 0.2031,-0.37 0.3489,-0.813 0.4375,-1.328 0.0885,-0.516 0.1328,-1.128 0.1328,-1.836 0,-0.75 -0.0443,-1.394 -0.1328,-1.93 -0.0886,-0.536 -0.2344,-0.992 -0.4375,-1.367 -0.2031,-0.375 -0.4115,-0.685 -0.625,-0.93 -0.2136,-0.245 -0.4974,-0.502 -0.8516,-0.773 l 0.1407,-0.188"
     id="path28"
     inkscape:connector-curvature="0" />
  <path
     class="InstrumentName"
     d="m 41.5781,29.4863 c 0,0.2083 -0.0234,0.4062 -0.0703,0.5937 -0.0469,0.1875 -0.1406,0.388 -0.2813,0.6016 -0.1406,0.2135 -0.3255,0.3984 -0.5546,0.5547 -0.2292,0.1562 -0.5443,0.2838 -0.9454,0.3828 -0.401,0.0989 -0.8671,0.1484 -1.3984,0.1484 -0.2396,0 -0.5156,-0.0104 -0.8281,-0.0312 v 2.2031 c 0,0.4375 0.0703,0.7239 0.2109,0.8594 0.1406,0.1354 0.4453,0.2083 0.9141,0.2187 v 0.2344 h -3.3438 v -0.2344 c 0.4479,-0.0312 0.7266,-0.1146 0.836,-0.25 0.1093,-0.1354 0.164,-0.4531 0.164,-0.9531 v -5.1875 c 0,-0.4375 -0.0573,-0.7162 -0.1718,-0.836 -0.1146,-0.1197 -0.3907,-0.2057 -0.8282,-0.2578 v -0.2187 h 3.1563 c 0.3646,0 0.7135,0.0338 1.0469,0.1015 0.3333,0.0678 0.6666,0.1771 1,0.3282 0.3333,0.151 0.5989,0.375 0.7968,0.6718 0.1979,0.2969 0.2969,0.6537 0.2969,1.0704 M 37.5,28.1738 v 3.1093 c 0.2812,0.0209 0.5104,0.0313 0.6875,0.0313 1.3958,0 2.0937,-0.5833 2.0937,-1.75 0,-0.6146 -0.1927,-1.0677 -0.5781,-1.3594 -0.3854,-0.2917 -0.9844,-0.4375 -1.7969,-0.4375 -0.1562,0 -0.263,0.0287 -0.3203,0.0859 C 37.5286,27.9107 37.5,28.0175 37.5,28.1738 m 5.25,2.3593 c -0.1771,0 -0.349,0.0157 -0.5156,0.0469 v -0.1875 c 0.5625,-0.1562 1.1822,-0.375 1.8593,-0.6562 l 0.0469,0.0312 v 4.2656 c 0,0.4271 0.0521,0.698 0.1563,0.8125 0.1041,0.1146 0.3489,0.1875 0.7343,0.2188 v 0.1875 h -2.8437 v -0.1875 c 0.4166,-0.0208 0.6797,-0.0912 0.789,-0.211 0.1094,-0.1197 0.1641,-0.3932 0.1641,-0.8203 v -2.7812 c 0,-0.2708 -0.0312,-0.4583 -0.0937,-0.5625 -0.0625,-0.1042 -0.1615,-0.1563 -0.2969,-0.1563 m 0.7812,-3.4687 c 0.1771,0 0.3255,0.0599 0.4453,0.1797 0.1198,0.1198 0.1797,0.263 0.1797,0.4297 0,0.177 -0.0599,0.3229 -0.1797,0.4375 -0.1198,0.1145 -0.2682,0.1718 -0.4453,0.1718 -0.1666,0 -0.3073,-0.0599 -0.4218,-0.1797 -0.1146,-0.1197 -0.1719,-0.263 -0.1719,-0.4296 0,-0.1667 0.0599,-0.3099 0.1797,-0.4297 0.1198,-0.1198 0.2578,-0.1797 0.414,-0.1797 m 2.0938,7 c 0,-0.1458 0.0156,-0.2787 0.0469,-0.3985 0.0312,-0.1197 0.0885,-0.2343 0.1718,-0.3437 0.0834,-0.1094 0.1589,-0.2083 0.2266,-0.2969 0.0677,-0.0885 0.1745,-0.1771 0.3203,-0.2656 0.1458,-0.0885 0.2682,-0.1641 0.3672,-0.2266 0.0989,-0.0625 0.2448,-0.1354 0.4375,-0.2187 0.1927,-0.0833 0.3411,-0.1458 0.4453,-0.1875 0.1042,-0.0417 0.2682,-0.1068 0.4922,-0.1953 0.2239,-0.0886 0.388,-0.1537 0.4922,-0.1953 v -0.7188 c 0,-0.6667 -0.3021,-1 -0.9063,-1 -0.2396,0 -0.4453,0.0599 -0.6172,0.1797 -0.1718,0.1198 -0.2578,0.2578 -0.2578,0.4141 0,0.0625 0.0104,0.151 0.0313,0.2656 0.0208,0.1146 0.0312,0.1875 0.0312,0.2187 0,0.1355 -0.0521,0.2526 -0.1562,0.3516 -0.1042,0.099 -0.2292,0.1484 -0.375,0.1484 -0.1354,0 -0.2552,-0.052 -0.3594,-0.1562 -0.1042,-0.1042 -0.1562,-0.224 -0.1562,-0.3594 0,-0.375 0.1927,-0.6927 0.5781,-0.9531 0.3854,-0.2604 0.8646,-0.3906 1.4375,-0.3906 0.6562,0 1.1067,0.1562 1.3515,0.4687 0.2448,0.3125 0.3672,0.7917 0.3672,1.4375 v 2.3281 c 0,0.2605 0.0261,0.4401 0.0782,0.5391 0.052,0.099 0.1458,0.1484 0.2812,0.1484 0.1667,0 0.3438,-0.0729 0.5313,-0.2187 v 0.3125 c -0.2084,0.2396 -0.3907,0.4036 -0.5469,0.4922 -0.1563,0.0885 -0.3334,0.1328 -0.5313,0.1328 -0.25,0 -0.4323,-0.0703 -0.5468,-0.211 -0.1146,-0.1406 -0.1875,-0.3723 -0.2188,-0.6953 -0.6875,0.6042 -1.2708,0.9063 -1.75,0.9063 -0.375,0 -0.6797,-0.1224 -0.9141,-0.3672 -0.2343,-0.2448 -0.3515,-0.5599 -0.3515,-0.9453 m 3,-0.3125 v -1.7188 c -0.7188,0.2605 -1.2214,0.5131 -1.5078,0.7578 -0.2865,0.2448 -0.4297,0.5443 -0.4297,0.8985 0,0.3229 0.0781,0.5651 0.2344,0.7265 0.1562,0.1615 0.3281,0.2422 0.5156,0.2422 0.2708,0 0.5625,-0.0937 0.875,-0.2812 0.125,-0.0729 0.2083,-0.1485 0.25,-0.2266 0.0416,-0.0781 0.0625,-0.2109 0.0625,-0.3984 m 2.0469,-3.2813 v -0.2031 c 0.5833,-0.1771 1.1354,-0.3542 1.6562,-0.5312 l 0.0781,0.0156 v 0.9375 c 0.4063,-0.375 0.7266,-0.6276 0.961,-0.7578 0.2343,-0.1302 0.4922,-0.1953 0.7734,-0.1953 0.4375,0 0.7839,0.1562 1.0391,0.4687 0.2552,0.3125 0.3828,0.75 0.3828,1.3125 v 2.7656 c 0,0.2917 0.0469,0.487 0.1406,0.586 0.0938,0.0989 0.2917,0.164 0.5938,0.1953 v 0.1875 h -2.5 v -0.1875 c 0.302,-0.0208 0.5026,-0.099 0.6015,-0.2344 0.099,-0.1354 0.1485,-0.3906 0.1485,-0.7656 v -2.5156 c 0,-0.7813 -0.2917,-1.1719 -0.875,-1.1719 -0.198,0 -0.3803,0.0469 -0.5469,0.1406 -0.1667,0.0938 -0.3959,0.2761 -0.6875,0.5469 v 3.375 c 0,0.2187 0.0573,0.3724 0.1719,0.4609 0.1145,0.0886 0.3229,0.1433 0.625,0.1641 v 0.1875 h -2.5469 v -0.1875 c 0.3021,-0.0208 0.5026,-0.0886 0.6015,-0.2031 0.099,-0.1146 0.1485,-0.3438 0.1485,-0.6875 v -2.9844 c 0,-0.3021 -0.0313,-0.5052 -0.0938,-0.6094 -0.0625,-0.1042 -0.1823,-0.1562 -0.3593,-0.1562 -0.1459,0 -0.25,0.0156 -0.3125,0.0468 m 8.6875,-0.7343 c 0.7708,0 1.4036,0.2552 1.8984,0.7656 0.4948,0.5104 0.7422,1.1562 0.7422,1.9375 0,0.8333 -0.2578,1.5312 -0.7735,2.0937 -0.5156,0.5625 -1.1484,0.8438 -1.8984,0.8438 -0.75,0 -1.375,-0.2708 -1.875,-0.8125 -0.5,-0.5417 -0.75,-1.2136 -0.75,-2.0156 0,-0.8334 0.2474,-1.5105 0.7422,-2.0313 0.4948,-0.5208 1.1328,-0.7812 1.9141,-0.7812 m -1.5782,2.2187 c 0,0.8542 0.1563,1.5781 0.4688,2.1719 0.3125,0.5937 0.7239,0.8906 1.2344,0.8906 0.4375,0 0.7864,-0.1901 1.0468,-0.5703 0.2604,-0.3802 0.3907,-0.9089 0.3907,-1.5859 0,-0.8125 -0.1615,-1.4766 -0.4844,-1.9922 -0.3229,-0.5157 -0.7344,-0.7735 -1.2344,-0.7735 -0.4271,0 -0.7708,0.1693 -1.0312,0.5078 -0.2605,0.3386 -0.3907,0.7891 -0.3907,1.3516"
     id="path30"
     inkscape:connector-curvature="0" />
  <path
     class="InstrumentName"
     d="M 2.9219,51.3769 C 2.7135,51.2519 2.4974,51.0982 2.2734,50.9159 2.0495,50.7337 1.7969,50.4837 1.5156,50.1659 1.2344,49.8482 0.9844,49.5071 0.7656,49.1425 0.5469,48.7779 0.3646,48.3404 0.2187,47.83 0.0729,47.3196 0,46.7883 0,46.2363 0,45.6529 0.0729,45.1034 0.2187,44.5878 0.3646,44.0722 0.539,43.6451 0.7422,43.3066 0.9453,42.968 1.2005,42.6399 1.5078,42.3222 1.8151,42.0045 2.0677,41.7701 2.2656,41.6191 2.4635,41.468 2.6927,41.3092 2.9531,41.1425 L 3.0625,41.33 C 2.7187,41.6217 2.4375,41.8847 2.2187,42.1191 2,42.3534 1.7916,42.6555 1.5937,43.0253 1.3958,43.3951 1.2526,43.8378 1.164,44.3534 c -0.0885,0.5157 -0.1328,1.1277 -0.1328,1.836 0,0.75 0.0443,1.3932 0.1328,1.9297 0.0886,0.5364 0.2318,0.9922 0.4297,1.3672 0.1979,0.375 0.4063,0.6823 0.625,0.9218 0.2188,0.2396 0.5,0.5 0.8438,0.7813 L 2.9219,51.3769 M 6.8906,41.3144 c 0.3438,0 0.6719,0.0286 0.9844,0.0859 0.3125,0.0573 0.6354,0.1563 0.9687,0.2969 0.3334,0.1406 0.599,0.3594 0.7969,0.6562 0.1979,0.2969 0.2969,0.6537 0.2969,1.0704 0,1.0729 -0.7031,1.7448 -2.1094,2.0156 -0.0208,0.0104 -0.0417,0.0156 -0.0625,0.0156 l 2.4844,3.0156 c 0.1666,0.198 0.3229,0.336 0.4687,0.4141 0.1459,0.0781 0.3334,0.1224 0.5625,0.1328 v 0.2344 H 9.3594 L 6.5,45.5956 5.8281,45.6113 v 2.3437 c 0,0.4271 0.0651,0.7031 0.1953,0.8281 0.1302,0.125 0.4245,0.2032 0.8828,0.2344 v 0.2344 H 3.5937 v -0.2344 c 0.4375,-0.0312 0.7162,-0.1146 0.836,-0.25 0.1198,-0.1354 0.1797,-0.4531 0.1797,-0.9531 v -5.1875 c 0,-0.4271 -0.0599,-0.7031 -0.1797,-0.8281 -0.1198,-0.125 -0.3985,-0.2136 -0.836,-0.2657 v -0.2187 h 3.2969 m -1.0625,3.8281 c 0.9688,-0.0208 1.6797,-0.151 2.1328,-0.3906 0.4531,-0.2396 0.6797,-0.6875 0.6797,-1.3438 0,-0.5625 -0.1797,-0.9765 -0.5391,-1.2422 -0.3593,-0.2656 -0.914,-0.3984 -1.664,-0.3984 -0.2396,0 -0.4011,0.0313 -0.4844,0.0938 -0.0833,0.0625 -0.125,0.177 -0.125,0.3437 v 2.9375 m 6.3281,-0.6094 c -0.1771,0 -0.3489,0.0157 -0.5156,0.0469 v -0.1875 c 0.5625,-0.1562 1.1823,-0.375 1.8594,-0.6562 l 0.0469,0.0312 v 4.2656 c 0,0.4271 0.052,0.698 0.1562,0.8125 0.1042,0.1146 0.349,0.1875 0.7344,0.2188 v 0.1875 h -2.8438 v -0.1875 c 0.4167,-0.0208 0.6797,-0.0912 0.7891,-0.211 0.1094,-0.1197 0.1641,-0.3932 0.1641,-0.8203 v -2.7812 c 0,-0.2708 -0.0313,-0.4583 -0.0938,-0.5625 -0.0625,-0.1042 -0.1615,-0.1563 -0.2969,-0.1563 m 0.7813,-3.4687 c 0.1771,0 0.3255,0.0599 0.4453,0.1797 0.1198,0.1198 0.1797,0.263 0.1797,0.4297 0,0.177 -0.0599,0.3229 -0.1797,0.4375 -0.1198,0.1145 -0.2682,0.1718 -0.4453,0.1718 -0.1667,0 -0.3073,-0.0599 -0.4219,-0.1797 -0.1146,-0.1197 -0.1719,-0.263 -0.1719,-0.4296 0,-0.1667 0.0599,-0.3099 0.1797,-0.4297 0.1198,-0.1198 0.2578,-0.1797 0.4141,-0.1797 m 2.5156,7.5312 c 0,-0.1562 0.0547,-0.2968 0.1641,-0.4218 0.1093,-0.125 0.4088,-0.4167 0.8984,-0.875 -0.3958,-0.198 -0.6797,-0.4219 -0.8516,-0.6719 -0.1718,-0.25 -0.2578,-0.5625 -0.2578,-0.9375 0,-0.5417 0.1927,-1.0026 0.5782,-1.3828 0.3854,-0.3802 0.8593,-0.5703 1.4218,-0.5703 0.3125,0 0.6459,0.0651 1,0.1953 0.3542,0.1302 0.6511,0.1953 0.8907,0.1953 h 0.9218 V 44.58 h -1 c 0.1563,0.3542 0.2344,0.6927 0.2344,1.0156 0,0.5521 -0.1875,1.0026 -0.5625,1.3516 -0.375,0.349 -0.8125,0.5234 -1.3125,0.5234 -0.0937,0 -0.3229,-0.0208 -0.6875,-0.0625 -0.1562,0.0417 -0.3151,0.1485 -0.4766,0.3203 -0.1614,0.1719 -0.2421,0.3152 -0.2421,0.4297 0,0.198 0.3125,0.3073 0.9375,0.3282 l 1.5468,0.0625 c 0.4375,0.0208 0.7891,0.1432 1.0547,0.3671 0.2656,0.224 0.3985,0.5183 0.3985,0.8829 0,0.5833 -0.3308,1.0729 -0.9922,1.4687 -0.6615,0.3958 -1.3724,0.5938 -2.1328,0.5938 -0.5625,0 -1.0469,-0.112 -1.4532,-0.336 -0.4062,-0.2239 -0.6093,-0.4974 -0.6093,-0.8203 0,-0.2292 0.0885,-0.4583 0.2656,-0.6875 0.1771,-0.2292 0.4791,-0.5052 0.9062,-0.8281 -0.25,-0.1146 -0.4192,-0.2136 -0.5078,-0.2969 -0.0885,-0.0833 -0.1328,-0.1823 -0.1328,-0.2969 m 0.8906,0.625 c -0.25,0.3021 -0.4114,0.5209 -0.4843,0.6563 -0.073,0.1354 -0.1094,0.2708 -0.1094,0.4062 0,0.2813 0.1614,0.5078 0.4844,0.6797 0.3229,0.1719 0.7447,0.2578 1.2656,0.2578 0.6875,0 1.237,-0.1145 1.6484,-0.3437 0.4115,-0.2292 0.6172,-0.5261 0.6172,-0.8906 0,-0.2292 -0.112,-0.3907 -0.3359,-0.4844 -0.224,-0.0938 -0.6068,-0.1406 -1.1485,-0.1406 -0.8021,0 -1.4479,-0.0469 -1.9375,-0.1407 m 2.1875,-3.1562 c 0,-0.1354 -0.0182,-0.2969 -0.0547,-0.4844 -0.0364,-0.1875 -0.0937,-0.401 -0.1718,-0.6406 -0.0782,-0.2396 -0.2058,-0.4401 -0.3828,-0.6016 -0.1771,-0.1614 -0.3907,-0.2422 -0.6407,-0.2422 -0.2708,0 -0.4843,0.0964 -0.6406,0.2891 -0.1562,0.1927 -0.2344,0.4609 -0.2344,0.8047 0,0.6875 0.1276,1.1875 0.3828,1.5 0.2552,0.3125 0.5339,0.4687 0.836,0.4687 0.2812,0 0.5026,-0.0963 0.664,-0.289 0.1615,-0.1927 0.2422,-0.461 0.2422,-0.8047 m 3.6875,-0.9219 v 2.8906 c 0,0.4167 0.0495,0.6849 0.1485,0.8047 0.0989,0.1198 0.3203,0.1953 0.664,0.2266 v 0.1875 h -2.5781 v -0.1875 c 0.3438,-0.0417 0.5573,-0.1198 0.6406,-0.2344 0.0834,-0.1146 0.125,-0.3802 0.125,-0.7969 v -5.6562 c 0,-0.25 -0.0338,-0.4167 -0.1015,-0.5 -0.0677,-0.0833 -0.2214,-0.125 -0.461,-0.125 -0.0521,0 -0.1198,0.0104 -0.2031,0.0312 v -0.1875 c 0.5729,-0.1562 1.1406,-0.3333 1.7031,-0.5312 l 0.0625,0.0312 v 3.6407 c 0.2709,-0.3542 0.5443,-0.6094 0.8203,-0.7657 0.2761,-0.1562 0.5912,-0.2343 0.9454,-0.2343 0.9895,0 1.4843,0.6354 1.4843,1.9062 v 2.3906 c 0,0.4167 0.0365,0.6771 0.1094,0.7813 0.0729,0.1042 0.276,0.1875 0.6094,0.25 v 0.1875 h -2.5469 v -0.1875 c 0.3438,-0.0313 0.5651,-0.1094 0.6641,-0.2344 0.0989,-0.125 0.1484,-0.3906 0.1484,-0.7969 v -2.375 c 0,-0.8541 -0.3021,-1.2812 -0.9062,-1.2812 -0.2292,0 -0.4454,0.0599 -0.6485,0.1797 -0.2031,0.1198 -0.4297,0.3151 -0.6797,0.5859 m 7.1875,-1.2812 v 0.3593 h -1.2187 v 3.4219 c 0,0.375 0.0495,0.6484 0.1484,0.8203 0.099,0.1719 0.2578,0.2578 0.4766,0.2578 0.25,0 0.4896,-0.1406 0.7187,-0.4218 l 0.1563,0.1406 c -0.3854,0.625 -0.8646,0.9375 -1.4375,0.9375 -0.7084,0 -1.0625,-0.5104 -1.0625,-1.5313 v -3.625 H 26.5469 C 26.5156,44.1894 26.5,44.1633 26.5,44.1425 c 0,-0.0417 0.013,-0.0729 0.039,-0.0937 0.0261,-0.0209 0.073,-0.0521 0.1407,-0.0938 0.0677,-0.0417 0.1484,-0.1016 0.2422,-0.1797 0.0937,-0.0781 0.2239,-0.2187 0.3906,-0.4219 0.1666,-0.2031 0.3541,-0.4453 0.5625,-0.7265 0.125,-0.1875 0.2031,-0.3021 0.2344,-0.3438 0.052,0 0.0781,0.0521 0.0781,0.1563 v 1.4219 h 1.2187 m 5.7344,1.0781 h 3.6406 v -2.3125 c 0,-0.4375 -0.0599,-0.7188 -0.1797,-0.8438 -0.1198,-0.125 -0.414,-0.2083 -0.8828,-0.25 v -0.2187 h 3.3438 v 0.2187 c -0.4688,0.0417 -0.763,0.125 -0.8828,0.25 C 40.0599,41.9081 40,42.1894 40,42.6269 v 5.3125 c 0,0.4271 0.0651,0.7057 0.1953,0.8359 0.1302,0.1302 0.4193,0.211 0.8672,0.2422 v 0.2344 h -3.3438 v -0.2344 c 0.4688,-0.0312 0.763,-0.1146 0.8828,-0.25 0.1198,-0.1354 0.1797,-0.4531 0.1797,-0.9531 v -2.3438 h -3.6406 v 2.4688 c 0,0.4271 0.0651,0.7057 0.1953,0.8359 0.1302,0.1302 0.4193,0.211 0.8672,0.2422 v 0.2344 H 32.875 v -0.2344 c 0.4583,-0.0312 0.7474,-0.1146 0.8672,-0.25 0.1198,-0.1354 0.1797,-0.4531 0.1797,-0.9531 v -5.1875 c 0,-0.4375 -0.0599,-0.7188 -0.1797,-0.8438 -0.1198,-0.125 -0.4089,-0.2083 -0.8672,-0.25 v -0.2187 h 3.3281 v 0.2187 c -0.4687,0.0417 -0.763,0.125 -0.8828,0.25 -0.1198,0.125 -0.1797,0.4063 -0.1797,0.8438 v 2.3125 m 6.4063,3.125 c 0,-0.1458 0.0156,-0.2787 0.0468,-0.3985 0.0313,-0.1197 0.0886,-0.2343 0.1719,-0.3437 0.0833,-0.1094 0.1589,-0.2083 0.2266,-0.2969 0.0677,-0.0885 0.1744,-0.1771 0.3203,-0.2656 0.1458,-0.0885 0.2682,-0.1641 0.3672,-0.2266 0.0989,-0.0625 0.2448,-0.1354 0.4375,-0.2187 0.1927,-0.0833 0.3411,-0.1458 0.4453,-0.1875 0.1041,-0.0417 0.2682,-0.1068 0.4922,-0.1953 0.2239,-0.0886 0.388,-0.1537 0.4922,-0.1953 v -0.7188 c 0,-0.6667 -0.3021,-1 -0.9063,-1 -0.2396,0 -0.4453,0.0599 -0.6172,0.1797 -0.1719,0.1198 -0.2578,0.2578 -0.2578,0.4141 0,0.0625 0.0104,0.151 0.0313,0.2656 0.0208,0.1146 0.0312,0.1875 0.0312,0.2187 0,0.1355 -0.0521,0.2526 -0.1562,0.3516 -0.1042,0.099 -0.2292,0.1484 -0.375,0.1484 -0.1355,0 -0.2553,-0.052 -0.3594,-0.1562 -0.1042,-0.1042 -0.1563,-0.224 -0.1563,-0.3594 0,-0.375 0.1927,-0.6927 0.5782,-0.9531 0.3854,-0.2604 0.8645,-0.3906 1.4375,-0.3906 0.6562,0 1.1067,0.1562 1.3515,0.4687 0.2448,0.3125 0.3672,0.7917 0.3672,1.4375 v 2.3281 c 0,0.2605 0.026,0.4401 0.0781,0.5391 0.0521,0.099 0.1459,0.1484 0.2813,0.1484 0.1666,0 0.3437,-0.0729 0.5312,-0.2187 v 0.3125 c -0.2083,0.2396 -0.3906,0.4036 -0.5468,0.4922 -0.1563,0.0885 -0.3334,0.1328 -0.5313,0.1328 -0.25,0 -0.4323,-0.0703 -0.5469,-0.211 -0.1146,-0.1406 -0.1875,-0.3723 -0.2187,-0.6953 -0.6875,0.6042 -1.2709,0.9063 -1.75,0.9063 -0.375,0 -0.6797,-0.1224 -0.9141,-0.3672 -0.2344,-0.2448 -0.3515,-0.5599 -0.3515,-0.9453 m 3,-0.3125 v -1.7188 c -0.7188,0.2605 -1.2214,0.5131 -1.5079,0.7578 -0.2864,0.2448 -0.4296,0.5443 -0.4296,0.8985 0,0.3229 0.0781,0.5651 0.2343,0.7265 0.1563,0.1615 0.3282,0.2422 0.5157,0.2422 0.2708,0 0.5625,-0.0937 0.875,-0.2812 0.125,-0.0729 0.2083,-0.1485 0.25,-0.2266 0.0416,-0.0781 0.0625,-0.2109 0.0625,-0.3984 m 2.0468,-3.2813 v -0.2031 c 0.5834,-0.1771 1.1354,-0.3542 1.6563,-0.5312 l 0.0781,0.0156 v 0.9375 c 0.4063,-0.375 0.7266,-0.6276 0.9609,-0.7578 0.2344,-0.1302 0.4922,-0.1953 0.7735,-0.1953 0.4375,0 0.7838,0.1562 1.039,0.4687 0.2552,0.3125 0.3829,0.75 0.3829,1.3125 v 2.7656 c 0,0.2917 0.0468,0.487 0.1406,0.586 0.0937,0.0989 0.2916,0.164 0.5937,0.1953 v 0.1875 h -2.5 v -0.1875 c 0.3021,-0.0208 0.5026,-0.099 0.6016,-0.2344 0.0989,-0.1354 0.1484,-0.3906 0.1484,-0.7656 v -2.5156 c 0,-0.7813 -0.2916,-1.1719 -0.875,-1.1719 -0.1979,0 -0.3802,0.0469 -0.5468,0.1406 -0.1667,0.0938 -0.3959,0.2761 -0.6875,0.5469 v 3.375 c 0,0.2187 0.0572,0.3724 0.1718,0.4609 0.1146,0.0886 0.3229,0.1433 0.625,0.1641 v 0.1875 h -2.5468 v -0.1875 c 0.302,-0.0208 0.5026,-0.0886 0.6015,-0.2031 0.099,-0.1146 0.1485,-0.3438 0.1485,-0.6875 v -2.9844 c 0,-0.3021 -0.0313,-0.5052 -0.0938,-0.6094 -0.0625,-0.1042 -0.1823,-0.1562 -0.3594,-0.1562 -0.1458,0 -0.25,0.0156 -0.3125,0.0468 M 56.4375,49.3769 56.375,49.33 v -0.7812 c -0.375,0.552 -0.8854,0.8281 -1.5313,0.8281 -0.6666,0 -1.2031,-0.2396 -1.6093,-0.7188 -0.4063,-0.4791 -0.6094,-1.1041 -0.6094,-1.875 0,-0.8437 0.2448,-1.5625 0.7344,-2.1562 0.4895,-0.5938 1.0781,-0.8906 1.7656,-0.8906 0.4271,0 0.8437,0.177 1.25,0.5312 v -1.875 c 0,-0.25 -0.0339,-0.4167 -0.1016,-0.5 -0.0677,-0.0833 -0.2161,-0.125 -0.4453,-0.125 -0.1146,0 -0.2031,0.0052 -0.2656,0.0156 v -0.1875 c 0.7291,-0.1979 1.3177,-0.375 1.7656,-0.5312 l 0.0625,0.0156 v 6.7813 c 0,0.2812 0.0339,0.4661 0.1016,0.5546 0.0677,0.0886 0.2109,0.1329 0.4297,0.1329 0.0416,0 0.1302,-0.0052 0.2656,-0.0157 v 0.1875 l -1.75,0.6563 m -1.125,-0.6563 c 0.3021,0 0.5547,-0.0833 0.7578,-0.25 0.2031,-0.1666 0.3047,-0.3177 0.3047,-0.4531 v -2.7344 c 0,-0.3125 -0.1224,-0.5885 -0.3672,-0.8281 -0.2448,-0.2396 -0.5287,-0.3594 -0.8516,-0.3594 -0.4583,0 -0.8229,0.2006 -1.0937,0.6016 -0.2709,0.401 -0.4063,0.9401 -0.4063,1.6172 0,0.7292 0.1537,1.3125 0.461,1.75 0.3073,0.4375 0.7057,0.6562 1.1953,0.6562 m 3.4844,-7.5781 c 0.2083,0.125 0.4244,0.2787 0.6484,0.4609 0.2239,0.1823 0.4792,0.4323 0.7656,0.75 0.2865,0.3178 0.5365,0.6589 0.75,1.0235 0.2136,0.3646 0.3958,0.8021 0.5469,1.3125 0.151,0.5104 0.2266,1.0417 0.2266,1.5937 0,0.5834 -0.0756,1.1328 -0.2266,1.6485 -0.1511,0.5156 -0.3255,0.9427 -0.5234,1.2812 -0.198,0.3386 -0.4506,0.6667 -0.7579,0.9844 -0.3073,0.3177 -0.5625,0.5521 -0.7656,0.7031 -0.2031,0.1511 -0.4349,0.3099 -0.6953,0.4766 l -0.1094,-0.1875 c 0.3542,-0.2917 0.638,-0.5547 0.8516,-0.7891 0.2135,-0.2344 0.4219,-0.5364 0.625,-0.9062 0.2031,-0.3698 0.3489,-0.8125 0.4375,-1.3282 0.0885,-0.5156 0.1328,-1.1276 0.1328,-1.8359 0,-0.75 -0.0443,-1.3932 -0.1328,-1.9297 -0.0886,-0.5364 -0.2344,-0.9922 -0.4375,-1.3672 -0.2031,-0.375 -0.4115,-0.6849 -0.625,-0.9297 -0.2136,-0.2447 -0.4974,-0.5026 -0.8516,-0.7734 l 0.1407,-0.1875"
     id="path32"
     inkscape:connector-curvature="0" />
  <polyline
     class="BarLine"
     points="96.6218,63.3487 96.6218,135.853"
     id="polyline34"
     style="fill:none;stroke:#000000;stroke-width:0.80000001;stroke-linejoin:bevel"
     transform="translate(-28.9246,-35.0974)" />
  <path
     class="BarLine"
     d="m 500.4284,89.0516 c -0.224,-0.218 -0.336,-0.484 -0.336,-0.796 0,-0.313 0.112,-0.581 0.336,-0.805 0.224,-0.224 0.493,-0.336 0.805,-0.336 0.313,0 0.578,0.112 0.797,0.336 0.219,0.224 0.328,0.492 0.328,0.805 0,0.312 -0.109,0.578 -0.328,0.796 -0.219,0.219 -0.484,0.329 -0.797,0.329 -0.312,0 -0.581,-0.11 -0.805,-0.329"
     id="path36"
     inkscape:connector-curvature="0" />
  <path
     class="BarLine"
     d="m 500.4284,94.0526 c -0.224,-0.219 -0.336,-0.485 -0.336,-0.797 0,-0.313 0.112,-0.581 0.336,-0.805 0.224,-0.224 0.493,-0.336 0.805,-0.336 0.313,0 0.578,0.112 0.797,0.336 0.219,0.224 0.328,0.492 0.328,0.805 0,0.312 -0.109,0.578 -0.328,0.797 -0.219,0.219 -0.484,0.328 -0.797,0.328 -0.312,0 -0.581,-0.109 -0.805,-0.328"
     id="path38"
     inkscape:connector-curvature="0" />
  <polyline
     class="BarLine"
     points="533.683,115.852 533.683,135.853"
     id="polyline40"
     style="fill:none;stroke:#000000;stroke-width:0.80000001;stroke-linejoin:bevel"
     transform="translate(-28.9246,-35.0974)" />
  <polyline
     class="BarLine"
     points="537.334,115.852 537.334,135.853"
     id="polyline42"
     style="fill:none;stroke:#000000;stroke-width:2.5;stroke-linejoin:bevel"
     transform="translate(-28.9246,-35.0974)" />
  <path
     class="BarLine"
     d="m 500.4284,36.5488 c -0.224,-0.2188 -0.336,-0.4844 -0.336,-0.7969 0,-0.3125 0.112,-0.5807 0.336,-0.8047 0.224,-0.224 0.493,-0.3359 0.805,-0.3359 0.313,0 0.578,0.1119 0.797,0.3359 0.219,0.224 0.328,0.4922 0.328,0.8047 0,0.3125 -0.109,0.5781 -0.328,0.7969 -0.219,0.2187 -0.484,0.3281 -0.797,0.3281 -0.312,0 -0.581,-0.1094 -0.805,-0.3281"
     id="path44"
     inkscape:connector-curvature="0" />
  <path
     class="BarLine"
     d="m 500.4284,41.5491 c -0.224,-0.2188 -0.336,-0.4844 -0.336,-0.7969 0,-0.3125 0.112,-0.5807 0.336,-0.8047 0.224,-0.2239 0.493,-0.3359 0.805,-0.3359 0.313,0 0.578,0.112 0.797,0.3359 0.219,0.224 0.328,0.4922 0.328,0.8047 0,0.3125 -0.109,0.5781 -0.328,0.7969 -0.219,0.2187 -0.484,0.3281 -0.797,0.3281 -0.312,0 -0.581,-0.1094 -0.805,-0.3281"
     id="path46"
     inkscape:connector-curvature="0" />
  <polyline
     class="BarLine"
     points="533.683,63.3487 533.683,83.3499"
     id="polyline48"
     style="fill:none;stroke:#000000;stroke-width:0.80000001;stroke-linejoin:bevel"
     transform="translate(-28.9246,-35.0974)" />
  <polyline
     class="BarLine"
     points="537.334,63.3487 537.334,83.3499"
     id="polyline50"
     style="fill:none;stroke:#000000;stroke-width:2.5;stroke-linejoin:bevel"
     transform="translate(-28.9246,-35.0974)" />
  <polyline
     class="BarLine"
     points="432.455,115.852 432.455,135.853"
     id="polyline52"
     style="fill:none;stroke:#000000;stroke-width:0.80000001;stroke-linejoin:bevel"
     transform="translate(-28.9246,-35.0974)" />
  <polyline
     class="BarLine"
     points="432.455,63.3487 432.455,83.3499"
     id="polyline54"
     style="fill:none;stroke:#000000;stroke-width:0.80000001;stroke-linejoin:bevel"
     transform="translate(-28.9246,-35.0974)" />
  <polyline
     class="BarLine"
     points="335.493,115.852 335.493,135.853"
     id="polyline56"
     style="fill:none;stroke:#000000;stroke-width:0.80000001;stroke-linejoin:bevel"
     transform="translate(-28.9246,-35.0974)" />
  <polyline
     class="BarLine"
     points="335.493,63.3487 335.493,83.3499"
     id="polyline58"
     style="fill:none;stroke:#000000;stroke-width:0.80000001;stroke-linejoin:bevel"
     transform="translate(-28.9246,-35.0974)" />
  <polyline
     class="BarLine"
     points="238.531,115.852 238.531,135.853"
     id="polyline60"
     style="fill:none;stroke:#000000;stroke-width:0.80000001;stroke-linejoin:bevel"
     transform="translate(-28.9246,-35.0974)" />
  <polyline
     class="BarLine"
     points="238.531,63.3487 238.531,83.3499"
     id="polyline62"
     style="fill:none;stroke:#000000;stroke-width:0.80000001;stroke-linejoin:bevel"
     transform="translate(-28.9246,-35.0974)" />
  <path
     class="BarLine"
     d="m 111.9104,89.0516 c -0.223,-0.218 -0.335,-0.484 -0.335,-0.796 0,-0.313 0.112,-0.581 0.335,-0.805 0.224,-0.224 0.493,-0.336 0.805,-0.336 0.313,0 0.578,0.112 0.797,0.336 0.219,0.224 0.328,0.492 0.328,0.805 0,0.312 -0.109,0.578 -0.328,0.796 -0.219,0.219 -0.484,0.329 -0.797,0.329 -0.312,0 -0.581,-0.11 -0.805,-0.329"
     id="path64"
     inkscape:connector-curvature="0" />
  <path
     class="BarLine"
     d="m 111.9104,94.0526 c -0.223,-0.219 -0.335,-0.485 -0.335,-0.797 0,-0.313 0.112,-0.581 0.335,-0.805 0.224,-0.224 0.493,-0.336 0.805,-0.336 0.313,0 0.578,0.112 0.797,0.336 0.219,0.224 0.328,0.492 0.328,0.805 0,0.312 -0.109,0.578 -0.328,0.797 -0.219,0.219 -0.484,0.328 -0.797,0.328 -0.312,0 -0.581,-0.109 -0.805,-0.328"
     id="path66"
     inkscape:connector-curvature="0" />
  <polyline
     class="BarLine"
     points="138.103,115.852 138.103,135.853"
     id="polyline68"
     style="fill:none;stroke:#000000;stroke-width:0.80000001;stroke-linejoin:bevel"
     transform="translate(-28.9246,-35.0974)" />
  <polyline
     class="BarLine"
     points="134.452,115.852 134.452,135.853"
     id="polyline70"
     style="fill:none;stroke:#000000;stroke-width:2.5;stroke-linejoin:bevel"
     transform="translate(-28.9246,-35.0974)" />
  <path
     class="BarLine"
     d="m 111.9104,36.5488 c -0.223,-0.2188 -0.335,-0.4844 -0.335,-0.7969 0,-0.3125 0.112,-0.5807 0.335,-0.8047 0.224,-0.224 0.493,-0.3359 0.805,-0.3359 0.313,0 0.578,0.1119 0.797,0.3359 0.219,0.224 0.328,0.4922 0.328,0.8047 0,0.3125 -0.109,0.5781 -0.328,0.7969 -0.219,0.2187 -0.484,0.3281 -0.797,0.3281 -0.312,0 -0.581,-0.1094 -0.805,-0.3281"
     id="path72"
     inkscape:connector-curvature="0" />
  <path
     class="BarLine"
     d="m 111.9104,41.5491 c -0.223,-0.2188 -0.335,-0.4844 -0.335,-0.7969 0,-0.3125 0.112,-0.5807 0.335,-0.8047 0.224,-0.2239 0.493,-0.3359 0.805,-0.3359 0.313,0 0.578,0.112 0.797,0.3359 0.219,0.224 0.328,0.4922 0.328,0.8047 0,0.3125 -0.109,0.5781 -0.328,0.7969 -0.219,0.2187 -0.484,0.3281 -0.797,0.3281 -0.312,0 -0.581,-0.1094 -0.805,-0.3281"
     id="path74"
     inkscape:connector-curvature="0" />
  <polyline
     class="BarLine"
     points="138.103,63.3487 138.103,83.3499"
     id="polyline76"
     style="fill:none;stroke:#000000;stroke-width:0.80000001;stroke-linejoin:bevel"
     transform="translate(-28.9246,-35.0974)" />
  <polyline
     class="BarLine"
     points="134.452,63.3487 134.452,83.3499"
     id="polyline78"
     style="fill:none;stroke:#000000;stroke-width:2.5;stroke-linejoin:bevel"
     transform="translate(-28.9246,-35.0974)" />
  <path
     class="Accidental"
     d="m 450.3994,47.4244 v 1.5469 c 0,0.552 0.026,0.9895 0.078,1.3125 0.427,-0.3646 0.734,-0.6355 0.922,-0.8125 0.208,-0.2084 0.416,-0.4974 0.625,-0.8672 0.208,-0.3698 0.312,-0.737 0.312,-1.1016 0,-0.3646 -0.078,-0.6771 -0.234,-0.9375 -0.156,-0.2604 -0.365,-0.3906 -0.625,-0.3906 -0.313,0 -0.573,0.1198 -0.781,0.3594 -0.198,0.2604 -0.297,0.5573 -0.297,0.8906 m -0.828,3.5781 -0.25,-11.8906 c 0.187,-0.1042 0.372,-0.1563 0.554,-0.1563 0.183,0 0.362,0.0521 0.539,0.1563 l -0.156,6.8906 c 0.531,-0.4583 1.146,-0.6875 1.844,-0.6875 0.5,0 0.919,0.2083 1.258,0.625 0.338,0.4167 0.507,0.8958 0.507,1.4375 0,0.3333 -0.109,0.6927 -0.328,1.0781 -0.208,0.3438 -0.427,0.6146 -0.656,0.8125 -0.135,0.1042 -0.469,0.3646 -1,0.7813 -0.156,0.1146 -0.341,0.25 -0.555,0.4062 -0.213,0.1563 -0.346,0.2552 -0.398,0.2969 -0.094,0.0521 -0.182,0.1563 -0.266,0.3125 -0.083,0.1354 -0.187,0.2448 -0.312,0.3281 -0.084,0.0834 -0.19,0.125 -0.321,0.125 -0.13,0 -0.236,-0.0468 -0.32,-0.1406 -0.094,-0.0937 -0.14,-0.2187 -0.14,-0.375"
     id="path80"
     inkscape:connector-curvature="0" />
  <path
     class="Accidental"
     d="m 353.4364,47.4244 v 1.5469 c 0,0.552 0.026,0.9895 0.078,1.3125 0.428,-0.3646 0.735,-0.6355 0.922,-0.8125 0.209,-0.2084 0.417,-0.4974 0.625,-0.8672 0.209,-0.3698 0.313,-0.737 0.313,-1.1016 0,-0.3646 -0.078,-0.6771 -0.235,-0.9375 -0.156,-0.2604 -0.364,-0.3906 -0.625,-0.3906 -0.312,0 -0.572,0.1198 -0.781,0.3594 -0.198,0.2604 -0.297,0.5573 -0.297,0.8906 m -0.828,3.5781 -0.25,-11.8906 c 0.188,-0.1042 0.373,-0.1563 0.555,-0.1563 0.182,0 0.362,0.0521 0.539,0.1563 l -0.156,6.8906 c 0.531,-0.4583 1.146,-0.6875 1.843,-0.6875 0.5,0 0.92,0.2083 1.258,0.625 0.339,0.4167 0.508,0.8958 0.508,1.4375 0,0.3333 -0.109,0.6927 -0.328,1.0781 -0.208,0.3438 -0.427,0.6146 -0.656,0.8125 -0.136,0.1042 -0.469,0.3646 -1,0.7813 -0.157,0.1146 -0.341,0.25 -0.555,0.4062 -0.213,0.1563 -0.346,0.2552 -0.398,0.2969 -0.094,0.0521 -0.183,0.1563 -0.266,0.3125 -0.083,0.1354 -0.188,0.2448 -0.313,0.3281 -0.083,0.0834 -0.19,0.125 -0.32,0.125 -0.13,0 -0.237,-0.0468 -0.32,-0.1406 -0.094,-0.0937 -0.141,-0.2187 -0.141,-0.375"
     id="path82"
     inkscape:connector-curvature="0" />
  <path
     class="Accidental"
     d="m 256.4744,47.4244 v 1.5469 c 0,0.552 0.026,0.9895 0.078,1.3125 0.427,-0.3646 0.735,-0.6355 0.922,-0.8125 0.208,-0.2084 0.417,-0.4974 0.625,-0.8672 0.208,-0.3698 0.313,-0.737 0.313,-1.1016 0,-0.3646 -0.079,-0.6771 -0.235,-0.9375 -0.156,-0.2604 -0.364,-0.3906 -0.625,-0.3906 -0.312,0 -0.573,0.1198 -0.781,0.3594 -0.198,0.2604 -0.297,0.5573 -0.297,0.8906 m -0.828,3.5781 -0.25,-11.8906 c 0.187,-0.1042 0.372,-0.1563 0.555,-0.1563 0.182,0 0.362,0.0521 0.539,0.1563 l -0.157,6.8906 c 0.532,-0.4583 1.146,-0.6875 1.844,-0.6875 0.5,0 0.919,0.2083 1.258,0.625 0.339,0.4167 0.508,0.8958 0.508,1.4375 0,0.3333 -0.11,0.6927 -0.328,1.0781 -0.209,0.3438 -0.427,0.6146 -0.657,0.8125 -0.135,0.1042 -0.468,0.3646 -1,0.7813 -0.156,0.1146 -0.341,0.25 -0.554,0.4062 -0.214,0.1563 -0.347,0.2552 -0.399,0.2969 -0.093,0.0521 -0.182,0.1563 -0.265,0.3125 -0.084,0.1354 -0.188,0.2448 -0.313,0.3281 -0.083,0.0834 -0.19,0.125 -0.32,0.125 -0.13,0 -0.237,-0.0468 -0.32,-0.1406 -0.094,-0.0937 -0.141,-0.2187 -0.141,-0.375"
     id="path84"
     inkscape:connector-curvature="0" />
  <path
     class="Accidental"
     d="m 159.9124,47.4244 v 1.5469 c 0,0.552 0.026,0.9895 0.078,1.3125 0.427,-0.3646 0.734,-0.6355 0.922,-0.8125 0.208,-0.2084 0.416,-0.4974 0.625,-0.8672 0.208,-0.3698 0.312,-0.737 0.312,-1.1016 0,-0.3646 -0.078,-0.6771 -0.234,-0.9375 -0.156,-0.2604 -0.365,-0.3906 -0.625,-0.3906 -0.313,0 -0.573,0.1198 -0.781,0.3594 -0.198,0.2604 -0.297,0.5573 -0.297,0.8906 m -0.828,3.5781 -0.25,-11.8906 c 0.187,-0.1042 0.372,-0.1563 0.554,-0.1563 0.183,0 0.362,0.0521 0.539,0.1563 l -0.156,6.8906 c 0.531,-0.4583 1.146,-0.6875 1.844,-0.6875 0.5,0 0.919,0.2083 1.258,0.625 0.338,0.4167 0.508,0.8958 0.508,1.4375 0,0.3333 -0.11,0.6927 -0.329,1.0781 -0.208,0.3438 -0.427,0.6146 -0.656,0.8125 -0.135,0.1042 -0.469,0.3646 -1,0.7813 -0.156,0.1146 -0.341,0.25 -0.555,0.4062 -0.213,0.1563 -0.346,0.2552 -0.398,0.2969 -0.094,0.0521 -0.182,0.1563 -0.266,0.3125 -0.083,0.1354 -0.187,0.2448 -0.312,0.3281 -0.083,0.0834 -0.19,0.125 -0.32,0.125 -0.131,0 -0.237,-0.0468 -0.321,-0.1406 -0.093,-0.0937 -0.14,-0.2187 -0.14,-0.375"
     id="path86"
     inkscape:connector-curvature="0" />
  <polyline
     class="Stem"
     points="520.249,82.4108 520.249,68.349"
     id="polyline88"
     style="fill:none;stroke:#000000;stroke-width:0.64999998;stroke-linecap:round;stroke-linejoin:bevel"
     transform="translate(-28.9246,-35.0974)" />
  <polyline
     class="Stem"
     points="505.222,127.414 505.222,112.102"
     id="polyline90"
     style="fill:none;stroke:#000000;stroke-width:0.64999998;stroke-linecap:round;stroke-linejoin:bevel"
     transform="translate(-28.9246,-35.0974)" />
  <polyline
     class="Stem"
     points="505.222,79.9106 505.222,67.0989"
     id="polyline92"
     style="fill:none;stroke:#000000;stroke-width:0.64999998;stroke-linecap:round;stroke-linejoin:bevel"
     transform="translate(-28.9246,-35.0974)" />
  <polyline
     class="Stem"
     points="490.195,82.4108 490.195,68.349"
     id="polyline94"
     style="fill:none;stroke:#000000;stroke-width:0.64999998;stroke-linecap:round;stroke-linejoin:bevel"
     transform="translate(-28.9246,-35.0974)" />
  <polyline
     class="Stem"
     points="469.235,121.791 469.235,137.728"
     id="polyline96"
     style="fill:none;stroke:#000000;stroke-width:0.64999998;stroke-linecap:round;stroke-linejoin:bevel"
     transform="translate(-28.9246,-35.0974)" />
  <polyline
     class="Stem"
     points="475.168,84.9109 475.168,69.599"
     id="polyline98"
     style="fill:none;stroke:#000000;stroke-width:0.64999998;stroke-linecap:round;stroke-linejoin:bevel"
     transform="translate(-28.9246,-35.0974)" />
  <polyline
     class="Stem"
     points="439.181,126.792 439.181,141.479"
     id="polyline100"
     style="fill:none;stroke:#000000;stroke-width:0.64999998;stroke-linecap:round;stroke-linejoin:bevel"
     transform="translate(-28.9246,-35.0974)" />
  <polyline
     class="Stem"
     points="445.114,84.9109 445.114,68.349"
     id="polyline102"
     style="fill:none;stroke:#000000;stroke-width:0.64999998;stroke-linecap:round;stroke-linejoin:bevel"
     transform="translate(-28.9246,-35.0974)" />
  <polyline
     class="Stem"
     points="423.286,82.4108 423.286,68.349"
     id="polyline104"
     style="fill:none;stroke:#000000;stroke-width:0.64999998;stroke-linecap:round;stroke-linejoin:bevel"
     transform="translate(-28.9246,-35.0974)" />
  <polyline
     class="Stem"
     points="408.259,84.9109 408.259,69.599"
     id="polyline106"
     style="fill:none;stroke:#000000;stroke-width:0.64999998;stroke-linecap:round;stroke-linejoin:bevel"
     transform="translate(-28.9246,-35.0974)" />
  <polyline
     class="Stem"
     points="393.232,82.4108 393.232,68.349"
     id="polyline108"
     style="fill:none;stroke:#000000;stroke-width:0.64999998;stroke-linecap:round;stroke-linejoin:bevel"
     transform="translate(-28.9246,-35.0974)" />
  <polyline
     class="Stem"
     points="378.205,84.9109 378.205,69.599"
     id="polyline110"
     style="fill:none;stroke:#000000;stroke-width:0.64999998;stroke-linecap:round;stroke-linejoin:bevel"
     transform="translate(-28.9246,-35.0974)" />
  <polyline
     class="Stem"
     points="342.218,126.792 342.218,141.479"
     id="polyline112"
     style="fill:none;stroke:#000000;stroke-width:0.64999998;stroke-linecap:round;stroke-linejoin:bevel"
     transform="translate(-28.9246,-35.0974)" />
  <polyline
     class="Stem"
     points="348.151,84.9109 348.151,68.349"
     id="polyline114"
     style="fill:none;stroke:#000000;stroke-width:0.64999998;stroke-linecap:round;stroke-linejoin:bevel"
     transform="translate(-28.9246,-35.0974)" />
  <polyline
     class="Stem"
     points="326.324,82.4108 326.324,68.349"
     id="polyline116"
     style="fill:none;stroke:#000000;stroke-width:0.64999998;stroke-linecap:round;stroke-linejoin:bevel"
     transform="translate(-28.9246,-35.0974)" />
  <polyline
     class="Stem"
     points="311.297,84.9109 311.297,69.599"
     id="polyline118"
     style="fill:none;stroke:#000000;stroke-width:0.64999998;stroke-linecap:round;stroke-linejoin:bevel"
     transform="translate(-28.9246,-35.0974)" />
  <polyline
     class="Stem"
     points="296.27,82.4108 296.27,68.349"
     id="polyline120"
     style="fill:none;stroke:#000000;stroke-width:0.64999998;stroke-linecap:round;stroke-linejoin:bevel"
     transform="translate(-28.9246,-35.0974)" />
  <polyline
     class="Stem"
     points="281.243,84.9109 281.243,69.599"
     id="polyline122"
     style="fill:none;stroke:#000000;stroke-width:0.64999998;stroke-linecap:round;stroke-linejoin:bevel"
     transform="translate(-28.9246,-35.0974)" />
  <polyline
     class="Stem"
     points="245.256,126.792 245.256,141.479"
     id="polyline124"
     style="fill:none;stroke:#000000;stroke-width:0.64999998;stroke-linecap:round;stroke-linejoin:bevel"
     transform="translate(-28.9246,-35.0974)" />
  <polyline
     class="Stem"
     points="251.189,84.9109 251.189,68.349"
     id="polyline126"
     style="fill:none;stroke:#000000;stroke-width:0.64999998;stroke-linecap:round;stroke-linejoin:bevel"
     transform="translate(-28.9246,-35.0974)" />
  <polyline
     class="Stem"
     points="229.495,82.4108 229.495,68.349"
     id="polyline128"
     style="fill:none;stroke:#000000;stroke-width:0.64999998;stroke-linecap:round;stroke-linejoin:bevel"
     transform="translate(-28.9246,-35.0974)" />
  <polyline
     class="Stem"
     points="214.601,84.9109 214.601,69.599"
     id="polyline130"
     style="fill:none;stroke:#000000;stroke-width:0.64999998;stroke-linecap:round;stroke-linejoin:bevel"
     transform="translate(-28.9246,-35.0974)" />
  <polyline
     class="Stem"
     points="199.708,82.4108 199.708,68.349"
     id="polyline132"
     style="fill:none;stroke:#000000;stroke-width:0.64999998;stroke-linecap:round;stroke-linejoin:bevel"
     transform="translate(-28.9246,-35.0974)" />
  <polyline
     class="Stem"
     points="184.814,84.9109 184.814,69.599"
     id="polyline134"
     style="fill:none;stroke:#000000;stroke-width:0.64999998;stroke-linecap:round;stroke-linejoin:bevel"
     transform="translate(-28.9246,-35.0974)" />
  <polyline
     class="Stem"
     points="149.094,126.792 149.094,141.479"
     id="polyline136"
     style="fill:none;stroke:#000000;stroke-width:0.64999998;stroke-linecap:round;stroke-linejoin:bevel"
     transform="translate(-28.9246,-35.0974)" />
  <polyline
     class="Stem"
     points="155.027,84.9109 155.027,68.349"
     id="polyline138"
     style="fill:none;stroke:#000000;stroke-width:0.64999998;stroke-linecap:round;stroke-linejoin:bevel"
     transform="translate(-28.9246,-35.0974)" />
  <path
     class="Note"
     d="m 489.4564,45.5025 c 0.625,0 1.156,0.1615 1.594,0.4844 0.396,0.3542 0.594,0.7969 0.594,1.3281 0,0.8958 -0.459,1.7344 -1.375,2.5156 -0.938,0.7813 -1.943,1.1719 -3.016,1.1719 -0.625,0 -1.151,-0.1614 -1.578,-0.4844 -0.406,-0.3541 -0.61,-0.7968 -0.61,-1.3281 0,-0.8958 0.469,-1.7344 1.407,-2.5156 0.916,-0.7813 1.911,-1.1719 2.984,-1.1719"
     id="path140"
     inkscape:connector-curvature="0" />
  <path
     class="Note"
     d="m 474.4294,90.5056 c 0.625,0 1.156,0.161 1.594,0.484 0.396,0.354 0.594,0.797 0.594,1.328 0,0.896 -0.459,1.735 -1.375,2.516 -0.938,0.781 -1.943,1.172 -3.016,1.172 -0.625,0 -1.151,-0.162 -1.578,-0.485 -0.406,-0.354 -0.609,-0.797 -0.609,-1.328 0,-0.896 0.468,-1.734 1.406,-2.515 0.916,-0.782 1.911,-1.172 2.984,-1.172"
     id="path142"
     inkscape:connector-curvature="0" />
  <path
     class="Note"
     d="m 474.4294,43.0024 c 0.625,0 1.156,0.1614 1.594,0.4843 0.396,0.3542 0.594,0.7969 0.594,1.3282 0,0.8958 -0.459,1.7343 -1.375,2.5156 -0.938,0.7812 -1.943,1.1719 -3.016,1.1719 -0.625,0 -1.151,-0.1615 -1.578,-0.4844 -0.406,-0.3542 -0.609,-0.7969 -0.609,-1.3281 0,-0.8959 0.468,-1.7344 1.406,-2.5157 0.916,-0.7812 1.911,-1.1718 2.984,-1.1718"
     id="path144"
     inkscape:connector-curvature="0" />
  <path
     class="Note"
     d="m 459.4024,45.5025 c 0.625,0 1.156,0.1615 1.594,0.4844 0.396,0.3542 0.594,0.7969 0.594,1.3281 0,0.8958 -0.459,1.7344 -1.375,2.5156 -0.938,0.7813 -1.943,1.1719 -3.016,1.1719 -0.625,0 -1.151,-0.1614 -1.578,-0.4844 -0.406,-0.3541 -0.609,-0.7968 -0.609,-1.3281 0,-0.8958 0.468,-1.7344 1.406,-2.5156 0.916,-0.7813 1.911,-1.1719 2.984,-1.1719"
     id="path146"
     inkscape:connector-curvature="0" />
  <path
     class="Note"
     d="m 444.3754,83.0046 c 0.625,0 1.156,0.162 1.594,0.485 0.396,0.354 0.594,0.797 0.594,1.328 0,0.896 -0.459,1.734 -1.375,2.515 -0.938,0.782 -1.943,1.172 -3.016,1.172 -0.625,0 -1.151,-0.161 -1.578,-0.484 -0.406,-0.354 -0.609,-0.797 -0.609,-1.328 0,-0.896 0.468,-1.735 1.406,-2.516 0.916,-0.781 1.911,-1.172 2.984,-1.172"
     id="path148"
     inkscape:connector-curvature="0" />
  <path
     class="Note"
     d="m 444.3754,48.0027 c 0.625,0 1.156,0.1614 1.594,0.4843 0.396,0.3542 0.594,0.7969 0.594,1.3282 0,0.8958 -0.459,1.7343 -1.375,2.5156 -0.938,0.7812 -1.943,1.1719 -3.016,1.1719 -0.625,0 -1.151,-0.1615 -1.578,-0.4844 -0.406,-0.3542 -0.609,-0.7969 -0.609,-1.3281 0,-0.8959 0.468,-1.7344 1.406,-2.5157 0.916,-0.7812 1.911,-1.1718 2.984,-1.1718"
     id="path150"
     inkscape:connector-curvature="0" />
  <path
     class="Note"
     d="m 414.3214,88.0056 c 0.625,0 1.156,0.161 1.594,0.484 0.396,0.354 0.594,0.797 0.594,1.328 0,0.896 -0.459,1.734 -1.375,2.516 -0.938,0.781 -1.943,1.172 -3.016,1.172 -0.625,0 -1.151,-0.162 -1.578,-0.485 -0.406,-0.354 -0.609,-0.797 -0.609,-1.328 0,-0.896 0.468,-1.734 1.406,-2.516 0.916,-0.781 1.911,-1.171 2.984,-1.171"
     id="path152"
     inkscape:connector-curvature="0" />
  <path
     class="Note"
     d="m 414.3214,48.0027 c 0.625,0 1.156,0.1614 1.594,0.4843 0.396,0.3542 0.594,0.7969 0.594,1.3282 0,0.8958 -0.459,1.7343 -1.375,2.5156 -0.938,0.7812 -1.943,1.1719 -3.016,1.1719 -0.625,0 -1.151,-0.1615 -1.578,-0.4844 -0.406,-0.3542 -0.609,-0.7969 -0.609,-1.3281 0,-0.8959 0.468,-1.7344 1.406,-2.5157 0.916,-0.7812 1.911,-1.1718 2.984,-1.1718"
     id="path154"
     inkscape:connector-curvature="0" />
  <path
     class="Note"
     d="m 392.4944,45.5025 c 0.625,0 1.156,0.1615 1.594,0.4844 0.395,0.3542 0.593,0.7969 0.593,1.3281 0,0.8958 -0.458,1.7344 -1.375,2.5156 -0.937,0.7813 -1.942,1.1719 -3.015,1.1719 -0.625,0 -1.151,-0.1614 -1.578,-0.4844 -0.407,-0.3541 -0.61,-0.7968 -0.61,-1.3281 0,-0.8958 0.469,-1.7344 1.406,-2.5156 0.917,-0.7813 1.912,-1.1719 2.985,-1.1719"
     id="path156"
     inkscape:connector-curvature="0" />
  <path
     class="Note"
     d="m 377.4674,48.0027 c 0.625,0 1.156,0.1614 1.594,0.4843 0.395,0.3542 0.593,0.7969 0.593,1.3282 0,0.8958 -0.458,1.7343 -1.375,2.5156 -0.937,0.7812 -1.942,1.1719 -3.015,1.1719 -0.625,0 -1.151,-0.1615 -1.578,-0.4844 -0.407,-0.3542 -0.61,-0.7969 -0.61,-1.3281 0,-0.8959 0.469,-1.7344 1.406,-2.5157 0.917,-0.7812 1.912,-1.1718 2.985,-1.1718"
     id="path158"
     inkscape:connector-curvature="0" />
  <path
     class="Note"
     d="m 362.4404,45.5025 c 0.625,0 1.156,0.1615 1.594,0.4844 0.395,0.3542 0.593,0.7969 0.593,1.3281 0,0.8958 -0.458,1.7344 -1.375,2.5156 -0.937,0.7813 -1.942,1.1719 -3.015,1.1719 -0.625,0 -1.151,-0.1614 -1.578,-0.4844 -0.407,-0.3541 -0.61,-0.7968 -0.61,-1.3281 0,-0.8958 0.469,-1.7344 1.406,-2.5156 0.917,-0.7813 1.912,-1.1719 2.985,-1.1719"
     id="path160"
     inkscape:connector-curvature="0" />
  <path
     class="Note"
     d="m 347.4134,48.0027 c 0.625,0 1.156,0.1614 1.594,0.4843 0.395,0.3542 0.593,0.7969 0.593,1.3282 0,0.8958 -0.458,1.7343 -1.375,2.5156 -0.937,0.7812 -1.942,1.1719 -3.015,1.1719 -0.625,0 -1.151,-0.1615 -1.578,-0.4844 -0.407,-0.3542 -0.61,-0.7969 -0.61,-1.3281 0,-0.8959 0.469,-1.7344 1.406,-2.5157 0.917,-0.7812 1.912,-1.1718 2.985,-1.1718"
     id="path162"
     inkscape:connector-curvature="0" />
  <path
     class="Note"
     d="m 317.3594,88.0056 c 0.625,0 1.156,0.161 1.594,0.484 0.395,0.354 0.593,0.797 0.593,1.328 0,0.896 -0.458,1.734 -1.375,2.516 -0.937,0.781 -1.942,1.172 -3.015,1.172 -0.625,0 -1.151,-0.162 -1.578,-0.485 -0.407,-0.354 -0.61,-0.797 -0.61,-1.328 0,-0.896 0.469,-1.734 1.407,-2.516 0.916,-0.781 1.911,-1.171 2.984,-1.171"
     id="path164"
     inkscape:connector-curvature="0" />
  <path
     class="Note"
     d="m 317.3594,48.0027 c 0.625,0 1.156,0.1614 1.594,0.4843 0.395,0.3542 0.593,0.7969 0.593,1.3282 0,0.8958 -0.458,1.7343 -1.375,2.5156 -0.937,0.7812 -1.942,1.1719 -3.015,1.1719 -0.625,0 -1.151,-0.1615 -1.578,-0.4844 -0.407,-0.3542 -0.61,-0.7969 -0.61,-1.3281 0,-0.8959 0.469,-1.7344 1.407,-2.5157 0.916,-0.7812 1.911,-1.1718 2.984,-1.1718"
     id="path166"
     inkscape:connector-curvature="0" />
  <path
     class="Note"
     d="m 295.5314,45.5025 c 0.625,0 1.157,0.1615 1.594,0.4844 0.396,0.3542 0.594,0.7969 0.594,1.3281 0,0.8958 -0.458,1.7344 -1.375,2.5156 -0.938,0.7813 -1.943,1.1719 -3.016,1.1719 -0.625,0 -1.151,-0.1614 -1.578,-0.4844 -0.406,-0.3541 -0.609,-0.7968 -0.609,-1.3281 0,-0.8958 0.469,-1.7344 1.406,-2.5156 0.917,-0.7813 1.912,-1.1719 2.984,-1.1719"
     id="path168"
     inkscape:connector-curvature="0" />
  <path
     class="Note"
     d="m 280.5044,48.0027 c 0.625,0 1.157,0.1614 1.594,0.4843 0.396,0.3542 0.594,0.7969 0.594,1.3282 0,0.8958 -0.458,1.7343 -1.375,2.5156 -0.938,0.7812 -1.943,1.1719 -3.016,1.1719 -0.625,0 -1.151,-0.1615 -1.578,-0.4844 -0.406,-0.3542 -0.609,-0.7969 -0.609,-1.3281 0,-0.8959 0.469,-1.7344 1.406,-2.5157 0.917,-0.7812 1.912,-1.1718 2.984,-1.1718"
     id="path170"
     inkscape:connector-curvature="0" />
  <path
     class="Note"
     d="m 265.4784,45.5025 c 0.625,0 1.156,0.1615 1.593,0.4844 0.396,0.3542 0.594,0.7969 0.594,1.3281 0,0.8958 -0.458,1.7344 -1.375,2.5156 -0.937,0.7813 -1.943,1.1719 -3.016,1.1719 -0.625,0 -1.151,-0.1614 -1.578,-0.4844 -0.406,-0.3541 -0.609,-0.7968 -0.609,-1.3281 0,-0.8958 0.469,-1.7344 1.406,-2.5156 0.917,-0.7813 1.912,-1.1719 2.985,-1.1719"
     id="path172"
     inkscape:connector-curvature="0" />
  <path
     class="Note"
     d="m 250.4514,48.0027 c 0.625,0 1.156,0.1614 1.593,0.4843 0.396,0.3542 0.594,0.7969 0.594,1.3282 0,0.8958 -0.458,1.7343 -1.375,2.5156 -0.937,0.7812 -1.943,1.1719 -3.016,1.1719 -0.625,0 -1.151,-0.1615 -1.578,-0.4844 -0.406,-0.3542 -0.609,-0.7969 -0.609,-1.3281 0,-0.8959 0.469,-1.7344 1.406,-2.5157 0.917,-0.7812 1.912,-1.1718 2.985,-1.1718"
     id="path174"
     inkscape:connector-curvature="0" />
  <path
     class="Note"
     d="m 220.3974,88.0056 c 0.625,0 1.156,0.161 1.593,0.484 0.396,0.354 0.594,0.797 0.594,1.328 0,0.896 -0.458,1.734 -1.375,2.516 -0.937,0.781 -1.943,1.172 -3.016,1.172 -0.625,0 -1.151,-0.162 -1.578,-0.485 -0.406,-0.354 -0.609,-0.797 -0.609,-1.328 0,-0.896 0.469,-1.734 1.406,-2.516 0.917,-0.781 1.912,-1.171 2.985,-1.171"
     id="path176"
     inkscape:connector-curvature="0" />
  <path
     class="Note"
     d="m 220.3974,48.0027 c 0.625,0 1.156,0.1614 1.593,0.4843 0.396,0.3542 0.594,0.7969 0.594,1.3282 0,0.8958 -0.458,1.7343 -1.375,2.5156 -0.937,0.7812 -1.943,1.1719 -3.016,1.1719 -0.625,0 -1.151,-0.1615 -1.578,-0.4844 -0.406,-0.3542 -0.609,-0.7969 -0.609,-1.3281 0,-0.8959 0.469,-1.7344 1.406,-2.5157 0.917,-0.7812 1.912,-1.1718 2.985,-1.1718"
     id="path178"
     inkscape:connector-curvature="0" />
  <path
     class="Note"
     d="m 198.7034,45.5025 c 0.625,0 1.156,0.1615 1.593,0.4844 0.396,0.3542 0.594,0.7969 0.594,1.3281 0,0.8958 -0.458,1.7344 -1.375,2.5156 -0.937,0.7813 -1.943,1.1719 -3.016,1.1719 -0.625,0 -1.151,-0.1614 -1.578,-0.4844 -0.406,-0.3541 -0.609,-0.7968 -0.609,-1.3281 0,-0.8958 0.469,-1.7344 1.406,-2.5156 0.917,-0.7813 1.912,-1.1719 2.985,-1.1719"
     id="path180"
     inkscape:connector-curvature="0" />
  <path
     class="Note"
     d="m 183.8094,48.0027 c 0.625,0 1.156,0.1614 1.594,0.4843 0.395,0.3542 0.593,0.7969 0.593,1.3282 0,0.8958 -0.458,1.7343 -1.375,2.5156 -0.937,0.7812 -1.942,1.1719 -3.015,1.1719 -0.625,0 -1.151,-0.1615 -1.578,-0.4844 -0.407,-0.3542 -0.61,-0.7969 -0.61,-1.3281 0,-0.8959 0.469,-1.7344 1.406,-2.5157 0.917,-0.7812 1.912,-1.1718 2.985,-1.1718"
     id="path182"
     inkscape:connector-curvature="0" />
  <path
     class="Note"
     d="m 168.9154,45.5025 c 0.625,0 1.156,0.1615 1.594,0.4844 0.396,0.3542 0.594,0.7969 0.594,1.3281 0,0.8958 -0.459,1.7344 -1.375,2.5156 -0.938,0.7813 -1.943,1.1719 -3.016,1.1719 -0.625,0 -1.151,-0.1614 -1.578,-0.4844 -0.406,-0.3541 -0.609,-0.7968 -0.609,-1.3281 0,-0.8958 0.468,-1.7344 1.406,-2.5156 0.917,-0.7813 1.911,-1.1719 2.984,-1.1719"
     id="path184"
     inkscape:connector-curvature="0" />
  <path
     class="Note"
     d="m 154.0224,48.0027 c 0.625,0 1.156,0.1614 1.593,0.4843 0.396,0.3542 0.594,0.7969 0.594,1.3282 0,0.8958 -0.458,1.7343 -1.375,2.5156 -0.937,0.7812 -1.943,1.1719 -3.016,1.1719 -0.625,0 -1.151,-0.1615 -1.578,-0.4844 -0.406,-0.3542 -0.609,-0.7969 -0.609,-1.3281 0,-0.8959 0.469,-1.7344 1.406,-2.5157 0.917,-0.7812 1.912,-1.1718 2.985,-1.1718"
     id="path186"
     inkscape:connector-curvature="0" />
  <path
     class="Note"
     d="m 124.2344,88.0056 c 0.625,0 1.157,0.161 1.594,0.484 0.396,0.354 0.594,0.797 0.594,1.328 0,0.896 -0.459,1.734 -1.375,2.516 -0.938,0.781 -1.943,1.172 -3.016,1.172 -0.625,0 -1.151,-0.162 -1.578,-0.485 -0.406,-0.354 -0.609,-0.797 -0.609,-1.328 0,-0.896 0.468,-1.734 1.406,-2.516 0.917,-0.781 1.911,-1.171 2.984,-1.171"
     id="path188"
     inkscape:connector-curvature="0" />
  <path
     class="Note"
     d="m 124.2344,48.0027 c 0.625,0 1.157,0.1614 1.594,0.4843 0.396,0.3542 0.594,0.7969 0.594,1.3282 0,0.8958 -0.459,1.7343 -1.375,2.5156 -0.938,0.7812 -1.943,1.1719 -3.016,1.1719 -0.625,0 -1.151,-0.1615 -1.578,-0.4844 -0.406,-0.3542 -0.609,-0.7969 -0.609,-1.3281 0,-0.8959 0.468,-1.7344 1.406,-2.5157 0.917,-0.7812 1.911,-1.1718 2.984,-1.1718"
     id="path190"
     inkscape:connector-curvature="0" />
  <path
     class="Clef"
     d="m 82.7274,83.9736 c -0.193,-0.198 -0.289,-0.44 -0.289,-0.727 0,-0.286 0.096,-0.526 0.289,-0.718 0.192,-0.193 0.432,-0.289 0.718,-0.289 0.287,0 0.529,0.096 0.727,0.289 0.198,0.192 0.297,0.432 0.297,0.718 0,0.287 -0.099,0.529 -0.297,0.727 -0.198,0.198 -0.44,0.297 -0.727,0.297 -0.286,0 -0.526,-0.099 -0.718,-0.297 m 0,5.008 c -0.193,-0.193 -0.289,-0.432 -0.289,-0.719 0,-0.286 0.096,-0.529 0.289,-0.726 0.192,-0.198 0.432,-0.297 0.718,-0.297 0.287,0 0.529,0.099 0.727,0.297 0.198,0.197 0.297,0.44 0.297,0.726 0,0.287 -0.099,0.526 -0.297,0.719 -0.198,0.193 -0.44,0.289 -0.727,0.289 -0.286,0 -0.526,-0.096 -0.718,-0.289 m -6.774,-8.477 c 1.729,0 3.146,0.433 4.25,1.297 1.073,0.917 1.61,2.156 1.61,3.719 0,1.052 -0.209,2.016 -0.625,2.891 -0.396,0.916 -0.912,1.723 -1.547,2.421 -0.656,0.719 -1.443,1.396 -2.36,2.032 -0.906,0.625 -1.833,1.187 -2.781,1.687 -1.927,0.969 -2.995,1.453 -3.203,1.453 -0.167,0 -0.25,-0.083 -0.25,-0.25 0,-0.062 0.0261,-0.12 0.078,-0.172 0.667,-0.395 1.479,-0.895 2.438,-1.5 0.625,-0.406 1.354,-0.968 2.187,-1.687 0.813,-0.677 1.438,-1.313 1.875,-1.906 0.458,-0.594 0.875,-1.323 1.25,-2.188 0.323,-0.875 0.485,-1.739 0.485,-2.594 0,-1.26 -0.313,-2.359 -0.938,-3.296 -0.625,-0.938 -1.448,-1.407 -2.469,-1.407 -0.729,0 -1.354,0.235 -1.875,0.703 -0.562,0.48 -0.968,1.084 -1.218,1.813 0.25,-0.104 0.479,-0.156 0.687,-0.156 0.542,0 1.01,0.198 1.406,0.593 0.386,0.417 0.578,0.891 0.578,1.422 0,0.563 -0.187,1.068 -0.562,1.516 -0.406,0.396 -0.88,0.594 -1.422,0.594 -0.583,0 -1.109,-0.198 -1.578,-0.594 -0.448,-0.448 -0.672,-0.953 -0.672,-1.516 0,-1.343 0.458,-2.489 1.375,-3.437 0.896,-0.959 1.99,-1.438 3.281,-1.438"
     id="path192"
     inkscape:connector-curvature="0" />
  <path
     class="Clef"
     d="m 78.6414,38.1272 c 0,0 0.041,0 0.125,0 0.052,-0.0104 0.094,-0.0156 0.125,-0.0156 1.458,0 2.656,0.5156 3.594,1.5468 0.937,1.0105 1.406,2.1928 1.406,3.5469 0,1.6875 -0.693,3.0573 -2.078,4.1094 -0.365,0.2917 -0.844,0.526 -1.438,0.7031 0.073,0.8438 0.11,1.5261 0.11,2.0469 0,0.1042 -0.016,0.4844 -0.047,1.1406 -0.052,1.2084 -0.469,2.2552 -1.25,3.1406 -0.75,0.875 -1.688,1.3125 -2.813,1.3125 -1.052,0 -1.948,-0.3697 -2.687,-1.1093 -0.75,-0.7604 -1.125,-1.6719 -1.125,-2.7344 0,-0.5625 0.218,-1.0417 0.656,-1.4375 0.437,-0.3854 0.948,-0.5781 1.531,-0.5781 0.521,0 0.958,0.2031 1.313,0.6093 0.364,0.375 0.547,0.8438 0.547,1.4063 0,0.5 -0.183,0.9323 -0.547,1.2969 -0.365,0.3646 -0.802,0.5468 -1.313,0.5468 -0.208,0 -0.406,-0.0364 -0.594,-0.1093 0.573,0.8437 1.334,1.2656 2.282,1.2656 0.895,0 1.63,-0.3646 2.203,-1.0938 0.604,-0.75 0.932,-1.6302 0.984,-2.6406 0.021,-0.625 0.031,-0.9791 0.031,-1.0625 0,-0.7291 -0.026,-1.3281 -0.078,-1.7969 -0.646,0.1042 -1.224,0.1563 -1.734,0.1563 -1.813,0 -3.354,-0.7188 -4.625,-2.1563 -1.25,-1.4479 -1.875,-3.1666 -1.875,-5.1562 0,-0.4167 0.036,-0.8385 0.109,-1.2656 0.084,-0.3542 0.183,-0.7396 0.297,-1.1563 0.063,-0.2396 0.24,-0.6198 0.531,-1.1406 0.105,-0.1563 0.222,-0.3516 0.352,-0.5859 0.13,-0.2344 0.221,-0.3881 0.273,-0.461 0.125,-0.2604 0.375,-0.6146 0.75,-1.0625 0.105,-0.1146 0.214,-0.2422 0.329,-0.3828 0.114,-0.1406 0.21,-0.2578 0.289,-0.3516 0.078,-0.0937 0.135,-0.1666 0.171,-0.2187 0.037,-0.0521 0.331,-0.3958 0.883,-1.0313 0.125,-0.1354 0.25,-0.276 0.375,-0.4218 0.125,-0.1459 0.227,-0.263 0.305,-0.3516 0.078,-0.0885 0.138,-0.1484 0.18,-0.1797 -0.469,-1.5521 -0.766,-2.7916 -0.891,-3.7187 -0.083,-0.7396 -0.125,-1.7552 -0.125,-3.0469 0,-1.1354 0.26,-2.1979 0.781,-3.1875 0.5,-1.0208 1.209,-1.8594 2.125,-2.5156 0.063,-0.0417 0.125,-0.0625 0.188,-0.0625 0.094,0 0.161,0.0208 0.203,0.0625 0.698,0.8437 1.302,1.9427 1.812,3.2968 0.521,1.3542 0.782,2.5886 0.782,3.7032 0,1.25 -0.297,2.4218 -0.891,3.5156 -0.677,1.1562 -1.552,2.3542 -2.625,3.5937 0.271,0.8542 0.635,2.198 1.094,4.0313 m 1.656,9.0937 c 0.677,-0.25 1.208,-0.6718 1.594,-1.2656 0.416,-0.5729 0.625,-1.2187 0.625,-1.9375 0,-0.9271 -0.313,-1.75 -0.938,-2.4687 -0.646,-0.7396 -1.463,-1.1563 -2.453,-1.25 0.563,2.75 0.953,5.0573 1.172,6.9218 m -7.547,-4.5156 c 0,1.2917 0.521,2.4271 1.563,3.4063 1.062,0.9479 2.26,1.4218 3.593,1.4218 0.542,0 1.073,-0.0416 1.594,-0.125 -0.208,-1.9791 -0.62,-4.3489 -1.234,-7.1093 -0.74,0.0833 -1.328,0.3437 -1.766,0.7812 -0.437,0.4584 -0.656,0.974 -0.656,1.5469 0,0.9896 0.531,1.7917 1.594,2.4062 0.083,0.0938 0.125,0.1928 0.125,0.2969 0,0.1042 -0.042,0.1979 -0.125,0.2813 -0.084,0.0937 -0.183,0.1406 -0.297,0.1406 -0.011,0 -0.068,-0.0104 -0.172,-0.0313 -0.75,-0.4062 -1.323,-0.927 -1.719,-1.5625 -0.385,-0.6875 -0.578,-1.375 -0.578,-2.0625 0,-0.8958 0.281,-1.7083 0.844,-2.4375 0.583,-0.7291 1.344,-1.1979 2.281,-1.4062 -0.365,-1.4583 -0.661,-2.599 -0.891,-3.4219 -0.208,0.2396 -0.458,0.5235 -0.75,0.8516 -0.291,0.3281 -0.463,0.5286 -0.515,0.6015 -0.469,0.6042 -0.828,1.0782 -1.078,1.4219 -0.448,0.6146 -0.776,1.1406 -0.985,1.5781 -0.218,0.5 -0.411,1.0417 -0.578,1.625 -0.167,0.5625 -0.25,1.1615 -0.25,1.7969 m 6.516,-19.8594 c -0.979,0.4792 -1.745,1.1667 -2.297,2.0625 -0.573,0.9271 -0.859,1.9219 -0.859,2.9844 0,0.9375 0.234,2.2031 0.703,3.7969 0.937,-1.1354 1.64,-2.1823 2.109,-3.1406 0.49,-1.0209 0.734,-2.0834 0.734,-3.1875 0,-0.8334 -0.13,-1.6719 -0.39,-2.5157"
     id="path194"
     inkscape:connector-curvature="0" />
  <path
     class="KeySig"
     d="m 87.7144,94.9276 v 1.547 c 0,0.552 0.026,0.989 0.078,1.312 0.427,-0.364 0.734,-0.635 0.922,-0.812 0.208,-0.209 0.416,-0.498 0.625,-0.868 0.208,-0.369 0.312,-0.737 0.312,-1.101 0,-0.365 -0.078,-0.677 -0.234,-0.938 -0.157,-0.26 -0.365,-0.39 -0.625,-0.39 -0.313,0 -0.573,0.12 -0.782,0.359 -0.197,0.261 -0.296,0.557 -0.296,0.891 m -0.829,3.578 -0.25,-11.891 c 0.188,-0.104 0.373,-0.156 0.555,-0.156 0.182,0 0.362,0.052 0.539,0.156 l -0.156,6.891 c 0.531,-0.458 1.146,-0.688 1.844,-0.688 0.5,0 0.919,0.209 1.258,0.625 0.338,0.417 0.507,0.896 0.507,1.438 0,0.333 -0.109,0.693 -0.328,1.078 -0.208,0.344 -0.427,0.615 -0.656,0.813 -0.135,0.104 -0.469,0.364 -1,0.781 -0.156,0.114 -0.341,0.25 -0.555,0.406 -0.213,0.156 -0.346,0.255 -0.398,0.297 -0.094,0.052 -0.182,0.156 -0.266,0.312 -0.083,0.136 -0.187,0.245 -0.312,0.329 -0.084,0.083 -0.19,0.125 -0.321,0.125 -0.13,0 -0.237,-0.047 -0.32,-0.141 -0.094,-0.094 -0.141,-0.219 -0.141,-0.375"
     id="path196"
     inkscape:connector-curvature="0" />
  <path
     class="KeySig"
     d="m 87.7144,37.4238 v 1.5468 c 0,0.5521 0.026,0.9896 0.078,1.3125 0.427,-0.3645 0.734,-0.6354 0.922,-0.8125 0.208,-0.2083 0.416,-0.4974 0.625,-0.8672 0.208,-0.3697 0.312,-0.7369 0.312,-1.1015 0,-0.3646 -0.078,-0.6771 -0.234,-0.9375 -0.157,-0.2604 -0.365,-0.3906 -0.625,-0.3906 -0.313,0 -0.573,0.1198 -0.782,0.3593 -0.197,0.2605 -0.296,0.5573 -0.296,0.8907 m -0.829,3.5781 -0.25,-11.8906 c 0.188,-0.1042 0.373,-0.1563 0.555,-0.1563 0.182,0 0.362,0.0521 0.539,0.1563 l -0.156,6.8906 c 0.531,-0.4583 1.146,-0.6875 1.844,-0.6875 0.5,0 0.919,0.2083 1.258,0.625 0.338,0.4167 0.507,0.8958 0.507,1.4375 0,0.3333 -0.109,0.6927 -0.328,1.0781 -0.208,0.3438 -0.427,0.6146 -0.656,0.8125 -0.135,0.1042 -0.469,0.3646 -1,0.7813 -0.156,0.1145 -0.341,0.25 -0.555,0.4062 -0.213,0.1563 -0.346,0.2552 -0.398,0.2969 -0.094,0.0521 -0.182,0.1562 -0.266,0.3125 -0.083,0.1354 -0.187,0.2448 -0.312,0.3281 -0.084,0.0833 -0.19,0.125 -0.321,0.125 -0.13,0 -0.237,-0.0469 -0.32,-0.1406 -0.094,-0.0938 -0.141,-0.2188 -0.141,-0.375"
     id="path198"
     inkscape:connector-curvature="0" />
  <path
     class="TimeSig"
     d="m 99.7304,85.4576 c 0,0.136 0.073,0.261 0.218,0.375 0.209,0.157 0.37,0.276 0.485,0.36 0.156,0.083 0.323,0.291 0.5,0.625 0.135,0.312 0.203,0.692 0.203,1.14 0,0.907 -0.328,1.599 -0.984,2.079 -0.677,0.479 -1.537,0.718 -2.579,0.718 -0.854,0 -1.572,-0.208 -2.156,-0.625 -0.625,-0.385 -0.937,-0.932 -0.937,-1.64 0,-0.334 0.13,-0.646 0.39,-0.938 0.271,-0.25 0.584,-0.375 0.938,-0.375 0.364,0 0.667,0.13 0.906,0.391 0.261,0.25 0.391,0.557 0.391,0.922 0,0.166 -0.13,0.349 -0.391,0.547 -0.281,0.187 -0.422,0.364 -0.422,0.531 0,0.25 0.125,0.432 0.375,0.547 0.261,0.114 0.563,0.172 0.906,0.172 0.448,0 0.771,-0.219 0.969,-0.657 0.188,-0.489 0.281,-1.047 0.281,-1.672 v -0.328 c 0,-0.375 -0.015,-0.708 -0.046,-1 -0.021,-0.218 -0.11,-0.416 -0.266,-0.593 -0.146,-0.188 -0.375,-0.282 -0.688,-0.282 h -1.609 c -0.177,0 -0.266,-0.099 -0.266,-0.297 0,-0.166 0.089,-0.265 0.266,-0.296 h 1.609 c 0.365,0 0.625,-0.115 0.782,-0.344 0.125,-0.188 0.187,-0.516 0.187,-0.985 v -0.64 -0.156 c 0,-1.209 -0.442,-1.813 -1.328,-1.813 -0.781,0 -1.172,0.214 -1.172,0.641 0,0.145 0.125,0.302 0.375,0.468 0.24,0.167 0.36,0.323 0.36,0.469 0,0.323 -0.12,0.604 -0.36,0.844 -0.219,0.219 -0.489,0.328 -0.812,0.328 -0.313,0 -0.584,-0.109 -0.813,-0.328 -0.219,-0.25 -0.328,-0.531 -0.328,-0.844 0,-0.614 0.276,-1.114 0.828,-1.5 0.573,-0.364 1.224,-0.547 1.953,-0.547 0.969,0 1.776,0.188 2.422,0.563 0.636,0.364 0.953,0.937 0.953,1.719 0,0.562 -0.057,0.984 -0.172,1.265 -0.125,0.302 -0.255,0.485 -0.39,0.547 -0.156,0.073 -0.287,0.151 -0.391,0.234 -0.125,0.105 -0.187,0.23 -0.187,0.375"
     id="path200"
     inkscape:connector-curvature="0" />
  <path
     class="TimeSig"
     d="m 98.2774,91.0056 c 0.385,0 0.716,-0.044 0.992,-0.133 0.276,-0.088 0.45,-0.133 0.523,-0.133 0.094,0 0.167,0.026 0.219,0.078 0.042,0.032 0.068,0.073 0.078,0.125 0,0.032 -0.016,0.073 -0.047,0.125 l -5.672,6.61 h 3.328 v -2.625 c 0,-0.167 0.047,-0.313 0.141,-0.438 0.156,-0.125 0.287,-0.203 0.391,-0.234 0.166,-0.073 0.375,-0.255 0.625,-0.547 0.208,-0.229 0.458,-0.635 0.75,-1.219 0.031,-0.083 0.088,-0.125 0.172,-0.125 0.156,0 0.244,0.094 0.265,0.282 v 4.906 h 1.438 c 0.177,0 0.281,0.094 0.312,0.281 0,0.198 -0.104,0.297 -0.312,0.297 h -1.438 v 0.156 c 0,0.521 0.13,0.964 0.391,1.328 0.302,0.365 0.656,0.547 1.062,0.547 0.157,0 0.235,0.078 0.235,0.235 0,0.156 -0.078,0.234 -0.235,0.234 -0.271,0 -0.713,-0.037 -1.328,-0.109 -0.562,-0.094 -1,-0.141 -1.312,-0.141 -0.323,0 -0.761,0.047 -1.313,0.141 -0.583,0.072 -1.015,0.109 -1.297,0.109 -0.156,0 -0.234,-0.078 -0.234,-0.234 0,-0.157 0.078,-0.235 0.234,-0.235 0.396,0 0.745,-0.182 1.047,-0.547 0.271,-0.364 0.406,-0.807 0.406,-1.328 v -0.156 h -3.328 c -0.229,0 -0.385,-0.052 -0.468,-0.156 -0.115,-0.073 -0.172,-0.177 -0.172,-0.313 0,-0.042 0.099,-0.177 0.297,-0.406 0.229,-0.261 0.463,-0.578 0.703,-0.953 0.291,-0.448 0.567,-0.906 0.828,-1.375 0.281,-0.531 0.51,-1.146 0.687,-1.844 0.188,-0.698 0.282,-1.411 0.282,-2.141 0,-0.208 0.093,-0.312 0.281,-0.312 0.041,0 0.125,0.021 0.25,0.062 0.041,0.011 0.125,0.029 0.25,0.055 0.125,0.026 0.224,0.05 0.297,0.07 0.239,0.042 0.463,0.063 0.672,0.063"
     id="path202"
     inkscape:connector-curvature="0" />
  <path
     class="TimeSig"
     d="m 99.7304,32.9547 c 0,0.1354 0.073,0.2604 0.218,0.375 0.209,0.1562 0.37,0.276 0.485,0.3594 0.156,0.0833 0.323,0.2916 0.5,0.625 0.135,0.3125 0.203,0.6927 0.203,1.1406 0,0.9062 -0.328,1.599 -0.984,2.0781 -0.677,0.4792 -1.537,0.7188 -2.579,0.7188 -0.854,0 -1.572,-0.2084 -2.156,-0.625 -0.625,-0.3854 -0.937,-0.9323 -0.937,-1.6407 0,-0.3333 0.13,-0.6458 0.39,-0.9375 0.271,-0.25 0.584,-0.375 0.938,-0.375 0.364,0 0.667,0.1303 0.906,0.3907 0.261,0.25 0.391,0.5573 0.391,0.9218 0,0.1667 -0.13,0.349 -0.391,0.5469 -0.281,0.1875 -0.422,0.3646 -0.422,0.5313 0,0.25 0.125,0.4323 0.375,0.5468 0.261,0.1146 0.563,0.1719 0.906,0.1719 0.448,0 0.771,-0.2187 0.969,-0.6562 0.188,-0.4896 0.281,-1.0469 0.281,-1.6719 v -0.3281 c 0,-0.375 -0.015,-0.7084 -0.046,-1 -0.021,-0.2188 -0.11,-0.4167 -0.266,-0.5938 -0.146,-0.1875 -0.375,-0.2812 -0.688,-0.2812 h -1.609 c -0.177,0 -0.266,-0.099 -0.266,-0.2969 0,-0.1667 0.089,-0.2656 0.266,-0.2969 h 1.609 c 0.365,0 0.625,-0.1146 0.782,-0.3437 0.125,-0.1875 0.187,-0.5157 0.187,-0.9844 v -0.6406 -0.1563 c 0,-1.2083 -0.442,-1.8125 -1.328,-1.8125 -0.781,0 -1.172,0.2136 -1.172,0.6406 0,0.1459 0.125,0.3021 0.375,0.4688 0.24,0.1667 0.36,0.3229 0.36,0.4687 0,0.323 -0.12,0.6042 -0.36,0.8438 -0.219,0.2187 -0.489,0.3281 -0.812,0.3281 -0.313,0 -0.584,-0.1094 -0.813,-0.3281 -0.219,-0.25 -0.328,-0.5313 -0.328,-0.8438 0,-0.6145 0.276,-1.1145 0.828,-1.5 0.573,-0.3645 1.224,-0.5468 1.953,-0.5468 0.969,0 1.776,0.1875 2.422,0.5625 0.636,0.3646 0.953,0.9375 0.953,1.7187 0,0.5625 -0.057,0.9844 -0.172,1.2656 -0.125,0.3021 -0.255,0.4844 -0.39,0.5469 -0.156,0.0729 -0.287,0.1511 -0.391,0.2344 -0.125,0.1042 -0.187,0.2292 -0.187,0.375"
     id="path204"
     inkscape:connector-curvature="0" />
  <path
     class="TimeSig"
     d="m 98.2774,38.5022 c 0.385,0 0.716,-0.0443 0.992,-0.1328 0.276,-0.0886 0.45,-0.1328 0.523,-0.1328 0.094,0 0.167,0.026 0.219,0.0781 0.042,0.0312 0.068,0.0729 0.078,0.125 0,0.0312 -0.016,0.0729 -0.047,0.125 l -5.672,6.6094 h 3.328 v -2.625 c 0,-0.1667 0.047,-0.3125 0.141,-0.4375 0.156,-0.125 0.287,-0.2032 0.391,-0.2344 0.166,-0.0729 0.375,-0.2552 0.625,-0.5469 0.208,-0.2291 0.458,-0.6354 0.75,-1.2187 0.031,-0.0834 0.088,-0.125 0.172,-0.125 0.156,0 0.244,0.0937 0.265,0.2812 v 4.9063 h 1.438 c 0.177,0 0.281,0.0937 0.312,0.2812 0,0.1979 -0.104,0.2969 -0.312,0.2969 h -1.438 v 0.1562 c 0,0.5209 0.13,0.9636 0.391,1.3282 0.302,0.3646 0.656,0.5468 1.062,0.5468 0.157,0 0.235,0.0782 0.235,0.2344 0,0.1563 -0.078,0.2344 -0.235,0.2344 -0.271,0 -0.713,-0.0365 -1.328,-0.1094 -0.562,-0.0937 -1,-0.1406 -1.312,-0.1406 -0.323,0 -0.761,0.0469 -1.313,0.1406 -0.583,0.0729 -1.015,0.1094 -1.297,0.1094 -0.156,0 -0.234,-0.0781 -0.234,-0.2344 0,-0.1562 0.078,-0.2344 0.234,-0.2344 0.396,0 0.745,-0.1822 1.047,-0.5468 0.271,-0.3646 0.406,-0.8073 0.406,-1.3282 v -0.1562 h -3.328 c -0.229,0 -0.385,-0.0521 -0.468,-0.1563 -0.115,-0.0729 -0.172,-0.177 -0.172,-0.3125 0,-0.0416 0.099,-0.177 0.297,-0.4062 0.229,-0.2604 0.463,-0.5781 0.703,-0.9531 0.291,-0.4479 0.567,-0.9063 0.828,-1.375 0.281,-0.5313 0.51,-1.1459 0.687,-1.8438 0.188,-0.6979 0.282,-1.4114 0.282,-2.1406 0,-0.2083 0.093,-0.3125 0.281,-0.3125 0.041,0 0.125,0.0208 0.25,0.0625 0.041,0.0104 0.125,0.0286 0.25,0.0547 0.125,0.026 0.224,0.0495 0.297,0.0703 0.239,0.0417 0.463,0.0625 0.672,0.0625"
     id="path206"
     inkscape:connector-curvature="0" />
  <path
     class="Rest"
     d="m 426.3644,34.1425 c 0.375,0 0.661,0.1042 0.859,0.3125 0.198,0.2396 0.302,0.4636 0.313,0.6719 0.031,0.1979 0.099,0.4167 0.203,0.6562 0.114,0.2084 0.26,0.3125 0.437,0.3125 0.146,0 0.365,-0.1614 0.657,-0.4843 0.26,-0.2813 0.447,-0.5365 0.562,-0.7657 0.063,-0.125 0.151,-0.1875 0.266,-0.1875 h 0.031 c 0.125,0.0105 0.213,0.073 0.266,0.1875 l -2.454,8.4063 c -0.135,0.1354 -0.32,0.2031 -0.554,0.2031 -0.235,0 -0.414,-0.0677 -0.539,-0.2031 l 2.343,-6.5313 c -0.833,0.3021 -1.536,0.4532 -2.109,0.4532 -0.469,0 -0.875,-0.1511 -1.219,-0.4532 -0.354,-0.2812 -0.531,-0.6562 -0.531,-1.125 0,-0.4062 0.146,-0.7448 0.438,-1.0156 0.281,-0.2917 0.625,-0.4375 1.031,-0.4375"
     id="path208"
     inkscape:connector-curvature="0" />
  <path
     class="Rest"
     d="m 372.9514,89.1926 c 0,-0.239 0.136,-0.5 0.406,-0.781 0.188,-0.208 0.474,-0.458 0.86,-0.75 0.281,-0.188 0.557,-0.479 0.828,-0.875 0.26,-0.375 0.391,-0.787 0.391,-1.235 0,-0.52 -0.167,-0.979 -0.5,-1.375 l -0.704,-0.843 c -0.052,-0.052 -0.078,-0.117 -0.078,-0.196 0,-0.078 0.037,-0.148 0.11,-0.211 0.093,-0.072 0.172,-0.109 0.234,-0.109 0.094,0 0.167,0.042 0.219,0.125 l 3.031,3.594 c 0.125,0.167 0.188,0.333 0.188,0.5 0,0.239 -0.131,0.5 -0.391,0.781 -0.167,0.188 -0.443,0.438 -0.828,0.75 -0.302,0.177 -0.589,0.469 -0.86,0.875 -0.26,0.375 -0.39,0.787 -0.39,1.234 0,0.553 0.156,1.016 0.469,1.391 l 1.671,1.969 c 0.042,0.042 0.073,0.109 0.094,0.203 0,0.083 -0.031,0.161 -0.094,0.234 -0.093,0.063 -0.171,0.094 -0.234,0.094 -0.021,0 -0.125,-0.073 -0.312,-0.219 -0.198,-0.156 -0.459,-0.307 -0.782,-0.453 -0.364,-0.135 -0.724,-0.203 -1.078,-0.203 -0.323,0 -0.588,0.089 -0.797,0.266 -0.177,0.187 -0.265,0.541 -0.265,1.062 0,0.792 0.187,1.417 0.562,1.875 0.042,0.052 0.047,0.115 0.016,0.188 -0.021,0.052 -0.068,0.078 -0.141,0.078 -0.083,0 -0.281,-0.235 -0.594,-0.703 -0.333,-0.49 -0.64,-1.058 -0.921,-1.703 -0.303,-0.677 -0.454,-1.235 -0.454,-1.672 0,-0.563 0.266,-0.844 0.797,-0.844 0.615,0 1.412,0.208 2.391,0.625 l -2.641,-3.172 c -0.135,-0.167 -0.203,-0.333 -0.203,-0.5"
     id="path210"
     inkscape:connector-curvature="0" />
  <path
     class="Rest"
     d="m 342.8974,89.1926 c 0,-0.239 0.136,-0.5 0.406,-0.781 0.188,-0.208 0.474,-0.458 0.86,-0.75 0.281,-0.188 0.557,-0.479 0.828,-0.875 0.26,-0.375 0.391,-0.787 0.391,-1.235 0,-0.52 -0.167,-0.979 -0.5,-1.375 l -0.704,-0.843 c -0.052,-0.052 -0.078,-0.117 -0.078,-0.196 0,-0.078 0.037,-0.148 0.11,-0.211 0.093,-0.072 0.172,-0.109 0.234,-0.109 0.094,0 0.167,0.042 0.219,0.125 l 3.031,3.594 c 0.125,0.167 0.188,0.333 0.188,0.5 0,0.239 -0.131,0.5 -0.391,0.781 -0.167,0.188 -0.443,0.438 -0.828,0.75 -0.302,0.177 -0.589,0.469 -0.86,0.875 -0.26,0.375 -0.39,0.787 -0.39,1.234 0,0.553 0.156,1.016 0.469,1.391 l 1.671,1.969 c 0.042,0.042 0.073,0.109 0.094,0.203 0,0.083 -0.031,0.161 -0.094,0.234 -0.093,0.063 -0.171,0.094 -0.234,0.094 -0.021,0 -0.125,-0.073 -0.312,-0.219 -0.198,-0.156 -0.459,-0.307 -0.782,-0.453 -0.364,-0.135 -0.724,-0.203 -1.078,-0.203 -0.323,0 -0.588,0.089 -0.797,0.266 -0.177,0.187 -0.265,0.541 -0.265,1.062 0,0.792 0.187,1.417 0.562,1.875 0.042,0.052 0.047,0.115 0.016,0.188 -0.021,0.052 -0.068,0.078 -0.141,0.078 -0.083,0 -0.281,-0.235 -0.594,-0.703 -0.333,-0.49 -0.64,-1.058 -0.921,-1.703 -0.302,-0.677 -0.454,-1.235 -0.454,-1.672 0,-0.563 0.266,-0.844 0.797,-0.844 0.615,0 1.412,0.208 2.391,0.625 l -2.641,-3.172 c -0.135,-0.167 -0.203,-0.333 -0.203,-0.5"
     id="path212"
     inkscape:connector-curvature="0" />
  <path
     class="Rest"
     d="m 329.4014,34.1425 c 0.375,0 0.662,0.1042 0.86,0.3125 0.198,0.2396 0.302,0.4636 0.312,0.6719 0.032,0.1979 0.099,0.4167 0.203,0.6562 0.115,0.2084 0.261,0.3125 0.438,0.3125 0.146,0 0.365,-0.1614 0.656,-0.4843 0.261,-0.2813 0.448,-0.5365 0.563,-0.7657 0.062,-0.125 0.151,-0.1875 0.265,-0.1875 h 0.032 c 0.125,0.0105 0.213,0.073 0.265,0.1875 l -2.453,8.4063 c -0.135,0.1354 -0.32,0.2031 -0.555,0.2031 -0.234,0 -0.414,-0.0677 -0.539,-0.2031 l 2.344,-6.5313 c -0.833,0.3021 -1.536,0.4532 -2.109,0.4532 -0.469,0 -0.875,-0.1511 -1.219,-0.4532 -0.354,-0.2812 -0.531,-0.6562 -0.531,-1.125 0,-0.4062 0.146,-0.7448 0.437,-1.0156 0.281,-0.2917 0.625,-0.4375 1.031,-0.4375"
     id="path214"
     inkscape:connector-curvature="0" />
  <path
     class="Rest"
     d="m 275.9894,89.1926 c 0,-0.239 0.135,-0.5 0.406,-0.781 0.188,-0.208 0.474,-0.458 0.859,-0.75 0.282,-0.188 0.558,-0.479 0.829,-0.875 0.26,-0.375 0.39,-0.787 0.39,-1.235 0,-0.52 -0.166,-0.979 -0.5,-1.375 l -0.703,-0.843 c -0.052,-0.052 -0.078,-0.117 -0.078,-0.196 0,-0.078 0.036,-0.148 0.109,-0.211 0.094,-0.072 0.172,-0.109 0.235,-0.109 0.093,0 0.166,0.042 0.218,0.125 l 3.032,3.594 c 0.125,0.167 0.187,0.333 0.187,0.5 0,0.239 -0.13,0.5 -0.39,0.781 -0.167,0.188 -0.443,0.438 -0.829,0.75 -0.302,0.177 -0.588,0.469 -0.859,0.875 -0.26,0.375 -0.391,0.787 -0.391,1.234 0,0.553 0.157,1.016 0.469,1.391 l 1.672,1.969 c 0.042,0.042 0.073,0.109 0.094,0.203 0,0.083 -0.031,0.161 -0.094,0.234 -0.094,0.063 -0.172,0.094 -0.234,0.094 -0.021,0 -0.125,-0.073 -0.313,-0.219 -0.198,-0.156 -0.458,-0.307 -0.781,-0.453 -0.365,-0.135 -0.724,-0.203 -1.078,-0.203 -0.323,0 -0.589,0.089 -0.797,0.266 -0.177,0.187 -0.266,0.541 -0.266,1.062 0,0.792 0.188,1.417 0.563,1.875 0.042,0.052 0.047,0.115 0.015,0.188 -0.02,0.052 -0.067,0.078 -0.14,0.078 -0.083,0 -0.281,-0.235 -0.594,-0.703 -0.333,-0.49 -0.641,-1.058 -0.922,-1.703 -0.302,-0.677 -0.453,-1.235 -0.453,-1.672 0,-0.563 0.266,-0.844 0.797,-0.844 0.615,0 1.411,0.208 2.391,0.625 l -2.641,-3.172 c -0.135,-0.167 -0.203,-0.333 -0.203,-0.5"
     id="path216"
     inkscape:connector-curvature="0" />
  <path
     class="Rest"
     d="m 245.9354,89.1926 c 0,-0.239 0.135,-0.5 0.406,-0.781 0.188,-0.208 0.474,-0.458 0.86,-0.75 0.281,-0.188 0.557,-0.479 0.828,-0.875 0.26,-0.375 0.39,-0.787 0.39,-1.235 0,-0.52 -0.166,-0.979 -0.5,-1.375 l -0.703,-0.843 c -0.052,-0.052 -0.078,-0.117 -0.078,-0.196 0,-0.078 0.036,-0.148 0.109,-0.211 0.094,-0.072 0.172,-0.109 0.235,-0.109 0.094,0 0.166,0.042 0.219,0.125 l 3.031,3.594 c 0.125,0.167 0.187,0.333 0.187,0.5 0,0.239 -0.13,0.5 -0.39,0.781 -0.167,0.188 -0.443,0.438 -0.828,0.75 -0.303,0.177 -0.589,0.469 -0.86,0.875 -0.26,0.375 -0.39,0.787 -0.39,1.234 0,0.553 0.156,1.016 0.468,1.391 l 1.672,1.969 c 0.042,0.042 0.073,0.109 0.094,0.203 0,0.083 -0.031,0.161 -0.094,0.234 -0.094,0.063 -0.172,0.094 -0.234,0.094 -0.021,0 -0.125,-0.073 -0.313,-0.219 -0.198,-0.156 -0.458,-0.307 -0.781,-0.453 -0.365,-0.135 -0.724,-0.203 -1.078,-0.203 -0.323,0 -0.589,0.089 -0.797,0.266 -0.177,0.187 -0.266,0.541 -0.266,1.062 0,0.792 0.188,1.417 0.563,1.875 0.042,0.052 0.047,0.115 0.016,0.188 -0.021,0.052 -0.068,0.078 -0.141,0.078 -0.083,0 -0.281,-0.235 -0.594,-0.703 -0.333,-0.49 -0.64,-1.058 -0.922,-1.703 -0.302,-0.677 -0.453,-1.235 -0.453,-1.672 0,-0.563 0.266,-0.844 0.797,-0.844 0.615,0 1.411,0.208 2.391,0.625 l -2.641,-3.172 c -0.135,-0.167 -0.203,-0.333 -0.203,-0.5"
     id="path218"
     inkscape:connector-curvature="0" />
  <path
     class="Rest"
     d="m 232.4394,34.1425 c 0.375,0 0.662,0.1042 0.86,0.3125 0.197,0.2396 0.302,0.4636 0.312,0.6719 0.031,0.1979 0.099,0.4167 0.203,0.6562 0.115,0.2084 0.261,0.3125 0.438,0.3125 0.146,0 0.364,-0.1614 0.656,-0.4843 0.26,-0.2813 0.448,-0.5365 0.562,-0.7657 0.063,-0.125 0.151,-0.1875 0.266,-0.1875 h 0.031 c 0.125,0.0105 0.214,0.073 0.266,0.1875 l -2.453,8.4063 c -0.136,0.1354 -0.321,0.2031 -0.555,0.2031 -0.234,0 -0.414,-0.0677 -0.539,-0.2031 l 2.344,-6.5313 c -0.834,0.3021 -1.537,0.4532 -2.11,0.4532 -0.468,0 -0.875,-0.1511 -1.218,-0.4532 -0.354,-0.2812 -0.532,-0.6562 -0.532,-1.125 0,-0.4062 0.146,-0.7448 0.438,-1.0156 0.281,-0.2917 0.625,-0.4375 1.031,-0.4375"
     id="path220"
     inkscape:connector-curvature="0" />
  <path
     class="Rest"
     d="m 179.2934,89.1926 c 0,-0.239 0.136,-0.5 0.406,-0.781 0.188,-0.208 0.474,-0.458 0.86,-0.75 0.281,-0.188 0.557,-0.479 0.828,-0.875 0.26,-0.375 0.391,-0.787 0.391,-1.235 0,-0.52 -0.167,-0.979 -0.5,-1.375 l -0.704,-0.843 c -0.052,-0.052 -0.078,-0.117 -0.078,-0.196 0,-0.078 0.037,-0.148 0.11,-0.211 0.093,-0.072 0.172,-0.109 0.234,-0.109 0.094,0 0.167,0.042 0.219,0.125 l 3.031,3.594 c 0.125,0.167 0.188,0.333 0.188,0.5 0,0.239 -0.131,0.5 -0.391,0.781 -0.167,0.188 -0.443,0.438 -0.828,0.75 -0.302,0.177 -0.589,0.469 -0.86,0.875 -0.26,0.375 -0.39,0.787 -0.39,1.234 0,0.553 0.156,1.016 0.469,1.391 l 1.671,1.969 c 0.042,0.042 0.073,0.109 0.094,0.203 0,0.083 -0.031,0.161 -0.094,0.234 -0.093,0.063 -0.171,0.094 -0.234,0.094 -0.021,0 -0.125,-0.073 -0.312,-0.219 -0.198,-0.156 -0.459,-0.307 -0.782,-0.453 -0.364,-0.135 -0.724,-0.203 -1.078,-0.203 -0.323,0 -0.588,0.089 -0.797,0.266 -0.177,0.187 -0.265,0.541 -0.265,1.062 0,0.792 0.187,1.417 0.562,1.875 0.042,0.052 0.047,0.115 0.016,0.188 -0.021,0.052 -0.068,0.078 -0.141,0.078 -0.083,0 -0.281,-0.235 -0.594,-0.703 -0.333,-0.49 -0.64,-1.058 -0.921,-1.703 -0.302,-0.677 -0.454,-1.235 -0.454,-1.672 0,-0.563 0.266,-0.844 0.797,-0.844 0.615,0 1.412,0.208 2.391,0.625 l -2.641,-3.172 c -0.135,-0.167 -0.203,-0.333 -0.203,-0.5"
     id="path222"
     inkscape:connector-curvature="0" />
  <path
     class="Rest"
     d="m 149.5064,89.1926 c 0,-0.239 0.135,-0.5 0.406,-0.781 0.188,-0.208 0.474,-0.458 0.86,-0.75 0.281,-0.188 0.557,-0.479 0.828,-0.875 0.26,-0.375 0.39,-0.787 0.39,-1.235 0,-0.52 -0.166,-0.979 -0.5,-1.375 l -0.703,-0.843 c -0.052,-0.052 -0.078,-0.117 -0.078,-0.196 0,-0.078 0.037,-0.148 0.109,-0.211 0.094,-0.072 0.172,-0.109 0.235,-0.109 0.094,0 0.167,0.042 0.219,0.125 l 3.031,3.594 c 0.125,0.167 0.187,0.333 0.187,0.5 0,0.239 -0.13,0.5 -0.39,0.781 -0.167,0.188 -0.443,0.438 -0.828,0.75 -0.302,0.177 -0.589,0.469 -0.86,0.875 -0.26,0.375 -0.39,0.787 -0.39,1.234 0,0.553 0.156,1.016 0.468,1.391 l 1.672,1.969 c 0.042,0.042 0.073,0.109 0.094,0.203 0,0.083 -0.031,0.161 -0.094,0.234 -0.094,0.063 -0.172,0.094 -0.234,0.094 -0.021,0 -0.125,-0.073 -0.313,-0.219 -0.198,-0.156 -0.458,-0.307 -0.781,-0.453 -0.364,-0.135 -0.724,-0.203 -1.078,-0.203 -0.323,0 -0.589,0.089 -0.797,0.266 -0.177,0.187 -0.266,0.541 -0.266,1.062 0,0.792 0.188,1.417 0.563,1.875 0.042,0.052 0.047,0.115 0.016,0.188 -0.021,0.052 -0.068,0.078 -0.141,0.078 -0.083,0 -0.281,-0.235 -0.594,-0.703 -0.333,-0.49 -0.64,-1.058 -0.922,-1.703 -0.302,-0.677 -0.453,-1.235 -0.453,-1.672 0,-0.563 0.266,-0.844 0.797,-0.844 0.615,0 1.412,0.208 2.391,0.625 l -2.641,-3.172 c -0.135,-0.167 -0.203,-0.333 -0.203,-0.5"
     id="path224"
     inkscape:connector-curvature="0" />
  <path
     class="Rest"
     d="m 136.1444,34.1425 c 0.375,0 0.661,0.1042 0.859,0.3125 0.198,0.2396 0.302,0.4636 0.312,0.6719 0.032,0.1979 0.099,0.4167 0.204,0.6562 0.114,0.2084 0.26,0.3125 0.437,0.3125 0.146,0 0.365,-0.1614 0.656,-0.4843 0.261,-0.2813 0.448,-0.5365 0.563,-0.7657 0.062,-0.125 0.151,-0.1875 0.265,-0.1875 h 0.032 c 0.125,0.0105 0.213,0.073 0.265,0.1875 l -2.453,8.4063 c -0.135,0.1354 -0.32,0.2031 -0.554,0.2031 -0.235,0 -0.415,-0.0677 -0.54,-0.2031 l 2.344,-6.5313 c -0.833,0.3021 -1.536,0.4532 -2.109,0.4532 -0.469,0 -0.875,-0.1511 -1.219,-0.4532 -0.354,-0.2812 -0.531,-0.6562 -0.531,-1.125 0,-0.4062 0.146,-0.7448 0.437,-1.0156 0.282,-0.2917 0.625,-0.4375 1.032,-0.4375"
     id="path226"
     inkscape:connector-curvature="0" />
  <path
     class="Articulation"
     d="m 412.5354,56.46 c -0.198,-0.198 -0.297,-0.4323 -0.297,-0.7032 0,-0.2708 0.099,-0.5052 0.297,-0.7031 0.198,-0.1979 0.432,-0.2969 0.703,-0.2969 0.271,0 0.505,0.099 0.703,0.2969 0.198,0.1979 0.297,0.4323 0.297,0.7031 0,0.2709 -0.099,0.5052 -0.297,0.7032 -0.198,0.1979 -0.432,0.2968 -0.703,0.2968 -0.271,0 -0.505,-0.0989 -0.703,-0.2968"
     id="path228"
     inkscape:connector-curvature="0" />
  <path
     class="Articulation"
     d="m 316.2224,83.9536 c -0.198,-0.198 -0.297,-0.432 -0.297,-0.703 0,-0.271 0.099,-0.505 0.297,-0.703 0.198,-0.198 0.433,-0.297 0.703,-0.297 0.271,0 0.506,0.099 0.704,0.297 0.198,0.198 0.296,0.432 0.296,0.703 0,0.271 -0.098,0.505 -0.296,0.703 -0.198,0.198 -0.433,0.297 -0.704,0.297 -0.27,0 -0.505,-0.099 -0.703,-0.297"
     id="path230"
     inkscape:connector-curvature="0" />
  <path
     class="Articulation"
     d="m 315.5724,56.46 c -0.198,-0.198 -0.297,-0.4323 -0.297,-0.7032 0,-0.2708 0.099,-0.5052 0.297,-0.7031 0.198,-0.1979 0.433,-0.2969 0.703,-0.2969 0.271,0 0.506,0.099 0.704,0.2969 0.197,0.1979 0.296,0.4323 0.296,0.7031 0,0.2709 -0.099,0.5052 -0.296,0.7032 -0.198,0.1979 -0.433,0.2968 -0.704,0.2968 -0.27,0 -0.505,-0.0989 -0.703,-0.2968"
     id="path232"
     inkscape:connector-curvature="0" />
  <path
     class="Articulation"
     d="m 219.2604,83.9536 c -0.198,-0.198 -0.297,-0.432 -0.297,-0.703 0,-0.271 0.099,-0.505 0.297,-0.703 0.198,-0.198 0.432,-0.297 0.703,-0.297 0.271,0 0.505,0.099 0.703,0.297 0.198,0.198 0.297,0.432 0.297,0.703 0,0.271 -0.099,0.505 -0.297,0.703 -0.198,0.198 -0.432,0.297 -0.703,0.297 -0.271,0 -0.505,-0.099 -0.703,-0.297"
     id="path234"
     inkscape:connector-curvature="0" />
  <path
     class="Articulation"
     d="m 218.6104,56.46 c -0.198,-0.198 -0.297,-0.4323 -0.297,-0.7032 0,-0.2708 0.099,-0.5052 0.297,-0.7031 0.198,-0.1979 0.432,-0.2969 0.703,-0.2969 0.271,0 0.505,0.099 0.703,0.2969 0.198,0.1979 0.297,0.4323 0.297,0.7031 0,0.2709 -0.099,0.5052 -0.297,0.7032 -0.198,0.1979 -0.432,0.2968 -0.703,0.2968 -0.271,0 -0.505,-0.0989 -0.703,-0.2968"
     id="path236"
     inkscape:connector-curvature="0" />
  <path
     class="Articulation"
     d="m 123.0984,83.9536 c -0.198,-0.198 -0.297,-0.432 -0.297,-0.703 0,-0.271 0.099,-0.505 0.297,-0.703 0.198,-0.198 0.432,-0.297 0.703,-0.297 0.271,0 0.505,0.099 0.703,0.297 0.198,0.198 0.297,0.432 0.297,0.703 0,0.271 -0.099,0.505 -0.297,0.703 -0.198,0.198 -0.432,0.297 -0.703,0.297 -0.271,0 -0.505,-0.099 -0.703,-0.297"
     id="path238"
     inkscape:connector-curvature="0" />
  <path
     class="Articulation"
     d="m 122.4484,56.46 c -0.198,-0.198 -0.297,-0.4323 -0.297,-0.7032 0,-0.2708 0.099,-0.5052 0.297,-0.7031 0.198,-0.1979 0.432,-0.2969 0.703,-0.2969 0.271,0 0.505,0.099 0.703,0.2969 0.198,0.1979 0.297,0.4323 0.297,0.7031 0,0.2709 -0.099,0.5052 -0.297,0.7032 -0.198,0.1979 -0.432,0.2968 -0.703,0.2968 -0.271,0 -0.505,-0.0989 -0.703,-0.2968"
     id="path240"
     inkscape:connector-curvature="0" />
  <path
     class="Beam"
     d="m 475.9724,30.6973 15.677,1.3042 v 2.5001 l -15.677,-1.3041 v -2.5002"
     id="path242"
     inkscape:connector-curvature="0"
     style="fill-rule:evenodd" />
  <path
     class="Beam"
     d="m 445.9184,33.3056 15.677,-1.3041 v 2.5001 l -15.677,1.3042 v -2.5002"
     id="path244"
     inkscape:connector-curvature="0"
     style="fill-rule:evenodd" />
  <path
     class="Beam"
     d="m 379.0094,33.3056 15.677,-1.3041 v 2.5001 l -15.677,1.3042 v -2.5002"
     id="path246"
     inkscape:connector-curvature="0"
     style="fill-rule:evenodd" />
  <path
     class="Beam"
     d="m 348.9554,33.3056 15.677,-1.3041 v 2.5001 l -15.677,1.3042 v -2.5002"
     id="path248"
     inkscape:connector-curvature="0"
     style="fill-rule:evenodd" />
  <path
     class="Beam"
     d="m 282.0474,33.3056 15.677,-1.3041 v 2.5001 l -15.677,1.3042 v -2.5002"
     id="path250"
     inkscape:connector-curvature="0"
     style="fill-rule:evenodd" />
  <path
     class="Beam"
     d="m 251.9934,33.3056 15.677,-1.3041 v 2.5001 l -15.677,1.3042 v -2.5002"
     id="path252"
     inkscape:connector-curvature="0"
     style="fill-rule:evenodd" />
  <path
     class="Beam"
     d="m 185.3514,33.3061 15.544,-1.3046 v 2.5001 l -15.544,1.3047 v -2.5002"
     id="path254"
     inkscape:connector-curvature="0"
     style="fill-rule:evenodd" />
  <path
     class="Beam"
     d="m 155.5644,33.3061 15.544,-1.3046 v 2.5001 l -15.544,1.3047 v -2.5002"
     id="path256"
     inkscape:connector-curvature="0"
     style="fill-rule:evenodd" />
  <path
     class="Hook"
     d="m 415.8644,38.2516 v -5 h 0.625 c 0,0.7396 0.146,1.4843 0.437,2.2343 0.313,0.8021 0.657,1.5053 1.032,2.1094 0.27,0.4271 0.682,1.0834 1.234,1.9688 0.417,0.6771 0.768,1.3854 1.055,2.125 0.286,0.7396 0.429,1.4843 0.429,2.2343 0,1.3542 -0.281,2.7344 -0.843,4.1407 -0.094,0.1562 -0.219,0.2343 -0.375,0.2343 -0.125,0 -0.24,-0.052 -0.344,-0.1562 -0.084,-0.0833 -0.125,-0.1823 -0.125,-0.2969 v -0.0937 c 0.562,-1.2917 0.844,-2.5677 0.844,-3.8282 0,-0.6562 -0.198,-1.3593 -0.594,-2.1093 -0.386,-0.7709 -0.781,-1.3854 -1.188,-1.8438 -0.458,-0.5312 -0.979,-1.1041 -1.562,-1.7187 h -0.625"
     id="path258"
     inkscape:connector-curvature="0" />
  <path
     class="Hook"
     d="m 318.9014,38.2516 v -5 h 0.625 c 0,0.7396 0.146,1.4843 0.438,2.2343 0.312,0.8021 0.656,1.5053 1.031,2.1094 0.271,0.4271 0.682,1.0834 1.235,1.9688 0.416,0.6771 0.768,1.3854 1.054,2.125 0.287,0.7396 0.43,1.4843 0.43,2.2343 0,1.3542 -0.281,2.7344 -0.844,4.1407 -0.094,0.1562 -0.219,0.2343 -0.375,0.2343 -0.125,0 -0.239,-0.052 -0.344,-0.1562 -0.083,-0.0833 -0.125,-0.1823 -0.125,-0.2969 v -0.0937 c 0.563,-1.2917 0.844,-2.5677 0.844,-3.8282 0,-0.6562 -0.198,-1.3593 -0.594,-2.1093 -0.385,-0.7709 -0.781,-1.3854 -1.187,-1.8438 -0.458,-0.5312 -0.979,-1.1041 -1.563,-1.7187 h -0.625"
     id="path260"
     inkscape:connector-curvature="0" />
  <path
     class="Hook"
     d="m 221.9394,38.2516 v -5 h 0.625 c 0,0.7396 0.146,1.4843 0.438,2.2343 0.312,0.8021 0.656,1.5053 1.031,2.1094 0.271,0.4271 0.682,1.0834 1.234,1.9688 0.417,0.6771 0.768,1.3854 1.055,2.125 0.286,0.7396 0.43,1.4843 0.43,2.2343 0,1.3542 -0.282,2.7344 -0.844,4.1407 -0.094,0.1562 -0.219,0.2343 -0.375,0.2343 -0.125,0 -0.24,-0.052 -0.344,-0.1562 -0.083,-0.0833 -0.125,-0.1823 -0.125,-0.2969 v -0.0937 c 0.563,-1.2917 0.844,-2.5677 0.844,-3.8282 0,-0.6562 -0.198,-1.3593 -0.594,-2.1093 -0.385,-0.7709 -0.781,-1.3854 -1.187,-1.8438 -0.459,-0.5312 -0.98,-1.1041 -1.563,-1.7187 h -0.625"
     id="path262"
     inkscape:connector-curvature="0" />
  <path
     class="Hook"
     d="m 125.7774,38.2516 v -5 h 0.625 c 0,0.7396 0.146,1.4843 0.437,2.2343 0.313,0.8021 0.657,1.5053 1.032,2.1094 0.27,0.4271 0.682,1.0834 1.234,1.9688 0.417,0.6771 0.768,1.3854 1.055,2.125 0.286,0.7396 0.429,1.4843 0.429,2.2343 0,1.3542 -0.281,2.7344 -0.843,4.1407 -0.094,0.1562 -0.219,0.2343 -0.375,0.2343 -0.125,0 -0.24,-0.052 -0.344,-0.1562 -0.083,-0.0833 -0.125,-0.1823 -0.125,-0.2969 v -0.0937 c 0.562,-1.2917 0.844,-2.5677 0.844,-3.8282 0,-0.6562 -0.198,-1.3593 -0.594,-2.1093 -0.386,-0.7709 -0.781,-1.3854 -1.188,-1.8438 -0.458,-0.5312 -0.979,-1.1041 -1.562,-1.7187 h -0.625"
     id="path264"
     inkscape:connector-curvature="0" />
  <path
     class="Tempo"
     d="m 96.6834,5.7031 c -0.203,-0.1562 -0.453,-0.25 -0.766,-0.25 -1.187,0 -2.14,0.875 -2.14,1.8125 0,0.5625 0.453,0.9063 1.046,0.9063 0.954,0 2.141,-0.9063 2.141,-1.8125 V 0.2187 h -0.281 v 5.4844"
     id="path266"
     inkscape:connector-curvature="0" />
  <path
     class="Tempo"
     d="m 107.3234,4.2812 h -6.609 V 3.125 h 6.609 v 1.1562 m 0,2.9219 h -6.609 V 6.0625 h 6.609 v 1.1406 m 5.547,-5.8906 c -0.093,0 -0.205,0.0208 -0.336,0.0625 -0.13,0.0417 -0.27,0.0911 -0.422,0.1484 -0.151,0.0573 -0.236,0.0912 -0.257,0.1016 V 1.3125 L 114.8704,0 h 0.203 v 6.8281 c 0,0.4688 0.081,0.7735 0.243,0.9141 0.161,0.1406 0.513,0.2161 1.054,0.2265 V 8.25 h -4.5 V 7.9687 c 0.594,-0.0104 0.982,-0.0911 1.164,-0.2421 0.183,-0.1511 0.274,-0.4714 0.274,-0.961 v -4.625 c 0,-0.5521 -0.146,-0.8281 -0.438,-0.8281 m 9.922,-1.1719 -2.812,8.1094 h -1.141 l 2.391,-6.4688 h -2.485 c -0.323,0 -0.57,0.0756 -0.742,0.2266 -0.172,0.151 -0.315,0.4193 -0.43,0.8047 h -0.296 l 0.531,-2.6719 h 4.984 m 0.563,4.0313 c 0,-1.1771 0.26,-2.1667 0.781,-2.9688 C 124.6574,0.401 125.3034,0 126.0734,0 c 0.771,0 1.414,0.401 1.93,1.2031 0.516,0.8021 0.774,1.8021 0.774,3 0,1.2084 -0.256,2.211 -0.766,3.0078 -0.51,0.7969 -1.151,1.1953 -1.922,1.1953 -0.802,0 -1.458,-0.3958 -1.969,-1.1875 -0.51,-0.7916 -0.765,-1.8072 -0.765,-3.0468 m 2.734,3.8906 c 0.26,0 0.458,-0.1797 0.594,-0.5391 0.135,-0.3593 0.203,-1.0026 0.203,-1.9297 v -2.75 c 0,-0.8854 -0.063,-1.526 -0.188,-1.9218 -0.125,-0.3959 -0.338,-0.5938 -0.64,-0.5938 -0.292,0 -0.498,0.1927 -0.617,0.5781 -0.12,0.3855 -0.18,1.0313 -0.18,1.9375 v 2.75 c 0,0.8855 0.062,1.5183 0.187,1.8985 0.125,0.3802 0.339,0.5703 0.641,0.5703"
     id="path268"
     inkscape:connector-curvature="0" />
</svg>
