<?xml version="1.0" encoding="UTF-8" standalone="no"?>
<svg xmlns="http://www.w3.org/2000/svg" viewBox="0 0 1814.1767 568.26395">
	<polyline points="14.1732,316.743 1828.35,316.743" style="fill:none;stroke:#000000;stroke-width:2;stroke-linejoin:bevel" transform="translate(-14.1732,-211.208)"/>
	<polyline points="14.1732,341.745 1828.35,341.745" style="fill:none;stroke:#000000;stroke-width:2;stroke-linejoin:bevel" transform="translate(-14.1732,-211.208)"/>
	<polyline points="14.1732,366.746 1828.35,366.746" style="fill:none;stroke:#000000;stroke-width:2;stroke-linejoin:bevel" transform="translate(-14.1732,-211.208)"/>
	<polyline points="14.1732,391.748 1828.35,391.748" style="fill:none;stroke:#000000;stroke-width:2;stroke-linejoin:bevel" transform="translate(-14.1732,-211.208)"/>
	<polyline points="14.1732,416.75 1828.35,416.75" style="fill:none;stroke:#000000;stroke-width:2;stroke-linejoin:bevel" transform="translate(-14.1732,-211.208)"/>
	<polyline points="14.1732,616.762 1828.35,616.762" style="fill:none;stroke:#000000;stroke-width:2;stroke-linejoin:bevel" transform="translate(-14.1732,-211.208)"/>
	<polyline points="14.1732,641.764 1828.35,641.764" style="fill:none;stroke:#000000;stroke-width:2;stroke-linejoin:bevel" transform="translate(-14.1732,-211.208)"/>
	<polyline points="14.1732,666.765 1828.35,666.765" style="fill:none;stroke:#000000;stroke-width:2;stroke-linejoin:bevel" transform="translate(-14.1732,-211.208)"/>
	<polyline points="14.1732,691.767 1828.35,691.767" style="fill:none;stroke:#000000;stroke-width:2;stroke-linejoin:bevel" transform="translate(-14.1732,-211.208)"/>
	<polyline points="14.1732,716.769 1828.35,716.769" style="fill:none;stroke:#000000;stroke-width:2;stroke-linejoin:bevel" transform="translate(-14.1732,-211.208)"/>
	<polyline points="581.159,315.743 581.159,417.75" style="fill:none;stroke:#000000;stroke-width:4;stroke-linejoin:bevel" transform="translate(-14.1732,-211.208)"/>
	<polyline points="992.721,315.743 992.721,417.75" style="fill:none;stroke:#000000;stroke-width:4;stroke-linejoin:bevel" transform="translate(-14.1732,-211.208)"/>
	<polyline points="1409.53,315.743 1409.53,417.75" style="fill:none;stroke:#000000;stroke-width:4;stroke-linejoin:bevel" transform="translate(-14.1732,-211.208)"/>
	<polyline points="1826.35,315.743 1826.35,417.75" style="fill:none;stroke:#000000;stroke-width:4;stroke-linejoin:bevel" transform="translate(-14.1732,-211.208)"/>
	<polyline points="547.106,615.762 547.106,717.769" style="fill:none;stroke:#000000;stroke-width:4;stroke-linejoin:bevel" transform="translate(-14.1732,-211.208)"/>
	<polyline points="967.103,615.762 967.103,717.769" style="fill:none;stroke:#000000;stroke-width:4;stroke-linejoin:bevel" transform="translate(-14.1732,-211.208)"/>
	<polyline points="1387.1,615.762 1387.1,717.769" style="fill:none;stroke:#000000;stroke-width:4;stroke-linejoin:bevel" transform="translate(-14.1732,-211.208)"/>
	<polyline points="1803.84,615.762 1803.84,717.769" style="fill:none;stroke:#000000;stroke-width:4;stroke-linejoin:bevel" transform="translate(-14.1732,-211.208)"/>
	<polyline points="1822.1,615.762 1822.1,717.769" style="fill:none;stroke:#000000;stroke-width:12.5;stroke-linejoin:bevel" transform="translate(-14.1732,-211.208)"/>
	<polyline points="193.349,291.742 241.266,291.742" style="fill:none;stroke:#000000;stroke-width:4;stroke-linecap:square;stroke-linejoin:bevel" transform="translate(-14.1732,-211.208)"/>
	<polyline points="416.652,291.742 464.569,291.742" style="fill:none;stroke:#000000;stroke-width:4;stroke-linecap:square;stroke-linejoin:bevel" transform="translate(-14.1732,-211.208)"/>
	<polyline points="1021.72,291.742 1069.64,291.742" style="fill:none;stroke:#000000;stroke-width:4;stroke-linecap:square;stroke-linejoin:bevel" transform="translate(-14.1732,-211.208)"/>
	<polyline points="1245.03,291.742 1292.94,291.742" style="fill:none;stroke:#000000;stroke-width:4;stroke-linecap:square;stroke-linejoin:bevel" transform="translate(-14.1732,-211.208)"/>
	<polyline points="1438.54,291.742 1486.45,291.742" style="fill:none;stroke:#000000;stroke-width:4;stroke-linecap:square;stroke-linejoin:bevel" transform="translate(-14.1732,-211.208)"/>
	<polyline points="1661.84,291.742 1709.76,291.742" style="fill:none;stroke:#000000;stroke-width:4;stroke-linecap:square;stroke-linejoin:bevel" transform="translate(-14.1732,-211.208)"/>
	<polyline points="576.108,591.761 624.025,591.761" style="fill:none;stroke:#000000;stroke-width:4;stroke-linecap:square;stroke-linejoin:bevel" transform="translate(-14.1732,-211.208)"/>
	<polyline points="801.631,591.761 849.548,591.761" style="fill:none;stroke:#000000;stroke-width:4;stroke-linecap:square;stroke-linejoin:bevel" transform="translate(-14.1732,-211.208)"/>
	<polyline points="996.104,591.761 1044.02,591.761" style="fill:none;stroke:#000000;stroke-width:4;stroke-linecap:square;stroke-linejoin:bevel" transform="translate(-14.1732,-211.208)"/>
	<polyline points="1221.63,591.761 1269.54,591.761" style="fill:none;stroke:#000000;stroke-width:4;stroke-linecap:square;stroke-linejoin:bevel" transform="translate(-14.1732,-211.208)"/>
	<polyline points="202.474,296.437 202.474,454.252" style="fill:none;stroke:#000000;stroke-width:3.25;stroke-linecap:round;stroke-linejoin:bevel" transform="translate(-14.1732,-211.208)"/>
	<polyline points="280.145,358.941 280.145,423" style="fill:none;stroke:#000000;stroke-width:3.25;stroke-linecap:round;stroke-linejoin:bevel" transform="translate(-14.1732,-211.208)"/>
	<polyline points="328.689,333.94 328.689,410.499" style="fill:none;stroke:#000000;stroke-width:3.25;stroke-linecap:round;stroke-linejoin:bevel" transform="translate(-14.1732,-211.208)"/>
	<polyline points="377.234,383.943 377.234,448.002" style="fill:none;stroke:#000000;stroke-width:3.25;stroke-linecap:round;stroke-linejoin:bevel" transform="translate(-14.1732,-211.208)"/>
	<polyline points="425.778,296.437 425.778,437.584" style="fill:none;stroke:#000000;stroke-width:3.25;stroke-linecap:round;stroke-linejoin:bevel" transform="translate(-14.1732,-211.208)"/>
	<polyline points="474.322,358.941 474.322,427.167" style="fill:none;stroke:#000000;stroke-width:3.25;stroke-linecap:round;stroke-linejoin:bevel" transform="translate(-14.1732,-211.208)"/>
	<polyline points="522.866,333.94 522.866,416.75" style="fill:none;stroke:#000000;stroke-width:3.25;stroke-linecap:round;stroke-linejoin:bevel" transform="translate(-14.1732,-211.208)"/>
	<polyline points="614.036,308.938 614.036,454.252" style="fill:none;stroke:#000000;stroke-width:3.25;stroke-linecap:round;stroke-linejoin:bevel" transform="translate(-14.1732,-211.208)"/>
	<polyline points="691.707,358.941 691.707,423" style="fill:none;stroke:#000000;stroke-width:3.25;stroke-linecap:round;stroke-linejoin:bevel" transform="translate(-14.1732,-211.208)"/>
	<polyline points="740.252,333.94 740.252,410.499" style="fill:none;stroke:#000000;stroke-width:3.25;stroke-linecap:round;stroke-linejoin:bevel" transform="translate(-14.1732,-211.208)"/>
	<polyline points="788.796,383.943 788.796,448.002" style="fill:none;stroke:#000000;stroke-width:3.25;stroke-linecap:round;stroke-linejoin:bevel" transform="translate(-14.1732,-211.208)"/>
	<polyline points="837.34,308.938 837.34,437.584" style="fill:none;stroke:#000000;stroke-width:3.25;stroke-linecap:round;stroke-linejoin:bevel" transform="translate(-14.1732,-211.208)"/>
	<polyline points="885.884,358.941 885.884,427.167" style="fill:none;stroke:#000000;stroke-width:3.25;stroke-linecap:round;stroke-linejoin:bevel" transform="translate(-14.1732,-211.208)"/>
	<polyline points="934.429,333.94 934.429,416.75" style="fill:none;stroke:#000000;stroke-width:3.25;stroke-linecap:round;stroke-linejoin:bevel" transform="translate(-14.1732,-211.208)"/>
	<polyline points="1030.85,283.937 1030.85,454.252" style="fill:none;stroke:#000000;stroke-width:3.25;stroke-linecap:round;stroke-linejoin:bevel" transform="translate(-14.1732,-211.208)"/>
	<polyline points="1108.52,358.941 1108.52,423" style="fill:none;stroke:#000000;stroke-width:3.25;stroke-linecap:round;stroke-linejoin:bevel" transform="translate(-14.1732,-211.208)"/>
	<polyline points="1157.06,333.94 1157.06,410.499" style="fill:none;stroke:#000000;stroke-width:3.25;stroke-linecap:round;stroke-linejoin:bevel" transform="translate(-14.1732,-211.208)"/>
	<polyline points="1205.61,383.943 1205.61,448.002" style="fill:none;stroke:#000000;stroke-width:3.25;stroke-linecap:round;stroke-linejoin:bevel" transform="translate(-14.1732,-211.208)"/>
	<polyline points="1254.15,283.937 1254.15,437.584" style="fill:none;stroke:#000000;stroke-width:3.25;stroke-linecap:round;stroke-linejoin:bevel" transform="translate(-14.1732,-211.208)"/>
	<polyline points="1302.7,358.941 1302.7,427.167" style="fill:none;stroke:#000000;stroke-width:3.25;stroke-linecap:round;stroke-linejoin:bevel" transform="translate(-14.1732,-211.208)"/>
	<polyline points="1351.24,333.94 1351.24,416.75" style="fill:none;stroke:#000000;stroke-width:3.25;stroke-linecap:round;stroke-linejoin:bevel" transform="translate(-14.1732,-211.208)"/>
	<polyline points="1447.66,296.437 1447.66,454.252" style="fill:none;stroke:#000000;stroke-width:3.25;stroke-linecap:round;stroke-linejoin:bevel" transform="translate(-14.1732,-211.208)"/>
	<polyline points="1525.33,358.941 1525.33,423" style="fill:none;stroke:#000000;stroke-width:3.25;stroke-linecap:round;stroke-linejoin:bevel" transform="translate(-14.1732,-211.208)"/>
	<polyline points="1573.88,333.94 1573.88,410.499" style="fill:none;stroke:#000000;stroke-width:3.25;stroke-linecap:round;stroke-linejoin:bevel" transform="translate(-14.1732,-211.208)"/>
	<polyline points="1622.42,383.943 1622.42,448.002" style="fill:none;stroke:#000000;stroke-width:3.25;stroke-linecap:round;stroke-linejoin:bevel" transform="translate(-14.1732,-211.208)"/>
	<polyline points="1670.97,296.437 1670.97,437.584" style="fill:none;stroke:#000000;stroke-width:3.25;stroke-linecap:round;stroke-linejoin:bevel" transform="translate(-14.1732,-211.208)"/>
	<polyline points="1719.51,358.941 1719.51,427.167" style="fill:none;stroke:#000000;stroke-width:3.25;stroke-linecap:round;stroke-linejoin:bevel" transform="translate(-14.1732,-211.208)"/>
	<polyline points="1768.05,333.94 1768.05,416.75" style="fill:none;stroke:#000000;stroke-width:3.25;stroke-linecap:round;stroke-linejoin:bevel" transform="translate(-14.1732,-211.208)"/>
	<polyline points="165.237,608.957 165.237,773.022" style="fill:none;stroke:#000000;stroke-width:3.25;stroke-linecap:round;stroke-linejoin:bevel" transform="translate(-14.1732,-211.208)"/>
	<polyline points="243.68,658.96 243.68,723.019" style="fill:none;stroke:#000000;stroke-width:3.25;stroke-linecap:round;stroke-linejoin:bevel" transform="translate(-14.1732,-211.208)"/>
	<polyline points="292.707,621.458 292.707,698.017" style="fill:none;stroke:#000000;stroke-width:3.25;stroke-linecap:round;stroke-linejoin:bevel" transform="translate(-14.1732,-211.208)"/>
	<polyline points="341.734,708.963 341.734,773.022" style="fill:none;stroke:#000000;stroke-width:3.25;stroke-linecap:round;stroke-linejoin:bevel" transform="translate(-14.1732,-211.208)"/>
	<polyline points="390.76,608.957 390.76,760.521" style="fill:none;stroke:#000000;stroke-width:3.25;stroke-linecap:round;stroke-linejoin:bevel" transform="translate(-14.1732,-211.208)"/>
	<polyline points="439.787,658.96 439.787,748.02" style="fill:none;stroke:#000000;stroke-width:3.25;stroke-linecap:round;stroke-linejoin:bevel" transform="translate(-14.1732,-211.208)"/>
	<polyline points="488.814,621.458 488.814,735.52" style="fill:none;stroke:#000000;stroke-width:3.25;stroke-linecap:round;stroke-linejoin:bevel" transform="translate(-14.1732,-211.208)"/>
	<polyline points="585.234,583.955 585.234,773.022" style="fill:none;stroke:#000000;stroke-width:3.25;stroke-linecap:round;stroke-linejoin:bevel" transform="translate(-14.1732,-211.208)"/>
	<polyline points="663.676,658.96 663.676,723.019" style="fill:none;stroke:#000000;stroke-width:3.25;stroke-linecap:round;stroke-linejoin:bevel" transform="translate(-14.1732,-211.208)"/>
	<polyline points="712.703,621.458 712.703,698.017" style="fill:none;stroke:#000000;stroke-width:3.25;stroke-linecap:round;stroke-linejoin:bevel" transform="translate(-14.1732,-211.208)"/>
	<polyline points="761.73,708.963 761.73,773.022" style="fill:none;stroke:#000000;stroke-width:3.25;stroke-linecap:round;stroke-linejoin:bevel" transform="translate(-14.1732,-211.208)"/>
	<polyline points="810.756,583.955 810.756,760.521" style="fill:none;stroke:#000000;stroke-width:3.25;stroke-linecap:round;stroke-linejoin:bevel" transform="translate(-14.1732,-211.208)"/>
	<polyline points="859.783,658.96 859.783,748.02" style="fill:none;stroke:#000000;stroke-width:3.25;stroke-linecap:round;stroke-linejoin:bevel" transform="translate(-14.1732,-211.208)"/>
	<polyline points="908.81,621.458 908.81,735.52" style="fill:none;stroke:#000000;stroke-width:3.25;stroke-linecap:round;stroke-linejoin:bevel" transform="translate(-14.1732,-211.208)"/>
	<polyline points="1005.23,596.456 1005.23,773.022" style="fill:none;stroke:#000000;stroke-width:3.25;stroke-linecap:round;stroke-linejoin:bevel" transform="translate(-14.1732,-211.208)"/>
	<polyline points="1083.67,658.96 1083.67,723.019" style="fill:none;stroke:#000000;stroke-width:3.25;stroke-linecap:round;stroke-linejoin:bevel" transform="translate(-14.1732,-211.208)"/>
	<polyline points="1132.7,621.458 1132.7,698.017" style="fill:none;stroke:#000000;stroke-width:3.25;stroke-linecap:round;stroke-linejoin:bevel" transform="translate(-14.1732,-211.208)"/>
	<polyline points="1181.73,708.963 1181.73,773.022" style="fill:none;stroke:#000000;stroke-width:3.25;stroke-linecap:round;stroke-linejoin:bevel" transform="translate(-14.1732,-211.208)"/>
	<polyline points="1230.75,596.456 1230.75,760.521" style="fill:none;stroke:#000000;stroke-width:3.25;stroke-linecap:round;stroke-linejoin:bevel" transform="translate(-14.1732,-211.208)"/>
	<polyline points="1279.78,658.96 1279.78,748.02" style="fill:none;stroke:#000000;stroke-width:3.25;stroke-linecap:round;stroke-linejoin:bevel" transform="translate(-14.1732,-211.208)"/>
	<polyline points="1328.81,621.458 1328.81,735.52" style="fill:none;stroke:#000000;stroke-width:3.25;stroke-linecap:round;stroke-linejoin:bevel" transform="translate(-14.1732,-211.208)"/>
	<polyline points="1421.98,608.957 1421.98,773.022" style="fill:none;stroke:#000000;stroke-width:3.25;stroke-linecap:round;stroke-linejoin:bevel" transform="translate(-14.1732,-211.208)"/>
	<polyline points="1500.42,658.96 1500.42,723.019" style="fill:none;stroke:#000000;stroke-width:3.25;stroke-linecap:round;stroke-linejoin:bevel" transform="translate(-14.1732,-211.208)"/>
	<polyline points="1549.45,621.458 1549.45,698.017" style="fill:none;stroke:#000000;stroke-width:3.25;stroke-linecap:round;stroke-linejoin:bevel" transform="translate(-14.1732,-211.208)"/>
	<polyline points="1598.47,708.963 1598.47,773.022" style="fill:none;stroke:#000000;stroke-width:3.25;stroke-linecap:round;stroke-linejoin:bevel" transform="translate(-14.1732,-211.208)"/>
	<polyline points="1647.5,608.957 1647.5,760.521" style="fill:none;stroke:#000000;stroke-width:3.25;stroke-linecap:round;stroke-linejoin:bevel" transform="translate(-14.1732,-211.208)"/>
	<polyline points="1696.53,658.96 1696.53,748.02" style="fill:none;stroke:#000000;stroke-width:3.25;stroke-linecap:round;stroke-linejoin:bevel" transform="translate(-14.1732,-211.208)"/>
	<polyline points="1745.55,621.458 1745.55,735.52" style="fill:none;stroke:#000000;stroke-width:3.25;stroke-linecap:round;stroke-linejoin:bevel" transform="translate(-14.1732,-211.208)"/>
	<path d="m 208.6448,154.274 c 3.125,0 5.765,0.812 7.922,2.437 2.01,1.761 3.015,3.974 3.015,6.641 0,4.489 -2.307,8.687 -6.922,12.593 -4.687,3.907 -9.703,5.86 -15.046,5.86 -3.125,0 -5.761,-0.813 -7.907,-2.438 -2.021,-1.76 -3.031,-3.974 -3.031,-6.64 0,-4.49 2.344,-8.688 7.031,-12.594 4.563,-3.906 9.542,-5.859 14.938,-5.859"/>
	<path d="m 208.6448,66.768 c 3.125,0 5.765,0.813 7.922,2.438 2.01,1.76 3.015,3.974 3.015,6.64 0,4.49 -2.307,8.688 -6.922,12.594 -4.687,3.906 -9.703,5.859 -15.046,5.859 -3.125,0 -5.761,-0.812 -7.907,-2.437 -2.021,-1.761 -3.031,-3.974 -3.031,-6.641 0,-4.489 2.344,-8.687 7.031,-12.594 4.563,-3.906 9.542,-5.859 14.938,-5.859"/>
	<path d="m 286.3158,129.272 c 3.125,0 5.765,0.813 7.922,2.438 2.01,1.76 3.015,3.974 3.015,6.64 0,4.49 -2.307,8.688 -6.922,12.594 -4.687,3.906 -9.703,5.859 -15.047,5.859 -3.125,0 -5.76,-0.812 -7.906,-2.437 -2.021,-1.761 -3.031,-3.974 -3.031,-6.641 0,-4.489 2.344,-8.687 7.031,-12.594 4.563,-3.906 9.542,-5.859 14.938,-5.859"/>
	<path d="m 334.8598,104.27 c 3.125,0 5.766,0.813 7.922,2.438 2.01,1.76 3.015,3.974 3.015,6.641 0,4.489 -2.307,8.687 -6.921,12.593 -4.688,3.907 -9.704,5.86 -15.047,5.86 -3.125,0 -5.761,-0.813 -7.907,-2.438 -2.02,-1.76 -3.031,-3.974 -3.031,-6.64 0,-4.49 2.344,-8.688 7.031,-12.594 4.563,-3.906 9.542,-5.86 14.938,-5.86"/>
	<path d="m 383.4038,154.274 c 3.125,0 5.766,0.812 7.922,2.437 2.011,1.761 3.016,3.974 3.016,6.641 0,4.489 -2.308,8.687 -6.922,12.593 -4.688,3.907 -9.703,5.86 -15.047,5.86 -3.125,0 -5.76,-0.813 -7.906,-2.438 -2.021,-1.76 -3.032,-3.974 -3.032,-6.64 0,-4.49 2.344,-8.688 7.032,-12.594 4.562,-3.906 9.541,-5.859 14.937,-5.859"/>
	<path d="m 431.9488,66.768 c 3.125,0 5.765,0.813 7.921,2.438 2.011,1.76 3.016,3.974 3.016,6.64 0,4.49 -2.307,8.688 -6.922,12.594 -4.687,3.906 -9.703,5.859 -15.047,5.859 -3.125,0 -5.76,-0.812 -7.906,-2.437 -2.021,-1.761 -3.031,-3.974 -3.031,-6.641 0,-4.489 2.344,-8.687 7.031,-12.594 4.563,-3.906 9.542,-5.859 14.938,-5.859"/>
	<path d="m 480.4928,129.272 c 3.125,0 5.765,0.813 7.922,2.438 2.01,1.76 3.015,3.974 3.015,6.64 0,4.49 -2.307,8.688 -6.922,12.594 -4.687,3.906 -9.703,5.859 -15.046,5.859 -3.125,0 -5.761,-0.812 -7.907,-2.437 -2.021,-1.761 -3.031,-3.974 -3.031,-6.641 0,-4.489 2.344,-8.687 7.031,-12.594 4.563,-3.906 9.542,-5.859 14.938,-5.859"/>
	<path d="m 529.0368,104.27 c 3.125,0 5.766,0.813 7.922,2.438 2.01,1.76 3.016,3.974 3.016,6.641 0,4.489 -2.308,8.687 -6.922,12.593 -4.688,3.907 -9.703,5.86 -15.047,5.86 -3.125,0 -5.761,-0.813 -7.906,-2.438 -2.021,-1.76 -3.032,-3.974 -3.032,-6.64 0,-4.49 2.344,-8.688 7.032,-12.594 4.562,-3.906 9.541,-5.86 14.937,-5.86"/>
	<path d="m 620.2068,154.274 c 3.125,0 5.766,0.812 7.922,2.437 2.01,1.761 3.016,3.974 3.016,6.641 0,4.489 -2.308,8.687 -6.922,12.593 -4.688,3.907 -9.703,5.86 -15.047,5.86 -3.125,0 -5.761,-0.813 -7.906,-2.438 -2.021,-1.76 -3.032,-3.974 -3.032,-6.64 0,-4.49 2.344,-8.688 7.032,-12.594 4.562,-3.906 9.541,-5.859 14.937,-5.859"/>
	<path d="m 620.2068,79.269 c 3.125,0 5.766,0.812 7.922,2.437 2.01,1.761 3.016,3.974 3.016,6.641 0,4.49 -2.308,8.688 -6.922,12.594 -4.688,3.906 -9.703,5.859 -15.047,5.859 -3.125,0 -5.761,-0.812 -7.906,-2.437 -2.021,-1.761 -3.032,-3.974 -3.032,-6.641 0,-4.49 2.344,-8.687 7.032,-12.594 4.562,-3.906 9.541,-5.859 14.937,-5.859"/>
	<path d="m 697.8778,129.272 c 3.125,0 5.766,0.813 7.922,2.438 2.01,1.76 3.015,3.974 3.015,6.64 0,4.49 -2.307,8.688 -6.921,12.594 -4.688,3.906 -9.704,5.859 -15.047,5.859 -3.125,0 -5.761,-0.812 -7.907,-2.437 -2.02,-1.761 -3.031,-3.974 -3.031,-6.641 0,-4.489 2.344,-8.687 7.031,-12.594 4.563,-3.906 9.542,-5.859 14.938,-5.859"/>
	<path d="m 746.4218,104.27 c 3.125,0 5.766,0.813 7.922,2.438 2.01,1.76 3.016,3.974 3.016,6.641 0,4.489 -2.308,8.687 -6.922,12.593 -4.688,3.907 -9.703,5.86 -15.047,5.86 -3.125,0 -5.76,-0.813 -7.906,-2.438 -2.021,-1.76 -3.032,-3.974 -3.032,-6.64 0,-4.49 2.344,-8.688 7.032,-12.594 4.562,-3.906 9.541,-5.86 14.937,-5.86"/>
	<path d="m 794.9658,154.274 c 3.125,0 5.766,0.812 7.922,2.437 2.011,1.761 3.016,3.974 3.016,6.641 0,4.489 -2.307,8.687 -6.922,12.593 -4.687,3.907 -9.703,5.86 -15.047,5.86 -3.125,0 -5.76,-0.813 -7.906,-2.438 -2.021,-1.76 -3.031,-3.974 -3.031,-6.64 0,-4.49 2.343,-8.688 7.031,-12.594 4.562,-3.906 9.542,-5.859 14.937,-5.859"/>
	<path d="m 843.5108,79.269 c 3.125,0 5.765,0.812 7.922,2.437 2.01,1.761 3.015,3.974 3.015,6.641 0,4.49 -2.307,8.688 -6.922,12.594 -4.687,3.906 -9.703,5.859 -15.046,5.859 -3.125,0 -5.761,-0.812 -7.907,-2.437 -2.021,-1.761 -3.031,-3.974 -3.031,-6.641 0,-4.49 2.344,-8.687 7.031,-12.594 4.563,-3.906 9.542,-5.859 14.938,-5.859"/>
	<path d="m 892.0548,129.272 c 3.125,0 5.766,0.813 7.922,2.438 2.01,1.76 3.016,3.974 3.016,6.64 0,4.49 -2.308,8.688 -6.922,12.594 -4.688,3.906 -9.703,5.859 -15.047,5.859 -3.125,0 -5.761,-0.812 -7.906,-2.437 -2.021,-1.761 -3.032,-3.974 -3.032,-6.641 0,-4.489 2.344,-8.687 7.032,-12.594 4.562,-3.906 9.541,-5.859 14.937,-5.859"/>
	<path d="m 940.5988,104.27 c 3.125,0 5.766,0.813 7.922,2.438 2.011,1.76 3.016,3.974 3.016,6.641 0,4.489 -2.307,8.687 -6.922,12.593 -4.688,3.907 -9.703,5.86 -15.047,5.86 -3.125,0 -5.76,-0.813 -7.906,-2.438 -2.021,-1.76 -3.031,-3.974 -3.031,-6.64 0,-4.49 2.343,-8.688 7.031,-12.594 4.562,-3.906 9.542,-5.86 14.937,-5.86"/>
	<path d="m 1037.0168,154.274 c 3.13,0 5.77,0.812 7.92,2.437 2.01,1.761 3.02,3.974 3.02,6.641 0,4.489 -2.31,8.687 -6.92,12.593 -4.69,3.907 -9.71,5.86 -15.05,5.86 -3.12,0 -5.76,-0.813 -7.91,-2.438 -2.02,-1.76 -3.03,-3.974 -3.03,-6.64 0,-4.49 2.35,-8.688 7.03,-12.594 4.57,-3.906 9.55,-5.859 14.94,-5.859"/>
	<path d="m 1037.0168,54.267 c 3.13,0 5.77,0.813 7.92,2.438 2.01,1.76 3.02,3.974 3.02,6.64 0,4.49 -2.31,8.688 -6.92,12.594 -4.69,3.906 -9.71,5.86 -15.05,5.86 -3.12,0 -5.76,-0.813 -7.91,-2.438 -2.02,-1.76 -3.03,-3.974 -3.03,-6.641 0,-4.489 2.35,-8.687 7.03,-12.593 4.57,-3.907 9.55,-5.86 14.94,-5.86"/>
	<path d="m 1114.6868,129.272 c 3.13,0 5.77,0.813 7.93,2.438 2.01,1.76 3.01,3.974 3.01,6.64 0,4.49 -2.31,8.688 -6.92,12.594 -4.69,3.906 -9.7,5.859 -15.05,5.859 -3.12,0 -5.76,-0.812 -7.9,-2.437 -2.02,-1.761 -3.04,-3.974 -3.04,-6.641 0,-4.489 2.35,-8.687 7.04,-12.594 4.56,-3.906 9.54,-5.859 14.93,-5.859"/>
	<path d="m 1163.2368,104.27 c 3.12,0 5.76,0.813 7.92,2.438 2.01,1.76 3.02,3.974 3.02,6.641 0,4.489 -2.31,8.687 -6.93,12.593 -4.68,3.907 -9.7,5.86 -15.04,5.86 -3.13,0 -5.76,-0.813 -7.91,-2.438 -2.02,-1.76 -3.03,-3.974 -3.03,-6.64 0,-4.49 2.34,-8.688 7.03,-12.594 4.56,-3.906 9.54,-5.86 14.94,-5.86"/>
	<path d="m 1211.7768,154.274 c 3.13,0 5.77,0.812 7.92,2.437 2.01,1.761 3.02,3.974 3.02,6.641 0,4.489 -2.31,8.687 -6.92,12.593 -4.69,3.907 -9.71,5.86 -15.05,5.86 -3.12,0 -5.76,-0.813 -7.91,-2.438 -2.02,-1.76 -3.03,-3.974 -3.03,-6.64 0,-4.49 2.35,-8.688 7.03,-12.594 4.57,-3.906 9.55,-5.859 14.94,-5.859"/>
	<path d="m 1260.3268,54.267 c 3.12,0 5.76,0.813 7.92,2.438 2.01,1.76 3.01,3.974 3.01,6.64 0,4.49 -2.3,8.688 -6.92,12.594 -4.69,3.906 -9.7,5.86 -15.05,5.86 -3.12,0 -5.76,-0.813 -7.9,-2.438 -2.02,-1.76 -3.03,-3.974 -3.03,-6.641 0,-4.489 2.34,-8.687 7.03,-12.593 4.56,-3.907 9.54,-5.86 14.94,-5.86"/>
	<path d="m 1308.8668,129.272 c 3.13,0 5.77,0.813 7.92,2.438 2.01,1.76 3.02,3.974 3.02,6.64 0,4.49 -2.31,8.688 -6.92,12.594 -4.69,3.906 -9.71,5.859 -15.05,5.859 -3.13,0 -5.76,-0.812 -7.91,-2.437 -2.02,-1.761 -3.03,-3.974 -3.03,-6.641 0,-4.489 2.35,-8.687 7.03,-12.594 4.57,-3.906 9.54,-5.859 14.94,-5.859"/>
	<path d="m 1357.4068,104.27 c 3.13,0 5.77,0.813 7.93,2.438 2.01,1.76 3.01,3.974 3.01,6.641 0,4.489 -2.3,8.687 -6.92,12.593 -4.69,3.907 -9.7,5.86 -15.05,5.86 -3.12,0 -5.76,-0.813 -7.9,-2.438 -2.02,-1.76 -3.03,-3.974 -3.03,-6.64 0,-4.49 2.34,-8.688 7.03,-12.594 4.56,-3.906 9.54,-5.86 14.93,-5.86"/>
	<path d="m 1453.8268,154.274 c 3.13,0 5.77,0.812 7.93,2.437 2.01,1.761 3.01,3.974 3.01,6.641 0,4.489 -2.3,8.687 -6.92,12.593 -4.69,3.907 -9.7,5.86 -15.05,5.86 -3.12,0 -5.76,-0.813 -7.9,-2.438 -2.02,-1.76 -3.03,-3.974 -3.03,-6.64 0,-4.49 2.34,-8.688 7.03,-12.594 4.56,-3.906 9.54,-5.859 14.93,-5.859"/>
	<path d="m 1453.8268,66.768 c 3.13,0 5.77,0.813 7.93,2.438 2.01,1.76 3.01,3.974 3.01,6.64 0,4.49 -2.3,8.688 -6.92,12.594 -4.69,3.906 -9.7,5.859 -15.05,5.859 -3.12,0 -5.76,-0.812 -7.9,-2.437 -2.02,-1.761 -3.03,-3.974 -3.03,-6.641 0,-4.489 2.34,-8.687 7.03,-12.594 4.56,-3.906 9.54,-5.859 14.93,-5.859"/>
	<path d="m 1531.5068,129.272 c 3.12,0 5.76,0.813 7.92,2.438 2.01,1.76 3.01,3.974 3.01,6.64 0,4.49 -2.3,8.688 -6.92,12.594 -4.69,3.906 -9.7,5.859 -15.05,5.859 -3.12,0 -5.76,-0.812 -7.9,-2.437 -2.02,-1.761 -3.03,-3.974 -3.03,-6.641 0,-4.489 2.34,-8.687 7.03,-12.594 4.56,-3.906 9.54,-5.859 14.94,-5.859"/>
	<path d="m 1580.0468,104.27 c 3.13,0 5.77,0.813 7.92,2.438 2.01,1.76 3.02,3.974 3.02,6.641 0,4.489 -2.31,8.687 -6.92,12.593 -4.69,3.907 -9.71,5.86 -15.05,5.86 -3.13,0 -5.76,-0.813 -7.91,-2.438 -2.02,-1.76 -3.03,-3.974 -3.03,-6.64 0,-4.49 2.35,-8.688 7.03,-12.594 4.57,-3.906 9.54,-5.86 14.94,-5.86"/>
	<path d="m 1628.5868,154.274 c 3.13,0 5.77,0.812 7.93,2.437 2.01,1.761 3.01,3.974 3.01,6.641 0,4.489 -2.31,8.687 -6.92,12.593 -4.69,3.907 -9.7,5.86 -15.05,5.86 -3.12,0 -5.76,-0.813 -7.9,-2.438 -2.02,-1.76 -3.03,-3.974 -3.03,-6.64 0,-4.49 2.34,-8.688 7.03,-12.594 4.56,-3.906 9.54,-5.859 14.93,-5.859"/>
	<path d="m 1677.1368,66.768 c 3.12,0 5.76,0.813 7.92,2.438 2.01,1.76 3.02,3.974 3.02,6.64 0,4.49 -2.31,8.688 -6.93,12.594 -4.68,3.906 -9.7,5.859 -15.04,5.859 -3.13,0 -5.76,-0.812 -7.91,-2.437 -2.02,-1.761 -3.03,-3.974 -3.03,-6.641 0,-4.489 2.34,-8.687 7.03,-12.594 4.56,-3.906 9.54,-5.859 14.94,-5.859"/>
	<path d="m 1725.6768,129.272 c 3.13,0 5.77,0.813 7.92,2.438 2.02,1.76 3.02,3.974 3.02,6.64 0,4.49 -2.31,8.688 -6.92,12.594 -4.69,3.906 -9.7,5.859 -15.05,5.859 -3.12,0 -5.76,-0.812 -7.9,-2.437 -2.03,-1.761 -3.04,-3.974 -3.04,-6.641 0,-4.489 2.35,-8.687 7.04,-12.594 4.56,-3.906 9.54,-5.859 14.93,-5.859"/>
	<path d="m 1774.2268,104.27 c 3.12,0 5.76,0.813 7.92,2.438 2.01,1.76 3.01,3.974 3.01,6.641 0,4.489 -2.3,8.687 -6.92,12.593 -4.68,3.907 -9.7,5.86 -15.04,5.86 -3.13,0 -5.76,-0.813 -7.91,-2.438 -2.02,-1.76 -3.03,-3.974 -3.03,-6.64 0,-4.49 2.34,-8.688 7.03,-12.594 4.56,-3.906 9.54,-5.86 14.94,-5.86"/>
	<path d="m 171.4078,479.294 c 3.125,0 5.766,0.813 7.922,2.438 2.01,1.76 3.016,3.974 3.016,6.64 0,4.49 -2.308,8.688 -6.922,12.594 -4.688,3.906 -9.703,5.859 -15.047,5.859 -3.125,0 -5.761,-0.812 -7.906,-2.437 -2.021,-1.761 -3.032,-3.974 -3.032,-6.641 0,-4.489 2.344,-8.687 7.032,-12.594 4.562,-3.906 9.541,-5.859 14.937,-5.859"/>
	<path d="m 171.4078,379.288 c 3.125,0 5.766,0.812 7.922,2.437 2.01,1.761 3.016,3.974 3.016,6.641 0,4.49 -2.308,8.687 -6.922,12.594 -4.688,3.906 -9.703,5.859 -15.047,5.859 -3.125,0 -5.761,-0.812 -7.906,-2.437 -2.021,-1.761 -3.032,-3.974 -3.032,-6.641 0,-4.49 2.344,-8.688 7.032,-12.594 4.562,-3.906 9.541,-5.859 14.937,-5.859"/>
	<path d="m 249.8508,429.291 c 3.125,0 5.765,0.812 7.922,2.437 2.01,1.761 3.015,3.974 3.015,6.641 0,4.49 -2.307,8.688 -6.922,12.594 -4.687,3.906 -9.703,5.859 -15.046,5.859 -3.125,0 -5.761,-0.812 -7.907,-2.437 -2.021,-1.761 -3.031,-3.974 -3.031,-6.641 0,-4.49 2.344,-8.687 7.031,-12.594 4.563,-3.906 9.542,-5.859 14.938,-5.859"/>
	<path d="m 298.8768,391.789 c 3.125,0 5.766,0.812 7.922,2.437 2.011,1.76 3.016,3.974 3.016,6.641 0,4.489 -2.307,8.687 -6.922,12.593 -4.687,3.907 -9.703,5.86 -15.047,5.86 -3.125,0 -5.76,-0.813 -7.906,-2.438 -2.021,-1.76 -3.031,-3.974 -3.031,-6.64 0,-4.49 2.343,-8.688 7.031,-12.594 4.562,-3.906 9.542,-5.859 14.937,-5.859"/>
	<path d="m 347.9038,479.294 c 3.125,0 5.766,0.813 7.922,2.438 2.01,1.76 3.016,3.974 3.016,6.64 0,4.49 -2.308,8.688 -6.922,12.594 -4.688,3.906 -9.703,5.859 -15.047,5.859 -3.125,0 -5.761,-0.812 -7.906,-2.437 -2.021,-1.761 -3.032,-3.974 -3.032,-6.641 0,-4.489 2.344,-8.687 7.032,-12.594 4.562,-3.906 9.541,-5.859 14.937,-5.859"/>
	<path d="m 396.9308,379.288 c 3.125,0 5.765,0.812 7.922,2.437 2.01,1.761 3.015,3.974 3.015,6.641 0,4.49 -2.307,8.687 -6.922,12.594 -4.687,3.906 -9.703,5.859 -15.046,5.859 -3.125,0 -5.761,-0.812 -7.907,-2.437 -2.02,-1.761 -3.031,-3.974 -3.031,-6.641 0,-4.49 2.344,-8.688 7.031,-12.594 4.563,-3.906 9.542,-5.859 14.938,-5.859"/>
	<path d="m 445.9578,429.291 c 3.125,0 5.765,0.812 7.921,2.437 2.011,1.761 3.016,3.974 3.016,6.641 0,4.49 -2.307,8.688 -6.922,12.594 -4.687,3.906 -9.703,5.859 -15.047,5.859 -3.125,0 -5.76,-0.812 -7.906,-2.437 -2.021,-1.761 -3.031,-3.974 -3.031,-6.641 0,-4.49 2.344,-8.687 7.031,-12.594 4.563,-3.906 9.542,-5.859 14.938,-5.859"/>
	<path d="m 494.9838,391.789 c 3.125,0 5.766,0.812 7.922,2.437 2.011,1.76 3.016,3.974 3.016,6.641 0,4.489 -2.308,8.687 -6.922,12.593 -4.688,3.907 -9.703,5.86 -15.047,5.86 -3.125,0 -5.76,-0.813 -7.906,-2.438 -2.021,-1.76 -3.032,-3.974 -3.032,-6.64 0,-4.49 2.344,-8.688 7.032,-12.594 4.562,-3.906 9.541,-5.859 14.937,-5.859"/>
	<path d="m 591.4038,479.294 c 3.125,0 5.766,0.813 7.922,2.438 2.011,1.76 3.016,3.974 3.016,6.64 0,4.49 -2.307,8.688 -6.922,12.594 -4.688,3.906 -9.703,5.859 -15.047,5.859 -3.125,0 -5.76,-0.812 -7.906,-2.437 -2.021,-1.761 -3.031,-3.974 -3.031,-6.641 0,-4.489 2.343,-8.687 7.031,-12.594 4.562,-3.906 9.542,-5.859 14.937,-5.859"/>
	<path d="m 591.4038,354.286 c 3.125,0 5.766,0.813 7.922,2.438 2.011,1.76 3.016,3.974 3.016,6.64 0,4.49 -2.307,8.688 -6.922,12.594 -4.688,3.906 -9.703,5.859 -15.047,5.859 -3.125,0 -5.76,-0.812 -7.906,-2.437 -2.021,-1.76 -3.031,-3.974 -3.031,-6.641 0,-4.489 2.343,-8.687 7.031,-12.593 4.562,-3.907 9.542,-5.86 14.937,-5.86"/>
	<path d="m 669.8468,429.291 c 3.125,0 5.766,0.812 7.922,2.437 2.01,1.761 3.016,3.974 3.016,6.641 0,4.49 -2.308,8.688 -6.922,12.594 -4.688,3.906 -9.703,5.859 -15.047,5.859 -3.125,0 -5.761,-0.812 -7.906,-2.437 -2.021,-1.761 -3.032,-3.974 -3.032,-6.641 0,-4.49 2.344,-8.687 7.032,-12.594 4.562,-3.906 9.541,-5.859 14.937,-5.859"/>
	<path d="m 718.8738,391.789 c 3.125,0 5.765,0.812 7.922,2.437 2.01,1.76 3.015,3.974 3.015,6.641 0,4.489 -2.307,8.687 -6.922,12.593 -4.687,3.907 -9.703,5.86 -15.047,5.86 -3.125,0 -5.76,-0.813 -7.906,-2.438 -2.021,-1.76 -3.031,-3.974 -3.031,-6.64 0,-4.49 2.344,-8.688 7.031,-12.594 4.563,-3.906 9.542,-5.859 14.938,-5.859"/>
	<path d="m 767.8998,479.294 c 3.125,0 5.766,0.813 7.922,2.438 2.011,1.76 3.016,3.974 3.016,6.64 0,4.49 -2.307,8.688 -6.922,12.594 -4.687,3.906 -9.703,5.859 -15.047,5.859 -3.125,0 -5.76,-0.812 -7.906,-2.437 -2.021,-1.761 -3.031,-3.974 -3.031,-6.641 0,-4.489 2.343,-8.687 7.031,-12.594 4.562,-3.906 9.542,-5.859 14.937,-5.859"/>
	<path d="m 816.9268,354.286 c 3.125,0 5.766,0.813 7.922,2.438 2.01,1.76 3.016,3.974 3.016,6.64 0,4.49 -2.308,8.688 -6.922,12.594 -4.688,3.906 -9.703,5.859 -15.047,5.859 -3.125,0 -5.761,-0.812 -7.906,-2.437 -2.021,-1.76 -3.032,-3.974 -3.032,-6.641 0,-4.489 2.344,-8.687 7.032,-12.593 4.562,-3.907 9.541,-5.86 14.937,-5.86"/>
	<path d="m 865.9538,429.291 c 3.125,0 5.765,0.812 7.922,2.437 2.01,1.761 3.015,3.974 3.015,6.641 0,4.49 -2.307,8.688 -6.922,12.594 -4.687,3.906 -9.703,5.859 -15.046,5.859 -3.125,0 -5.761,-0.812 -7.907,-2.437 -2.021,-1.761 -3.031,-3.974 -3.031,-6.641 0,-4.49 2.344,-8.687 7.031,-12.594 4.563,-3.906 9.542,-5.859 14.938,-5.859"/>
	<path d="m 914.9798,391.789 c 3.125,0 5.766,0.812 7.922,2.437 2.011,1.76 3.016,3.974 3.016,6.641 0,4.489 -2.307,8.687 -6.922,12.593 -4.687,3.907 -9.703,5.86 -15.047,5.86 -3.125,0 -5.76,-0.813 -7.906,-2.438 -2.021,-1.76 -3.031,-3.974 -3.031,-6.64 0,-4.49 2.343,-8.688 7.031,-12.594 4.562,-3.906 9.542,-5.859 14.937,-5.859"/>
	<path d="m 1011.3968,479.294 c 3.13,0 5.77,0.813 7.93,2.438 2.01,1.76 3.01,3.974 3.01,6.64 0,4.49 -2.31,8.688 -6.92,12.594 -4.69,3.906 -9.7,5.859 -15.05,5.859 -3.12,0 -5.76,-0.812 -7.9,-2.437 -2.02,-1.761 -3.04,-3.974 -3.04,-6.641 0,-4.489 2.35,-8.687 7.04,-12.594 4.56,-3.906 9.54,-5.859 14.93,-5.859"/>
	<path d="m 1011.3968,366.787 c 3.13,0 5.77,0.813 7.93,2.438 2.01,1.76 3.01,3.973 3.01,6.64 0,4.49 -2.31,8.688 -6.92,12.594 -4.69,3.906 -9.7,5.859 -15.05,5.859 -3.12,0 -5.76,-0.812 -7.9,-2.437 -2.02,-1.761 -3.04,-3.974 -3.04,-6.641 0,-4.489 2.35,-8.687 7.04,-12.594 4.56,-3.906 9.54,-5.859 14.93,-5.859"/>
	<path d="m 1089.8468,429.291 c 3.12,0 5.76,0.812 7.92,2.437 2.01,1.761 3.01,3.974 3.01,6.641 0,4.49 -2.3,8.688 -6.92,12.594 -4.69,3.906 -9.7,5.859 -15.04,5.859 -3.13,0 -5.77,-0.812 -7.91,-2.437 -2.02,-1.761 -3.03,-3.974 -3.03,-6.641 0,-4.49 2.34,-8.687 7.03,-12.594 4.56,-3.906 9.54,-5.859 14.94,-5.859"/>
	<path d="m 1138.8668,391.789 c 3.13,0 5.77,0.812 7.92,2.437 2.02,1.76 3.02,3.974 3.02,6.641 0,4.489 -2.31,8.687 -6.92,12.593 -4.69,3.907 -9.7,5.86 -15.05,5.86 -3.12,0 -5.76,-0.813 -7.9,-2.438 -2.03,-1.76 -3.04,-3.974 -3.04,-6.64 0,-4.49 2.35,-8.688 7.04,-12.594 4.56,-3.906 9.54,-5.859 14.93,-5.859"/>
	<path d="m 1187.8968,479.294 c 3.12,0 5.77,0.813 7.92,2.438 2.01,1.76 3.02,3.974 3.02,6.64 0,4.49 -2.31,8.688 -6.92,12.594 -4.69,3.906 -9.71,5.859 -15.05,5.859 -3.13,0 -5.76,-0.812 -7.91,-2.437 -2.02,-1.761 -3.03,-3.974 -3.03,-6.641 0,-4.489 2.34,-8.687 7.03,-12.594 4.56,-3.906 9.54,-5.859 14.94,-5.859"/>
	<path d="m 1236.9268,366.787 c 3.12,0 5.76,0.813 7.92,2.438 2.01,1.76 3.01,3.973 3.01,6.64 0,4.49 -2.3,8.688 -6.92,12.594 -4.69,3.906 -9.7,5.859 -15.04,5.859 -3.13,0 -5.77,-0.812 -7.91,-2.437 -2.02,-1.761 -3.03,-3.974 -3.03,-6.641 0,-4.489 2.34,-8.687 7.03,-12.594 4.56,-3.906 9.54,-5.859 14.94,-5.859"/>
	<path d="m 1285.9468,429.291 c 3.13,0 5.77,0.812 7.92,2.437 2.02,1.761 3.02,3.974 3.02,6.641 0,4.49 -2.31,8.688 -6.92,12.594 -4.69,3.906 -9.7,5.859 -15.05,5.859 -3.12,0 -5.76,-0.812 -7.9,-2.437 -2.03,-1.761 -3.04,-3.974 -3.04,-6.641 0,-4.49 2.35,-8.687 7.04,-12.594 4.56,-3.906 9.54,-5.859 14.93,-5.859"/>
	<path d="m 1334.9768,391.789 c 3.12,0 5.77,0.812 7.92,2.437 2.01,1.76 3.02,3.974 3.02,6.641 0,4.489 -2.31,8.687 -6.92,12.593 -4.69,3.907 -9.71,5.86 -15.05,5.86 -3.13,0 -5.76,-0.813 -7.91,-2.438 -2.02,-1.76 -3.03,-3.974 -3.03,-6.64 0,-4.49 2.34,-8.688 7.03,-12.594 4.56,-3.906 9.54,-5.859 14.94,-5.859"/>
	<path d="m 1428.1468,479.294 c 3.12,0 5.77,0.813 7.92,2.438 2.01,1.76 3.02,3.974 3.02,6.64 0,4.49 -2.31,8.688 -6.92,12.594 -4.69,3.906 -9.71,5.859 -15.05,5.859 -3.13,0 -5.76,-0.812 -7.91,-2.437 -2.02,-1.761 -3.03,-3.974 -3.03,-6.641 0,-4.489 2.34,-8.687 7.03,-12.594 4.56,-3.906 9.54,-5.859 14.94,-5.859"/>
	<path d="m 1428.1468,379.288 c 3.12,0 5.77,0.812 7.92,2.437 2.01,1.761 3.02,3.974 3.02,6.641 0,4.49 -2.31,8.687 -6.92,12.594 -4.69,3.906 -9.71,5.859 -15.05,5.859 -3.13,0 -5.76,-0.812 -7.91,-2.437 -2.02,-1.761 -3.03,-3.974 -3.03,-6.641 0,-4.49 2.34,-8.688 7.03,-12.594 4.56,-3.906 9.54,-5.859 14.94,-5.859"/>
	<path d="m 1506.5868,429.291 c 3.13,0 5.77,0.812 7.92,2.437 2.01,1.761 3.02,3.974 3.02,6.641 0,4.49 -2.31,8.688 -6.92,12.594 -4.69,3.906 -9.71,5.859 -15.05,5.859 -3.12,0 -5.76,-0.812 -7.91,-2.437 -2.02,-1.761 -3.03,-3.974 -3.03,-6.641 0,-4.49 2.35,-8.687 7.03,-12.594 4.57,-3.906 9.55,-5.859 14.94,-5.859"/>
	<path d="m 1555.6168,391.789 c 3.12,0 5.76,0.812 7.92,2.437 2.01,1.76 3.02,3.974 3.02,6.641 0,4.489 -2.31,8.687 -6.93,12.593 -4.68,3.907 -9.7,5.86 -15.04,5.86 -3.13,0 -5.76,-0.813 -7.91,-2.438 -2.02,-1.76 -3.03,-3.974 -3.03,-6.64 0,-4.49 2.34,-8.688 7.03,-12.594 4.56,-3.906 9.54,-5.859 14.94,-5.859"/>
	<path d="m 1604.6468,479.294 c 3.12,0 5.76,0.813 7.92,2.438 2.01,1.76 3.01,3.974 3.01,6.64 0,4.49 -2.3,8.688 -6.92,12.594 -4.69,3.906 -9.7,5.859 -15.05,5.859 -3.12,0 -5.76,-0.812 -7.9,-2.437 -2.02,-1.761 -3.03,-3.974 -3.03,-6.641 0,-4.489 2.34,-8.687 7.03,-12.594 4.56,-3.906 9.54,-5.859 14.94,-5.859"/>
	<path d="m 1653.6668,379.288 c 3.13,0 5.77,0.812 7.92,2.437 2.01,1.761 3.02,3.974 3.02,6.641 0,4.49 -2.31,8.687 -6.92,12.594 -4.69,3.906 -9.71,5.859 -15.05,5.859 -3.12,0 -5.76,-0.812 -7.91,-2.437 -2.02,-1.761 -3.03,-3.974 -3.03,-6.641 0,-4.49 2.35,-8.688 7.03,-12.594 4.57,-3.906 9.55,-5.859 14.94,-5.859"/>
	<path d="m 1702.6968,429.291 c 3.12,0 5.76,0.812 7.92,2.437 2.01,1.761 3.02,3.974 3.02,6.641 0,4.49 -2.31,8.688 -6.93,12.594 -4.68,3.906 -9.7,5.859 -15.04,5.859 -3.13,0 -5.76,-0.812 -7.91,-2.437 -2.02,-1.761 -3.03,-3.974 -3.03,-6.641 0,-4.49 2.34,-8.687 7.03,-12.594 4.56,-3.906 9.54,-5.859 14.94,-5.859"/>
	<path d="m 1751.7268,391.789 c 3.12,0 5.76,0.812 7.92,2.437 2.01,1.76 3.01,3.974 3.01,6.641 0,4.489 -2.3,8.687 -6.92,12.593 -4.69,3.907 -9.7,5.86 -15.05,5.86 -3.12,0 -5.76,-0.813 -7.9,-2.438 -2.02,-1.76 -3.03,-3.974 -3.03,-6.64 0,-4.49 2.34,-8.688 7.03,-12.594 4.56,-3.906 9.54,-5.859 14.94,-5.859"/>
	<path d="m 78.4076,121.646 c -0.9739,-0.979 -1.4609,-2.185 -1.4609,-3.617 0,-1.432 0.487,-2.635 1.4609,-3.609 0.974,-0.974 2.1771,-1.461 3.6094,-1.461 1.4323,0 2.638,0.487 3.6172,1.461 0.9796,0.974 1.4686,2.177 1.4686,3.609 0,1.432 -0.489,2.638 -1.4686,3.617 -0.9792,0.979 -2.1849,1.469 -3.6172,1.469 -1.4323,0 -2.6354,-0.49 -3.6094,-1.469 m 0,25.008 c -0.9739,-0.974 -1.4609,-2.177 -1.4609,-3.609 0,-1.433 0.487,-2.638 1.4609,-3.617 0.974,-0.98 2.1771,-1.469 3.6094,-1.469 1.4323,0 2.638,0.489 3.6172,1.469 0.9796,0.979 1.4686,2.184 1.4686,3.617 0,1.432 -0.489,2.635 -1.4686,3.609 -0.9792,0.974 -2.1849,1.461 -3.6172,1.461 -1.4323,0 -2.6354,-0.487 -3.6094,-1.461 M 44.5248,104.271 c 8.6563,0 15.75,2.177 21.2813,6.532 5.3437,4.562 8.0156,10.75 8.0156,18.562 0,5.271 -1.0417,10.089 -3.125,14.453 -1.9584,4.563 -4.5313,8.599 -7.7188,12.11 -3.2604,3.583 -7.1979,6.968 -11.8125,10.156 -4.5,3.125 -9.125,5.927 -13.875,8.406 -9.6979,4.875 -15.0364,7.313 -16.0156,7.313 -0.8437,0 -1.2656,-0.422 -1.2656,-1.266 0,-0.323 0.1302,-0.615 0.3906,-0.875 3.3229,-1.958 7.3906,-4.464 12.2031,-7.516 3.125,-2.021 6.7709,-4.823 10.9375,-8.406 4.0417,-3.385 7.1667,-6.573 9.375,-9.562 2.2813,-2.938 4.3646,-6.584 6.25,-10.938 1.625,-4.365 2.4375,-8.667 2.4375,-12.906 0,-6.313 -1.5625,-11.813 -4.6875,-16.5 -3.125,-4.688 -7.2552,-7.031 -12.3906,-7.031 -3.6458,0 -6.7708,1.171 -9.375,3.515 -2.8021,2.406 -4.8229,5.432 -6.0625,9.078 1.2396,-0.521 2.3802,-0.781 3.4219,-0.781 2.7291,0 5.0729,0.979 7.0312,2.938 1.9479,2.083 2.9219,4.458 2.9219,7.125 0,2.802 -0.9427,5.312 -2.8281,7.531 -2.0209,2.01 -4.3959,3.015 -7.125,3.015 -2.9271,0 -5.5625,-1.005 -7.9063,-3.015 -2.2187,-2.219 -3.3281,-4.729 -3.3281,-7.531 0,-6.709 2.2813,-12.438 6.8438,-17.188 4.4895,-4.812 9.9583,-7.219 16.4062,-7.219"/>
	<path d="m 78.4076,421.665 c -0.9739,-0.979 -1.4609,-2.185 -1.4609,-3.617 0,-1.432 0.487,-2.635 1.4609,-3.609 0.974,-0.974 2.1771,-1.461 3.6094,-1.461 1.4323,0 2.638,0.487 3.6172,1.461 0.9796,0.974 1.4686,2.177 1.4686,3.609 0,1.432 -0.489,2.638 -1.4686,3.617 -0.9792,0.979 -2.1849,1.469 -3.6172,1.469 -1.4323,0 -2.6354,-0.49 -3.6094,-1.469 m 0,25.008 c -0.9739,-0.974 -1.4609,-2.177 -1.4609,-3.609 0,-1.433 0.487,-2.638 1.4609,-3.618 0.974,-0.979 2.1771,-1.468 3.6094,-1.468 1.4323,0 2.638,0.489 3.6172,1.468 0.9796,0.98 1.4686,2.185 1.4686,3.618 0,1.432 -0.489,2.635 -1.4686,3.609 -0.9792,0.974 -2.1849,1.461 -3.6172,1.461 -1.4323,0 -2.6354,-0.487 -3.6094,-1.461 M 44.5248,404.29 c 8.6563,0 15.75,2.177 21.2813,6.531 5.3437,4.563 8.0156,10.75 8.0156,18.563 0,5.271 -1.0417,10.088 -3.125,14.453 -1.9584,4.563 -4.5313,8.599 -7.7188,12.109 -3.2604,3.584 -7.1979,6.969 -11.8125,10.157 -4.5,3.125 -9.125,5.927 -13.875,8.406 -9.6979,4.875 -15.0364,7.312 -16.0156,7.312 -0.8437,0 -1.2656,-0.421 -1.2656,-1.265 0,-0.323 0.1302,-0.615 0.3906,-0.875 3.3229,-1.959 7.3906,-4.464 12.2031,-7.516 3.125,-2.021 6.7709,-4.823 10.9375,-8.406 4.0417,-3.386 7.1667,-6.573 9.375,-9.563 2.2813,-2.937 4.3646,-6.583 6.25,-10.937 1.625,-4.365 2.4375,-8.667 2.4375,-12.906 0,-6.313 -1.5625,-11.813 -4.6875,-16.5 -3.125,-4.688 -7.2552,-7.032 -12.3906,-7.032 -3.6458,0 -6.7708,1.172 -9.375,3.516 -2.8021,2.406 -4.8229,5.432 -6.0625,9.078 1.2396,-0.521 2.3802,-0.781 3.4219,-0.781 2.7291,0 5.0729,0.979 7.0312,2.937 1.9479,2.084 2.9219,4.459 2.9219,7.125 0,2.802 -0.9427,5.313 -2.8281,7.532 -2.0209,2.01 -4.3959,3.015 -7.125,3.015 -2.9271,0 -5.5625,-1.005 -7.9063,-3.015 -2.2187,-2.219 -3.3281,-4.73 -3.3281,-7.532 0,-6.708 2.2813,-12.437 6.8438,-17.187 4.4895,-4.813 9.9583,-7.219 16.4062,-7.219"/>
	<path d="m 134.7338,106.717 c 1.948,0 3.607,-0.227 4.976,-0.68 1.37,-0.453 2.248,-0.68 2.633,-0.68 0.459,0 0.818,0.13 1.078,0.391 0.198,0.187 0.328,0.411 0.391,0.672 0,0.135 -0.068,0.333 -0.203,0.593 l -28.406,33.016 h 16.687 v -13.094 c 0,-0.843 0.229,-1.562 0.688,-2.156 0.781,-0.646 1.432,-1.036 1.953,-1.172 0.843,-0.385 1.885,-1.297 3.125,-2.734 1.041,-1.167 2.281,-3.214 3.718,-6.141 0.188,-0.396 0.48,-0.594 0.875,-0.594 0.782,0 1.235,0.459 1.36,1.375 v 24.516 h 7.14 c 0.907,0 1.428,0.484 1.563,1.453 0,0.979 -0.521,1.469 -1.563,1.469 h -7.14 v 0.781 c 0,2.604 0.651,4.818 1.953,6.641 1.5,1.823 3.26,2.734 5.281,2.734 0.781,0 1.172,0.391 1.172,1.172 0,0.781 -0.391,1.172 -1.172,1.172 -1.364,0 -3.578,-0.193 -6.64,-0.578 -2.802,-0.459 -4.985,-0.688 -6.547,-0.688 -1.625,0 -3.808,0.229 -6.547,0.688 -2.927,0.385 -5.104,0.578 -6.531,0.578 -0.782,0 -1.172,-0.391 -1.172,-1.172 0,-0.781 0.39,-1.172 1.172,-1.172 2.01,0 3.765,-0.911 5.265,-2.734 1.365,-1.886 2.047,-4.099 2.047,-6.641 v -0.781 h -16.687 c -1.115,0 -1.896,-0.26 -2.344,-0.781 -0.531,-0.386 -0.797,-0.907 -0.797,-1.563 0,-0.198 0.49,-0.88 1.469,-2.047 1.114,-1.302 2.286,-2.896 3.515,-4.781 1.438,-2.219 2.808,-4.5 4.11,-6.844 1.427,-2.666 2.567,-5.729 3.422,-9.187 0.968,-3.511 1.453,-7.089 1.453,-10.735 0,-1.041 0.458,-1.562 1.375,-1.562 0.198,0 0.62,0.099 1.265,0.297 0.198,0.062 0.607,0.159 1.227,0.289 0.62,0.13 1.122,0.258 1.508,0.383 1.177,0.198 2.286,0.297 3.328,0.297"/>
	<path d="m 134.7338,156.892 c 1.948,0 3.607,-0.227 4.976,-0.68 1.37,-0.453 2.248,-0.68 2.633,-0.68 0.459,0 0.818,0.13 1.078,0.391 0.198,0.187 0.328,0.411 0.391,0.672 0,0.135 -0.068,0.333 -0.203,0.593 l -28.406,33.016 h 16.687 V 177.11 c 0,-0.843 0.229,-1.562 0.688,-2.156 0.781,-0.646 1.432,-1.036 1.953,-1.172 0.843,-0.385 1.885,-1.297 3.125,-2.734 1.041,-1.167 2.281,-3.214 3.718,-6.141 0.188,-0.396 0.48,-0.594 0.875,-0.594 0.782,0 1.235,0.459 1.36,1.375 v 24.516 h 7.14 c 0.907,0 1.428,0.484 1.563,1.453 0,0.979 -0.521,1.469 -1.563,1.469 h -7.14 v 0.781 c 0,2.604 0.651,4.818 1.953,6.641 1.5,1.823 3.26,2.734 5.281,2.734 0.781,0 1.172,0.391 1.172,1.172 0,0.781 -0.391,1.172 -1.172,1.172 -1.364,0 -3.578,-0.193 -6.64,-0.578 -2.802,-0.458 -4.985,-0.688 -6.547,-0.688 -1.625,0 -3.808,0.23 -6.547,0.688 -2.927,0.385 -5.104,0.578 -6.531,0.578 -0.782,0 -1.172,-0.391 -1.172,-1.172 0,-0.781 0.39,-1.172 1.172,-1.172 2.01,0 3.765,-0.911 5.265,-2.734 1.365,-1.886 2.047,-4.099 2.047,-6.641 v -0.781 h -16.687 c -1.115,0 -1.896,-0.26 -2.344,-0.781 -0.531,-0.386 -0.797,-0.907 -0.797,-1.563 0,-0.198 0.49,-0.88 1.469,-2.047 1.114,-1.302 2.286,-2.895 3.515,-4.781 1.438,-2.219 2.808,-4.5 4.11,-6.844 1.427,-2.666 2.567,-5.729 3.422,-9.187 0.968,-3.511 1.453,-7.089 1.453,-10.735 0,-1.041 0.458,-1.562 1.375,-1.562 0.198,0 0.62,0.099 1.265,0.297 0.198,0.062 0.607,0.159 1.227,0.289 0.62,0.13 1.122,0.258 1.508,0.383 1.177,0.198 2.286,0.297 3.328,0.297"/>
	<path d="M 264.3468,205.338 316.1408,192 v 12.909 l -51.794,13.337 v -12.908" style="fill-rule:evenodd"/>
	<path d="m 361.4348,230.401 148.884,-31.95 v 12.786 l -148.884,31.949 v -12.785" style="fill-rule:evenodd"/>
	<path d="M 675.9088,205.338 727.7038,192 v 12.909 l -51.795,13.337 v -12.908" style="fill-rule:evenodd"/>
	<path d="m 772.9978,230.401 148.883,-31.95 v 12.786 l -148.883,31.949 v -12.785" style="fill-rule:evenodd"/>
	<path d="m 1092.7168,205.338 51.8,-13.338 v 12.909 l -51.8,13.337 v -12.908" style="fill-rule:evenodd"/>
	<path d="m 1189.8068,230.401 148.89,-31.95 v 12.786 l -148.89,31.949 v -12.785" style="fill-rule:evenodd"/>
	<path d="m 1509.5368,205.338 51.79,-13.338 v 12.909 l -51.79,13.337 v -12.908" style="fill-rule:evenodd"/>
	<path d="m 1606.6268,230.401 148.88,-31.95 v 12.786 l -148.88,31.949 v -12.785" style="fill-rule:evenodd"/>
	<path d="m 227.8818,504.795 52.277,-26.659 v 14.032 l -52.277,26.659 v -14.032" style="fill-rule:evenodd"/>
	<path d="m 325.9348,555.364 150.331,-38.331 v 12.9 l -150.331,38.331 v -12.9" style="fill-rule:evenodd"/>
	<path d="m 647.8778,504.795 52.277,-26.659 v 14.032 l -52.277,26.659 v -14.032" style="fill-rule:evenodd"/>
	<path d="m 745.9318,555.364 150.33,-38.331 v 12.9 l -150.33,38.331 v -12.9" style="fill-rule:evenodd"/>
	<path d="m 1067.8768,504.795 52.27,-26.659 v 14.032 l -52.27,26.659 v -14.032" style="fill-rule:evenodd"/>
	<path d="m 1165.9268,555.364 150.33,-38.331 v 12.9 l -150.33,38.331 v -12.9" style="fill-rule:evenodd"/>
	<path d="m 1484.6168,504.795 52.28,-26.659 v 14.032 l -52.28,26.659 v -14.032" style="fill-rule:evenodd"/>
	<path d="m 1582.6768,555.364 150.33,-38.331 v 12.9 l -150.33,38.331 v -12.9" style="fill-rule:evenodd"/>
	<path d="m 188.7698,21.985 c 0,-6.208 1.922,-11.25 5.765,-15.125 3.844,-3.875 8.625,-5.812 14.344,-5.812 2.552,0 4.951,0.312 7.195,0.937 2.245,0.625 3.545,0.938 3.899,0.938 1.323,0 2.161,-0.625 2.516,-1.875 h 1.265 l 0.547,13.437 h -1.391 c -2.197,-7.437 -6.494,-11.156 -12.89,-11.156 -4.365,0 -7.836,1.62 -10.414,4.859 -2.578,3.24 -3.867,7.578 -3.867,13.016 0,3.479 0.45,6.49 1.351,9.031 0.901,2.542 2.109,4.461 3.625,5.758 1.516,1.297 3.083,2.237 4.703,2.82 1.62,0.584 3.352,0.875 5.196,0.875 4.718,0 9.177,-2.02 13.375,-6.062 l 1.093,1.078 c -1.843,2.437 -4.185,4.318 -7.023,5.641 -2.839,1.323 -5.961,1.984 -9.367,1.984 -5.917,0 -10.716,-1.859 -14.399,-5.578 -3.682,-3.719 -5.523,-8.641 -5.523,-14.766"/>
	<path d="m 230.1448,17.72 v -1.016 c 2.875,-0.833 5.672,-1.771 8.39,-2.813 l 0.422,0.125 v 4.61 c 2.479,-1.927 4.321,-3.198 5.524,-3.813 1.203,-0.614 2.466,-0.922 3.789,-0.922 3.156,0 5.276,1.714 6.359,5.141 3.115,-3.427 6.37,-5.141 9.766,-5.141 4.646,0 6.969,3.589 6.969,10.766 v 12.281 c 0,2.23 0.859,3.407 2.578,3.532 l 1.562,0.109 v 0.906 h -13.14 v -0.906 c 1.76,-0.198 2.859,-0.534 3.296,-1.008 0.438,-0.474 0.657,-1.57 0.657,-3.289 V 23.688 c 0,-2.468 -0.321,-4.179 -0.961,-5.132 -0.641,-0.954 -1.821,-1.43 -3.539,-1.43 -2.636,0 -4.813,1.213 -6.532,3.64 v 15.047 c 0,1.865 0.289,3.118 0.868,3.758 0.578,0.641 1.726,0.977 3.445,1.008 v 0.906 h -13.438 v -0.906 c 1.719,-0.115 2.829,-0.43 3.329,-0.945 0.5,-0.516 0.75,-1.612 0.75,-3.289 V 23.391 c 0,-4.177 -1.318,-6.265 -3.954,-6.265 -1.125,0 -2.377,0.278 -3.757,0.836 -1.381,0.557 -2.487,1.456 -3.321,2.695 v 16.828 c 0,1.156 0.279,1.943 0.836,2.36 0.558,0.416 1.638,0.661 3.242,0.734 v 0.906 h -13.328 v -0.906 c 1.688,-0.031 2.81,-0.326 3.367,-0.883 0.558,-0.557 0.836,-1.653 0.836,-3.289 V 21.313 c 0,-1.437 -0.148,-2.435 -0.445,-2.992 -0.297,-0.557 -0.846,-0.836 -1.648,-0.836 -0.604,0 -1.245,0.078 -1.922,0.235 m 47.453,17.843 c 0,-0.718 0.081,-1.385 0.242,-2 0.162,-0.614 0.443,-1.192 0.844,-1.734 0.401,-0.542 0.781,-1.031 1.14,-1.469 0.36,-0.437 0.899,-0.883 1.618,-1.336 0.718,-0.453 1.317,-0.83 1.797,-1.133 0.479,-0.302 1.208,-0.661 2.187,-1.078 0.979,-0.416 1.729,-0.734 2.25,-0.953 0.521,-0.219 1.341,-0.547 2.461,-0.984 1.12,-0.438 1.94,-0.755 2.461,-0.953 v -3.641 c 0,-3.302 -1.521,-4.953 -4.563,-4.953 -1.197,0 -2.216,0.289 -3.054,0.867 -0.839,0.578 -1.258,1.268 -1.258,2.07 0,0.323 0.049,0.763 0.148,1.321 0.099,0.557 0.149,0.919 0.149,1.086 0,0.677 -0.271,1.265 -0.813,1.765 -0.541,0.5 -1.172,0.75 -1.89,0.75 -0.677,0 -1.276,-0.26 -1.797,-0.781 -0.521,-0.521 -0.781,-1.12 -0.781,-1.797 0,-1.885 0.968,-3.476 2.906,-4.773 1.937,-1.297 4.328,-1.946 7.172,-1.946 3.281,0 5.541,0.787 6.781,2.36 1.24,1.573 1.859,3.969 1.859,7.187 v 11.641 c 0,1.312 0.131,2.219 0.391,2.719 0.26,0.5 0.729,0.75 1.406,0.75 0.844,0 1.724,-0.38 2.641,-1.141 v 1.578 c -1.042,1.198 -1.951,2.013 -2.727,2.446 -0.776,0.432 -1.664,0.648 -2.664,0.648 -1.239,0 -2.151,-0.349 -2.734,-1.047 -0.584,-0.698 -0.953,-1.844 -1.11,-3.437 -3.437,2.989 -6.359,4.484 -8.765,4.484 -1.834,0 -3.341,-0.609 -4.524,-1.828 -1.182,-1.219 -1.773,-2.781 -1.773,-4.688 m 15,-1.547 V 25.36 c -3.604,1.313 -6.125,2.584 -7.563,3.813 -1.437,1.229 -2.156,2.724 -2.156,4.484 0,1.625 0.399,2.836 1.195,3.633 0.797,0.797 1.659,1.195 2.586,1.195 1.355,0 2.813,-0.458 4.375,-1.375 0.646,-0.354 1.068,-0.732 1.266,-1.133 0.198,-0.401 0.297,-1.054 0.297,-1.961 m 18.406,-16.109 c 0,0 -0.896,0.057 -2.687,0.172 v -0.953 c 3.198,-1 6.317,-2.078 9.359,-3.235 l 0.297,0.172 v 27.422 c 0,4.24 -0.859,7.479 -2.578,9.719 -1.719,2.24 -4.24,3.359 -7.563,3.359 -1.635,0 -2.984,-0.31 -4.047,-0.929 -1.062,-0.62 -1.593,-1.409 -1.593,-2.368 0,-0.645 0.239,-1.197 0.718,-1.656 0.48,-0.458 1.058,-0.687 1.735,-0.687 0.844,0 1.765,0.601 2.765,1.804 1,1.204 1.881,1.805 2.641,1.805 1.198,0 1.977,-0.622 2.336,-1.867 0.359,-1.245 0.539,-3.404 0.539,-6.477 v -22.75 c 0,-1.27 -0.148,-2.177 -0.445,-2.718 -0.297,-0.542 -0.789,-0.813 -1.477,-0.813 m 3.906,-17.406 c 0.886,0 1.628,0.302 2.227,0.906 0.599,0.604 0.898,1.323 0.898,2.156 0,0.886 -0.299,1.618 -0.898,2.196 -0.599,0.578 -1.341,0.867 -2.227,0.867 -0.843,0 -1.554,-0.3 -2.132,-0.899 -0.579,-0.599 -0.868,-1.317 -0.868,-2.156 0,-0.838 0.3,-1.56 0.899,-2.164 0.599,-0.604 1.299,-0.906 2.101,-0.906"/>
	<path d="m 600.3318,23.531 c 0,-6.208 1.922,-11.25 5.766,-15.125 3.843,-3.875 8.625,-5.812 14.343,-5.812 2.552,0 4.951,0.312 7.196,0.937 2.245,0.625 3.544,0.938 3.898,0.938 1.323,0 2.162,-0.625 2.516,-1.875 h 1.265 l 0.547,13.437 h -1.39 c -2.198,-7.437 -6.495,-11.156 -12.891,-11.156 -4.365,0 -7.836,1.62 -10.414,4.859 -2.578,3.24 -3.867,7.579 -3.867,13.016 0,3.479 0.45,6.49 1.351,9.031 0.901,2.542 2.11,4.461 3.625,5.758 1.516,1.297 3.084,2.237 4.703,2.82 1.62,0.584 3.352,0.875 5.196,0.875 4.719,0 9.177,-2.02 13.375,-6.062 l 1.094,1.078 c -1.844,2.438 -4.185,4.318 -7.024,5.641 -2.838,1.323 -5.961,1.984 -9.367,1.984 -5.917,0 -10.716,-1.859 -14.399,-5.578 -3.682,-3.719 -5.523,-8.641 -5.523,-14.766"/>
	<path d="M 641.7068,19.266 V 18.25 c 2.875,-0.833 5.672,-1.771 8.391,-2.812 l 0.422,0.125 v 4.609 c 2.479,-1.927 4.32,-3.198 5.523,-3.813 1.203,-0.614 2.466,-0.921 3.789,-0.921 3.156,0 5.276,1.713 6.359,5.14 3.115,-3.427 6.37,-5.14 9.766,-5.14 4.646,0 6.969,3.588 6.969,10.765 v 12.281 c 0,2.23 0.859,3.407 2.578,3.532 l 1.562,0.109 v 0.906 h -13.14 v -0.906 c 1.76,-0.198 2.859,-0.534 3.297,-1.008 0.437,-0.474 0.656,-1.57 0.656,-3.289 V 25.234 c 0,-2.468 -0.32,-4.179 -0.961,-5.132 -0.641,-0.953 -1.82,-1.43 -3.539,-1.43 -2.636,0 -4.813,1.214 -6.531,3.641 v 15.046 c 0,1.865 0.289,3.118 0.867,3.758 0.578,0.641 1.726,0.977 3.445,1.008 v 0.906 h -13.437 v -0.906 c 1.718,-0.114 2.828,-0.43 3.328,-0.945 0.5,-0.516 0.75,-1.612 0.75,-3.289 V 24.938 c 0,-4.177 -1.318,-6.266 -3.953,-6.266 -1.125,0 -2.378,0.279 -3.758,0.836 -1.38,0.557 -2.487,1.456 -3.32,2.695 v 16.828 c 0,1.157 0.278,1.943 0.835,2.36 0.558,0.416 1.638,0.661 3.243,0.734 v 0.906 h -13.328 v -0.906 c 1.687,-0.031 2.809,-0.325 3.367,-0.883 0.557,-0.557 0.836,-1.653 0.836,-3.289 V 22.859 c 0,-1.437 -0.149,-2.434 -0.446,-2.992 -0.297,-0.557 -0.846,-0.836 -1.648,-0.836 -0.604,0 -1.245,0.078 -1.922,0.235 m 47.453,17.843 c 0,-0.718 0.081,-1.385 0.242,-2 0.162,-0.614 0.443,-1.192 0.844,-1.734 0.401,-0.542 0.781,-1.031 1.141,-1.469 0.359,-0.437 0.898,-0.882 1.617,-1.336 0.719,-0.453 1.318,-0.83 1.797,-1.132 0.479,-0.302 1.208,-0.662 2.187,-1.079 0.979,-0.416 1.729,-0.734 2.25,-0.953 0.521,-0.218 1.341,-0.547 2.461,-0.984 1.12,-0.438 1.94,-0.755 2.461,-0.953 v -3.641 c 0,-3.302 -1.521,-4.953 -4.562,-4.953 -1.198,0 -2.216,0.289 -3.055,0.867 -0.839,0.578 -1.258,1.269 -1.258,2.071 0,0.323 0.05,0.763 0.149,1.32 0.099,0.557 0.148,0.919 0.148,1.086 0,0.677 -0.271,1.265 -0.812,1.765 -0.542,0.5 -1.172,0.75 -1.891,0.75 -0.677,0 -1.276,-0.26 -1.797,-0.781 -0.521,-0.521 -0.781,-1.12 -0.781,-1.797 0,-1.885 0.969,-3.476 2.906,-4.773 1.938,-1.297 4.328,-1.945 7.172,-1.945 3.281,0 5.542,0.786 6.781,2.359 1.24,1.573 1.86,3.969 1.86,7.187 v 11.641 c 0,1.313 0.13,2.219 0.39,2.719 0.261,0.5 0.729,0.75 1.406,0.75 0.844,0 1.724,-0.38 2.641,-1.141 v 1.578 c -1.042,1.198 -1.95,2.013 -2.727,2.446 -0.776,0.432 -1.664,0.648 -2.664,0.648 -1.239,0 -2.151,-0.349 -2.734,-1.047 -0.583,-0.698 -0.953,-1.844 -1.109,-3.437 -3.438,2.989 -6.36,4.484 -8.766,4.484 -1.833,0 -3.341,-0.609 -4.523,-1.828 -1.183,-1.219 -1.774,-2.781 -1.774,-4.688 m 15,-1.546 v -8.657 c -3.604,1.313 -6.125,2.584 -7.562,3.813 -1.438,1.229 -2.157,2.724 -2.157,4.484 0,1.625 0.399,2.836 1.196,3.633 0.797,0.797 1.659,1.195 2.586,1.195 1.354,0 2.812,-0.458 4.375,-1.375 0.645,-0.354 1.067,-0.731 1.265,-1.132 0.198,-0.401 0.297,-1.055 0.297,-1.961 m 18.406,-16.11 c 0,0 -0.895,0.058 -2.687,0.172 v -0.953 c 3.198,-1 6.318,-2.078 9.359,-3.234 l 0.297,0.171 v 27.422 c 0,4.24 -0.859,7.48 -2.578,9.719 -1.719,2.24 -4.24,3.359 -7.562,3.359 -1.636,0 -2.985,-0.309 -4.047,-0.929 -1.063,-0.62 -1.594,-1.409 -1.594,-2.367 0,-0.646 0.239,-1.198 0.719,-1.657 0.479,-0.458 1.057,-0.687 1.734,-0.687 0.844,0 1.766,0.601 2.766,1.805 1,1.203 1.88,1.804 2.64,1.804 1.198,0 1.977,-0.622 2.336,-1.867 0.36,-1.245 0.539,-3.404 0.539,-6.477 v -22.75 c 0,-1.27 -0.148,-2.177 -0.445,-2.718 -0.297,-0.542 -0.789,-0.813 -1.477,-0.813 m 3.907,-17.406 c 0.885,0 1.627,0.302 2.226,0.906 0.599,0.604 0.899,1.323 0.899,2.156 0,0.886 -0.3,1.618 -0.899,2.196 -0.599,0.578 -1.341,0.867 -2.226,0.867 -0.844,0 -1.555,-0.299 -2.133,-0.898 -0.578,-0.599 -0.867,-1.318 -0.867,-2.157 0,-0.838 0.299,-1.56 0.898,-2.164 0.599,-0.604 1.3,-0.906 2.102,-0.906"/>
	<path d="m 761.5658,3.313 v 0.953 l -12.718,39.25 h -3.907 l 11.891,-35.828 h -13.031 c -1.636,0 -2.883,0.302 -3.742,0.906 -0.86,0.604 -1.93,1.927 -3.211,3.969 l -1.016,-0.485 3.531,-8.765 h 22.203"/>
	<path d="m 1017.1468,21.484 c 0,-6.208 1.92,-11.25 5.76,-15.125 3.85,-3.875 8.63,-5.812 14.35,-5.812 2.55,0 4.95,0.312 7.19,0.937 2.25,0.625 3.55,0.938 3.9,0.938 1.32,0 2.16,-0.625 2.52,-1.875 h 1.26 l 0.55,13.437 h -1.39 c -2.2,-7.437 -6.5,-11.156 -12.89,-11.156 -4.37,0 -7.84,1.62 -10.42,4.86 -2.57,3.239 -3.86,7.578 -3.86,13.015 0,3.479 0.45,6.49 1.35,9.031 0.9,2.542 2.11,4.461 3.62,5.758 1.52,1.297 3.09,2.237 4.71,2.821 1.62,0.583 3.35,0.875 5.19,0.875 4.72,0 9.18,-2.021 13.38,-6.063 l 1.09,1.078 c -1.84,2.438 -4.18,4.318 -7.02,5.641 -2.84,1.323 -5.96,1.984 -9.37,1.984 -5.92,0 -10.72,-1.859 -14.4,-5.578 -3.68,-3.719 -5.52,-8.641 -5.52,-14.766"/>
	<path d="m 1059.2368,35.063 c 0,-0.719 0.08,-1.386 0.24,-2 0.16,-0.615 0.45,-1.193 0.85,-1.735 0.4,-0.541 0.78,-1.031 1.14,-1.469 0.36,-0.437 0.9,-0.882 1.61,-1.336 0.72,-0.453 1.32,-0.83 1.8,-1.132 0.48,-0.302 1.21,-0.662 2.19,-1.078 0.98,-0.417 1.73,-0.735 2.25,-0.954 0.52,-0.218 1.34,-0.546 2.46,-0.984 1.12,-0.437 1.94,-0.755 2.46,-0.953 v -3.641 c 0,-3.302 -1.52,-4.953 -4.56,-4.953 -1.2,0 -2.22,0.289 -3.06,0.867 -0.83,0.578 -1.25,1.269 -1.25,2.071 0,0.323 0.05,0.763 0.14,1.32 0.1,0.557 0.15,0.919 0.15,1.086 0,0.677 -0.27,1.266 -0.81,1.766 -0.54,0.5 -1.17,0.75 -1.89,0.75 -0.68,0 -1.28,-0.261 -1.8,-0.782 -0.52,-0.521 -0.78,-1.119 -0.78,-1.797 0,-1.885 0.97,-3.476 2.91,-4.773 1.94,-1.297 4.33,-1.945 7.17,-1.945 3.28,0 5.54,0.786 6.78,2.359 1.24,1.573 1.86,3.969 1.86,7.188 v 11.64 c 0,1.313 0.13,2.219 0.39,2.719 0.26,0.5 0.73,0.75 1.41,0.75 0.84,0 1.72,-0.38 2.64,-1.141 v 1.578 c -1.04,1.198 -1.95,2.013 -2.73,2.446 -0.77,0.432 -1.66,0.648 -2.66,0.648 -1.24,0 -2.15,-0.349 -2.74,-1.047 -0.58,-0.698 -0.95,-1.843 -1.11,-3.437 -3.43,2.989 -6.36,4.484 -8.76,4.484 -1.84,0 -3.34,-0.609 -4.53,-1.828 -1.18,-1.219 -1.77,-2.781 -1.77,-4.687 m 15,-1.547 v -8.657 c -3.6,1.313 -6.12,2.584 -7.56,3.813 -1.44,1.229 -2.16,2.724 -2.16,4.484 0,1.625 0.4,2.836 1.2,3.633 0.79,0.797 1.66,1.195 2.58,1.195 1.36,0 2.82,-0.458 4.38,-1.375 0.64,-0.354 1.07,-0.731 1.26,-1.132 0.2,-0.401 0.3,-1.055 0.3,-1.961 m 30.11,8.062 -0.23,-0.172 v -3.953 c -1.92,2.75 -4.48,4.125 -7.69,4.125 -3.31,0 -5.99,-1.19 -8.03,-3.57 -2.04,-2.38 -3.07,-5.492 -3.07,-9.336 0,-4.24 1.22,-7.846 3.66,-10.82 2.44,-2.974 5.38,-4.461 8.83,-4.461 2.16,0 4.25,0.896 6.3,2.687 V 6.641 c 0,-1.261 -0.18,-2.091 -0.54,-2.493 -0.36,-0.401 -1.1,-0.601 -2.23,-0.601 -0.56,0 -1,0.021 -1.31,0.062 V 2.641 c 3.63,-0.959 6.57,-1.839 8.81,-2.641 l 0.3,0.125 v 33.922 c 0,1.396 0.17,2.312 0.51,2.75 0.35,0.437 1.06,0.656 2.13,0.656 0.21,0 0.67,-0.021 1.39,-0.062 v 0.953 l -8.83,3.234 m -5.58,-3.234 c 1.52,0 2.79,-0.425 3.81,-1.274 1.03,-0.849 1.54,-1.612 1.54,-2.289 V 21.125 c 0,-1.583 -0.62,-2.969 -1.86,-4.156 -1.24,-1.188 -2.66,-1.781 -4.27,-1.781 -2.28,0 -4.1,1.01 -5.46,3.031 -1.36,2.021 -2.04,4.713 -2.04,8.078 0,3.635 0.76,6.552 2.28,8.75 1.52,2.198 3.52,3.297 6,3.297 m 35.52,3.234 -0.24,-0.172 v -3.953 c -1.91,2.75 -4.48,4.125 -7.68,4.125 -3.32,0 -5.99,-1.19 -8.04,-3.57 -2.04,-2.38 -3.06,-5.492 -3.06,-9.336 0,-4.24 1.22,-7.846 3.66,-10.82 2.44,-2.974 5.38,-4.461 8.83,-4.461 2.15,0 4.25,0.896 6.29,2.687 V 6.641 c 0,-1.261 -0.18,-2.091 -0.54,-2.493 -0.35,-0.401 -1.1,-0.601 -2.22,-0.601 -0.56,0 -1,0.021 -1.31,0.062 V 2.641 c 3.63,-0.959 6.57,-1.839 8.81,-2.641 l 0.29,0.125 v 33.922 c 0,1.396 0.18,2.312 0.52,2.75 0.34,0.437 1.05,0.656 2.13,0.656 0.2,0 0.67,-0.021 1.39,-0.062 v 0.953 l -8.83,3.234 m -5.58,-3.234 c 1.52,0 2.79,-0.425 3.81,-1.274 1.02,-0.849 1.53,-1.612 1.53,-2.289 V 21.125 c 0,-1.583 -0.62,-2.969 -1.86,-4.156 -1.24,-1.188 -2.66,-1.781 -4.26,-1.781 -2.28,0 -4.1,1.01 -5.46,3.031 -1.36,2.021 -2.04,4.713 -2.04,8.078 0,3.635 0.76,6.552 2.28,8.75 1.52,2.198 3.52,3.297 6,3.297"/>
	<path d="m 1147.2568,42.297 -0.19,-1.188 c 4.56,-0.802 8.43,-2.75 11.61,-5.843 3.18,-3.094 5.38,-7.089 6.62,-11.985 -2.95,2.323 -5.95,3.485 -9,3.485 -3.24,0 -5.85,-1.123 -7.82,-3.368 -1.98,-2.244 -2.97,-5.195 -2.97,-8.851 0,-4.063 1.19,-7.451 3.57,-10.164 2.38,-2.714 5.35,-4.07 8.91,-4.07 3.88,0 7.05,1.585 9.53,4.757 2.48,3.172 3.72,7.248 3.72,12.227 0,1.604 -0.14,3.247 -0.41,4.93 -0.28,1.682 -0.93,3.677 -1.95,5.984 -1.02,2.307 -2.35,4.372 -3.99,6.195 -1.64,1.823 -3.98,3.474 -7.02,4.953 -3.05,1.48 -6.58,2.459 -10.61,2.938 m 11.22,-18.172 c 0.76,0 1.62,-0.109 2.57,-0.328 0.96,-0.219 1.93,-0.698 2.91,-1.438 0.98,-0.739 1.47,-1.645 1.47,-2.718 v -2.344 c 0,-10.125 -2.64,-15.188 -7.92,-15.188 -1.24,0 -2.3,0.329 -3.18,0.985 -0.88,0.656 -1.55,1.523 -2.01,2.601 -0.46,1.078 -0.79,2.175 -0.99,3.289 -0.21,1.115 -0.31,2.292 -0.31,3.532 0,3.552 0.67,6.375 2.02,8.468 1.34,2.094 3.15,3.141 5.44,3.141"/>
	<path d="m 1433.9568,21.985 c 0,-6.208 1.92,-11.25 5.77,-15.125 3.84,-3.875 8.62,-5.812 14.34,-5.812 2.55,0 4.95,0.312 7.19,0.937 2.25,0.625 3.55,0.938 3.9,0.938 1.33,0 2.16,-0.625 2.52,-1.875 h 1.26 l 0.55,13.437 h -1.39 c -2.2,-7.437 -6.49,-11.156 -12.89,-11.156 -4.36,0 -7.84,1.62 -10.41,4.859 -2.58,3.24 -3.87,7.578 -3.87,13.016 0,3.479 0.45,6.49 1.35,9.031 0.9,2.542 2.11,4.461 3.63,5.758 1.51,1.297 3.08,2.237 4.7,2.82 1.62,0.584 3.35,0.875 5.19,0.875 4.72,0 9.18,-2.02 13.38,-6.062 l 1.09,1.078 c -1.84,2.437 -4.18,4.318 -7.02,5.641 -2.84,1.323 -5.96,1.984 -9.37,1.984 -5.91,0 -10.71,-1.859 -14.4,-5.578 -3.68,-3.719 -5.52,-8.641 -5.52,-14.766"/>
	<path d="m 1475.3268,17.72 v -1.016 c 2.88,-0.833 5.68,-1.771 8.4,-2.813 l 0.42,0.125 v 4.61 c 2.48,-1.927 4.32,-3.198 5.52,-3.813 1.2,-0.614 2.47,-0.922 3.79,-0.922 3.16,0 5.28,1.714 6.36,5.141 3.11,-3.427 6.37,-5.141 9.76,-5.141 4.65,0 6.97,3.589 6.97,10.766 v 12.281 c 0,2.23 0.86,3.407 2.58,3.532 l 1.56,0.109 v 0.906 h -13.14 v -0.906 c 1.76,-0.198 2.86,-0.534 3.3,-1.008 0.44,-0.474 0.66,-1.57 0.66,-3.289 V 23.688 c 0,-2.468 -0.32,-4.179 -0.96,-5.132 -0.64,-0.954 -1.82,-1.43 -3.54,-1.43 -2.64,0 -4.82,1.213 -6.53,3.64 v 15.047 c 0,1.865 0.28,3.118 0.86,3.758 0.58,0.641 1.73,0.977 3.45,1.008 v 0.906 h -13.44 v -0.906 c 1.72,-0.115 2.83,-0.43 3.33,-0.945 0.5,-0.516 0.75,-1.612 0.75,-3.289 V 23.391 c 0,-4.177 -1.32,-6.265 -3.95,-6.265 -1.13,0 -2.38,0.278 -3.76,0.836 -1.38,0.557 -2.49,1.456 -3.32,2.695 v 16.828 c 0,1.156 0.28,1.943 0.83,2.36 0.56,0.416 1.64,0.661 3.25,0.734 v 0.906 h -13.33 v -0.906 c 1.68,-0.031 2.81,-0.326 3.36,-0.883 0.56,-0.557 0.84,-1.653 0.84,-3.289 V 21.313 c 0,-1.437 -0.15,-2.435 -0.44,-2.992 -0.3,-0.557 -0.85,-0.836 -1.65,-0.836 -0.61,0 -1.25,0.078 -1.93,0.235 m 47.46,17.843 c 0,-0.718 0.08,-1.385 0.24,-2 0.16,-0.614 0.44,-1.192 0.84,-1.734 0.41,-0.542 0.79,-1.031 1.14,-1.469 0.36,-0.437 0.9,-0.883 1.62,-1.336 0.72,-0.453 1.32,-0.83 1.8,-1.133 0.48,-0.302 1.21,-0.661 2.19,-1.078 0.98,-0.416 1.73,-0.734 2.25,-0.953 0.52,-0.219 1.34,-0.547 2.46,-0.984 1.12,-0.438 1.94,-0.755 2.46,-0.953 v -3.641 c 0,-3.302 -1.52,-4.953 -4.56,-4.953 -1.2,0 -2.22,0.289 -3.06,0.867 -0.84,0.578 -1.26,1.268 -1.26,2.07 0,0.323 0.05,0.763 0.15,1.321 0.1,0.557 0.15,0.919 0.15,1.086 0,0.677 -0.27,1.265 -0.81,1.765 -0.54,0.5 -1.17,0.75 -1.89,0.75 -0.68,0 -1.28,-0.26 -1.8,-0.781 -0.52,-0.521 -0.78,-1.12 -0.78,-1.797 0,-1.885 0.97,-3.476 2.9,-4.773 1.94,-1.297 4.33,-1.946 7.18,-1.946 3.28,0 5.54,0.787 6.78,2.36 1.24,1.573 1.86,3.969 1.86,7.187 v 11.641 c 0,1.312 0.13,2.219 0.39,2.719 0.26,0.5 0.73,0.75 1.4,0.75 0.85,0 1.73,-0.38 2.64,-1.141 v 1.578 c -1.04,1.198 -1.95,2.013 -2.72,2.446 -0.78,0.432 -1.67,0.648 -2.67,0.648 -1.24,0 -2.15,-0.349 -2.73,-1.047 -0.58,-0.698 -0.95,-1.844 -1.11,-3.437 -3.44,2.989 -6.36,4.484 -8.77,4.484 -1.83,0 -3.34,-0.609 -4.52,-1.828 -1.18,-1.219 -1.77,-2.781 -1.77,-4.688 m 15,-1.547 V 25.36 c -3.61,1.313 -6.13,2.584 -7.56,3.813 -1.44,1.229 -2.16,2.724 -2.16,4.484 0,1.625 0.4,2.836 1.19,3.633 0.8,0.797 1.66,1.195 2.59,1.195 1.35,0 2.81,-0.458 4.38,-1.375 0.64,-0.354 1.06,-0.732 1.26,-1.133 0.2,-0.401 0.3,-1.054 0.3,-1.961 m 18.4,-16.109 c 0,0 -0.89,0.057 -2.68,0.172 v -0.953 c 3.19,-1 6.31,-2.078 9.36,-3.235 l 0.29,0.172 v 27.422 c 0,4.24 -0.86,7.479 -2.58,9.719 -1.71,2.24 -4.23,3.359 -7.56,3.359 -1.63,0 -2.98,-0.31 -4.04,-0.929 -1.07,-0.62 -1.6,-1.409 -1.6,-2.368 0,-0.645 0.24,-1.197 0.72,-1.656 0.48,-0.458 1.06,-0.687 1.73,-0.687 0.85,0 1.77,0.601 2.77,1.804 1,1.204 1.88,1.805 2.64,1.805 1.2,0 1.98,-0.622 2.34,-1.867 0.36,-1.245 0.54,-3.404 0.54,-6.477 v -22.75 c 0,-1.27 -0.15,-2.177 -0.45,-2.718 -0.3,-0.542 -0.79,-0.813 -1.48,-0.813 m 3.91,-17.406 c 0.89,0 1.63,0.302 2.23,0.906 0.6,0.604 0.9,1.323 0.9,2.156 0,0.886 -0.3,1.618 -0.9,2.196 -0.6,0.578 -1.34,0.867 -2.23,0.867 -0.84,0 -1.55,-0.3 -2.13,-0.899 -0.58,-0.599 -0.87,-1.317 -0.87,-2.156 0,-0.838 0.3,-1.56 0.9,-2.164 0.6,-0.604 1.3,-0.906 2.1,-0.906"/>
	<path d="m 191.7988,341.91 v 1.14 h -15.297 v -1.14 c 1.594,-0.042 2.693,-0.201 3.297,-0.477 0.604,-0.276 0.906,-0.789 0.906,-1.539 0,-0.937 -0.38,-2.255 -1.141,-3.953 l -2.468,-5.672 h -15.719 l -2.766,6.922 c -0.312,0.823 -0.469,1.588 -0.469,2.297 0,1.614 1.36,2.422 4.079,2.422 v 1.14 h -11.875 v -1.14 c 1.479,-0.084 2.627,-0.654 3.445,-1.711 0.818,-1.058 2.148,-3.769 3.992,-8.133 l 12.469,-29.453 h 1.203 l 14.937,34.078 c 0.969,2.198 1.771,3.596 2.407,4.195 0.635,0.599 1.635,0.94 3,1.024 m -29.407,-14.282 h 13.86 l -6.953,-16.5 -6.907,16.5"/>
	<path d="m 211.2668,316.644 c 0.042,0 0.365,-0.198 0.969,-0.594 h 0.656 l 0.235,8.157 h -0.891 c -0.687,-2.678 -1.531,-4.576 -2.531,-5.696 -1,-1.12 -2.359,-1.679 -4.078,-1.679 -1.354,0 -2.464,0.38 -3.328,1.14 -0.865,0.761 -1.297,1.74 -1.297,2.938 0,1.718 0.864,3.078 2.594,4.078 l 6.468,3.844 c 1.802,1.083 3.094,2.174 3.875,3.273 0.782,1.099 1.172,2.388 1.172,3.867 0,2.083 -0.831,3.883 -2.492,5.399 -1.661,1.515 -3.654,2.273 -5.977,2.273 -1,0 -2.338,-0.18 -4.015,-0.539 -1.677,-0.359 -2.719,-0.539 -3.125,-0.539 -0.594,0 -1.052,0.239 -1.375,0.719 h -0.781 v -9.36 h 0.968 c 0.636,2.802 1.396,4.782 2.282,5.938 1.27,1.646 3.046,2.469 5.328,2.469 1.521,0 2.731,-0.391 3.633,-1.172 0.901,-0.782 1.351,-1.834 1.351,-3.157 0,-1.791 -1.042,-3.291 -3.125,-4.5 l -3.469,-1.968 c -2.562,-1.438 -4.375,-2.818 -5.437,-4.141 -1.063,-1.323 -1.594,-2.823 -1.594,-4.5 0,-2.167 0.771,-3.937 2.313,-5.312 1.541,-1.375 3.494,-2.063 5.859,-2.063 1.312,0 2.549,0.188 3.711,0.563 1.161,0.375 1.862,0.562 2.101,0.562 m 34.735,23.281 v 0.844 c -3.115,0.875 -5.854,1.818 -8.219,2.828 l -0.234,-0.125 v -5.094 c -0.125,0.115 -0.477,0.472 -1.055,1.071 -0.578,0.599 -0.987,1.013 -1.227,1.242 -0.239,0.229 -0.651,0.583 -1.234,1.062 -0.583,0.48 -1.094,0.823 -1.531,1.032 -0.438,0.208 -0.998,0.403 -1.68,0.586 -0.682,0.182 -1.362,0.273 -2.039,0.273 -2.198,0 -3.958,-0.719 -5.281,-2.156 -1.323,-1.438 -1.985,-3.349 -1.985,-5.735 v -15.046 c 0,-1.386 -0.257,-2.349 -0.773,-2.891 -0.516,-0.542 -1.497,-0.849 -2.945,-0.922 v -0.844 h 8.765 v 19.469 c 0,1.229 0.42,2.292 1.258,3.188 0.839,0.895 1.841,1.343 3.008,1.343 0.437,0 0.956,-0.06 1.555,-0.179 0.599,-0.12 1.289,-0.349 2.07,-0.688 0.781,-0.338 1.443,-0.875 1.984,-1.609 0.542,-0.735 0.813,-1.638 0.813,-2.711 v -14.031 c 0,-1.469 -0.271,-2.443 -0.813,-2.922 -0.541,-0.48 -1.755,-0.761 -3.64,-0.844 v -1.016 h 9.484 v 20.485 c 0,1.385 0.221,2.297 0.664,2.734 0.443,0.438 1.362,0.656 2.758,0.656 h 0.297 m 16.672,-23.281 c 0.041,0 0.364,-0.198 0.968,-0.594 h 0.657 l 0.234,8.157 h -0.891 c -0.687,-2.678 -1.531,-4.576 -2.531,-5.696 -1,-1.12 -2.359,-1.679 -4.078,-1.679 -1.354,0 -2.463,0.38 -3.328,1.14 -0.865,0.761 -1.297,1.74 -1.297,2.938 0,1.718 0.865,3.078 2.594,4.078 l 6.469,3.844 c 1.802,1.083 3.093,2.174 3.875,3.273 0.781,1.099 1.171,2.388 1.171,3.867 0,2.083 -0.83,3.883 -2.492,5.399 -1.661,1.515 -3.653,2.273 -5.976,2.273 -1,0 -2.339,-0.18 -4.016,-0.539 -1.677,-0.359 -2.719,-0.539 -3.125,-0.539 -0.594,0 -1.052,0.239 -1.375,0.719 h -0.781 v -9.36 h 0.969 c 0.635,2.802 1.395,4.782 2.281,5.938 1.271,1.646 3.047,2.469 5.328,2.469 1.521,0 2.732,-0.391 3.633,-1.172 0.901,-0.782 1.351,-1.834 1.351,-3.157 0,-1.791 -1.041,-3.291 -3.125,-4.5 l -3.468,-1.968 c -2.563,-1.438 -4.375,-2.818 -5.438,-4.141 -1.062,-1.323 -1.594,-2.823 -1.594,-4.5 0,-2.167 0.771,-3.937 2.313,-5.312 1.541,-1.375 3.495,-2.063 5.859,-2.063 1.313,0 2.55,0.188 3.711,0.563 1.162,0.375 1.862,0.562 2.102,0.562"/>
	<path d="m 270.4708,314.472 c 0.197,-0.917 0.398,-1.713 0.601,-2.39 0.203,-0.678 0.633,-1.667 1.289,-2.969 0.656,-1.302 1.396,-2.383 2.219,-3.242 0.823,-0.86 1.963,-1.628 3.422,-2.305 1.458,-0.677 3.109,-1.016 4.953,-1.016 3.115,0 5.742,1.018 7.883,3.055 2.14,2.036 3.211,4.549 3.211,7.539 0,4.552 -2.558,9.521 -7.672,14.906 l -10.078,10.625 h 14.328 c 1.364,0 2.375,-0.232 3.031,-0.695 0.656,-0.464 1.547,-1.56 2.672,-3.289 l 0.781,0.297 -3.297,8.062 h -23.406 v -0.687 l 10.688,-11.328 c 5.197,-5.521 7.796,-10.719 7.796,-15.594 0,-2.531 -0.781,-4.583 -2.343,-6.156 -1.563,-1.573 -3.604,-2.36 -6.125,-2.36 -2.073,0 -3.74,0.576 -5,1.727 -1.261,1.151 -2.49,3.19 -3.688,6.117 l -1.265,-0.297"/>
	<path d="m 611.7948,339.863 v 1.14 h -15.297 v -1.14 c 1.594,-0.042 2.693,-0.201 3.297,-0.477 0.604,-0.276 0.906,-0.789 0.906,-1.539 0,-0.937 -0.38,-2.255 -1.14,-3.953 l -2.469,-5.672 h -15.719 l -2.766,6.922 c -0.312,0.823 -0.468,1.588 -0.468,2.297 0,1.614 1.359,2.422 4.078,2.422 v 1.14 h -11.875 v -1.14 c 1.479,-0.084 2.627,-0.654 3.445,-1.711 0.818,-1.058 2.149,-3.768 3.992,-8.133 l 12.469,-29.453 h 1.203 l 14.938,34.078 c 0.968,2.198 1.771,3.596 2.406,4.195 0.635,0.599 1.635,0.94 3,1.024 m -29.406,-14.282 h 13.859 l -6.953,-16.5 -6.906,16.5"/>
	<path d="m 631.2638,314.597 c 0.041,0 0.364,-0.198 0.968,-0.594 h 0.657 l 0.234,8.157 h -0.891 c -0.687,-2.678 -1.531,-4.576 -2.531,-5.696 -1,-1.12 -2.359,-1.679 -4.078,-1.679 -1.354,0 -2.463,0.38 -3.328,1.14 -0.865,0.761 -1.297,1.74 -1.297,2.938 0,1.718 0.865,3.078 2.594,4.078 l 6.469,3.844 c 1.802,1.083 3.093,2.174 3.875,3.273 0.781,1.099 1.171,2.388 1.171,3.867 0,2.084 -0.83,3.883 -2.492,5.399 -1.661,1.515 -3.653,2.273 -5.976,2.273 -1,0 -2.339,-0.18 -4.016,-0.539 -1.677,-0.359 -2.719,-0.539 -3.125,-0.539 -0.594,0 -1.052,0.24 -1.375,0.719 h -0.781 v -9.36 h 0.969 c 0.635,2.802 1.395,4.782 2.281,5.938 1.271,1.646 3.047,2.469 5.328,2.469 1.521,0 2.732,-0.391 3.633,-1.172 0.901,-0.782 1.351,-1.834 1.351,-3.157 0,-1.791 -1.041,-3.291 -3.125,-4.5 l -3.468,-1.968 c -2.563,-1.438 -4.375,-2.818 -5.438,-4.141 -1.062,-1.323 -1.594,-2.823 -1.594,-4.5 0,-2.167 0.771,-3.937 2.313,-5.312 1.542,-1.375 3.495,-2.063 5.859,-2.063 1.313,0 2.55,0.188 3.711,0.563 1.162,0.375 1.862,0.562 2.102,0.562 m 34.734,23.281 v 0.844 c -3.114,0.875 -5.854,1.818 -8.219,2.828 l -0.234,-0.125 v -5.094 c -0.125,0.115 -0.477,0.472 -1.055,1.071 -0.578,0.599 -0.987,1.013 -1.226,1.242 -0.24,0.229 -0.651,0.583 -1.235,1.062 -0.583,0.48 -1.093,0.823 -1.531,1.032 -0.437,0.208 -0.997,0.403 -1.68,0.586 -0.682,0.182 -1.362,0.273 -2.039,0.273 -2.198,0 -3.958,-0.719 -5.281,-2.156 -1.323,-1.438 -1.984,-3.349 -1.984,-5.735 V 318.66 c 0,-1.386 -0.258,-2.349 -0.774,-2.891 -0.515,-0.542 -1.497,-0.849 -2.945,-0.922 v -0.844 h 8.766 v 19.469 c 0,1.229 0.419,2.292 1.257,3.188 0.839,0.895 1.842,1.343 3.008,1.343 0.438,0 0.956,-0.06 1.555,-0.179 0.599,-0.12 1.289,-0.349 2.07,-0.688 0.781,-0.338 1.443,-0.875 1.985,-1.609 0.541,-0.735 0.812,-1.638 0.812,-2.711 v -14.031 c 0,-1.469 -0.271,-2.443 -0.812,-2.922 -0.542,-0.479 -1.756,-0.761 -3.641,-0.844 v -1.016 h 9.484 v 20.485 c 0,1.385 0.222,2.297 0.664,2.734 0.443,0.438 1.362,0.656 2.758,0.656 h 0.297 m 16.672,-23.281 c 0.042,0 0.365,-0.198 0.969,-0.594 h 0.656 l 0.234,8.157 h -0.89 c -0.688,-2.678 -1.532,-4.576 -2.532,-5.696 -1,-1.12 -2.359,-1.679 -4.078,-1.679 -1.354,0 -2.463,0.38 -3.328,1.14 -0.864,0.761 -1.297,1.74 -1.297,2.938 0,1.718 0.865,3.078 2.594,4.078 l 6.469,3.844 c 1.802,1.083 3.094,2.174 3.875,3.273 0.781,1.099 1.172,2.388 1.172,3.867 0,2.084 -0.831,3.883 -2.492,5.399 -1.662,1.515 -3.654,2.273 -5.977,2.273 -1,0 -2.339,-0.18 -4.016,-0.539 -1.677,-0.359 -2.718,-0.539 -3.125,-0.539 -0.593,0 -1.052,0.24 -1.375,0.719 h -0.781 v -9.36 h 0.969 c 0.635,2.802 1.396,4.782 2.281,5.938 1.271,1.646 3.047,2.469 5.328,2.469 1.521,0 2.732,-0.391 3.633,-1.172 0.901,-0.782 1.352,-1.834 1.352,-3.157 0,-1.791 -1.042,-3.291 -3.125,-4.5 l -3.469,-1.968 c -2.563,-1.438 -4.375,-2.818 -5.438,-4.141 -1.062,-1.323 -1.593,-2.823 -1.593,-4.5 0,-2.167 0.77,-3.937 2.312,-5.312 1.542,-1.375 3.495,-2.063 5.859,-2.063 1.313,0 2.55,0.188 3.711,0.563 1.162,0.375 1.862,0.562 2.102,0.562"/>
	<path d="m 716.9198,327.378 v 3.61 h -6.109 v 10.015 h -4.625 v -10.015 h -16.86 v -3.61 l 18.844,-26.937 h 2.641 v 26.937 h 6.109 m -10.797,0 V 306.8 l -14.391,20.578 h 14.391"/>
	<path d="m 1031.7868,341.91 v 1.14 h -15.29 v -1.14 c 1.59,-0.042 2.69,-0.201 3.29,-0.477 0.61,-0.276 0.91,-0.789 0.91,-1.539 0,-0.937 -0.38,-2.255 -1.14,-3.953 l -2.47,-5.672 h -15.72 l -2.76,6.922 c -0.32,0.823 -0.47,1.588 -0.47,2.297 0,1.614 1.36,2.422 4.08,2.422 v 1.14 h -11.88 v -1.14 c 1.48,-0.084 2.63,-0.654 3.45,-1.711 0.81,-1.058 2.14,-3.769 3.99,-8.133 l 12.47,-29.453 h 1.2 l 14.94,34.078 c 0.97,2.198 1.77,3.596 2.4,4.195 0.64,0.599 1.64,0.94 3,1.024 m -29.4,-14.282 h 13.86 l -6.96,-16.5 -6.9,16.5"/>
	<path d="m 1035.9668,319.285 v -1.016 c 2.87,-0.833 5.67,-1.771 8.39,-2.812 l 0.42,0.125 v 4.609 c 2.48,-1.927 4.32,-3.198 5.52,-3.813 1.21,-0.614 2.47,-0.921 3.79,-0.921 3.16,0 5.28,1.713 6.36,5.14 3.12,-3.427 6.37,-5.14 9.77,-5.14 4.64,0 6.96,3.588 6.96,10.765 v 12.281 c 0,2.23 0.86,3.407 2.58,3.532 l 1.57,0.109 v 0.906 h -13.15 v -0.906 c 1.77,-0.198 2.86,-0.534 3.3,-1.008 0.44,-0.474 0.66,-1.57 0.66,-3.289 v -12.594 c 0,-2.468 -0.32,-4.179 -0.96,-5.132 -0.64,-0.954 -1.82,-1.43 -3.54,-1.43 -2.64,0 -4.81,1.213 -6.53,3.641 v 15.046 c 0,1.865 0.29,3.118 0.86,3.758 0.58,0.641 1.73,0.977 3.45,1.008 v 0.906 h -13.44 v -0.906 c 1.72,-0.115 2.83,-0.43 3.33,-0.945 0.5,-0.516 0.75,-1.612 0.75,-3.289 v -12.953 c 0,-4.178 -1.32,-6.266 -3.95,-6.266 -1.13,0 -2.38,0.279 -3.76,0.836 -1.38,0.557 -2.49,1.456 -3.32,2.695 v 16.828 c 0,1.157 0.28,1.943 0.83,2.36 0.56,0.416 1.64,0.661 3.25,0.734 v 0.906 h -13.33 v -0.906 c 1.69,-0.031 2.81,-0.326 3.37,-0.883 0.55,-0.557 0.83,-1.653 0.83,-3.289 v -15.094 c 0,-1.437 -0.15,-2.435 -0.44,-2.992 -0.3,-0.557 -0.85,-0.836 -1.65,-0.836 -0.61,0 -1.25,0.078 -1.92,0.235 m 49.67,0.187 c -0.88,0 -1.72,0.057 -2.52,0.172 v -0.891 c 2.8,-0.802 5.9,-1.901 9.3,-3.296 l 0.23,0.171 v 21.297 c 0,2.167 0.25,3.539 0.75,4.117 0.5,0.579 1.73,0.946 3.69,1.102 v 0.906 h -14.22 v -0.906 c 2.09,-0.115 3.4,-0.471 3.94,-1.07 0.54,-0.599 0.81,-1.982 0.81,-4.149 v -13.922 c 0,-1.312 -0.15,-2.229 -0.45,-2.75 -0.3,-0.52 -0.81,-0.781 -1.53,-0.781 m 3.97,-17.406 c 0.87,0 1.61,0.302 2.21,0.906 0.6,0.604 0.9,1.323 0.9,2.156 0,0.886 -0.3,1.618 -0.9,2.196 -0.6,0.578 -1.34,0.867 -2.21,0.867 -0.85,0 -1.56,-0.3 -2.14,-0.899 -0.57,-0.599 -0.86,-1.317 -0.86,-2.156 0,-0.838 0.3,-1.56 0.9,-2.164 0.59,-0.604 1.29,-0.906 2.1,-0.906 m 9.57,17.047 v -1.016 c 2.97,-0.864 5.73,-1.745 8.29,-2.64 l 0.42,0.109 v 4.687 c 2.04,-1.895 3.65,-3.169 4.83,-3.82 1.19,-0.651 2.48,-0.976 3.87,-0.976 2.2,0 3.93,0.783 5.19,2.351 1.26,1.568 1.89,3.768 1.89,6.602 v 13.765 c 0,1.49 0.24,2.485 0.72,2.985 0.48,0.5 1.46,0.828 2.94,0.984 v 0.906 h -12.47 v -0.906 c 1.52,-0.115 2.53,-0.513 3.03,-1.195 0.5,-0.683 0.75,-1.966 0.75,-3.852 v -12.578 c 0,-3.885 -1.47,-5.828 -4.39,-5.828 -1,0 -1.92,0.232 -2.76,0.695 -0.84,0.464 -1.98,1.373 -3.41,2.727 v 16.906 c 0,1.083 0.27,1.846 0.83,2.289 0.56,0.443 1.6,0.721 3.12,0.836 v 0.906 h -12.72 v -0.906 c 1.52,-0.115 2.52,-0.464 3,-1.047 0.48,-0.583 0.72,-1.734 0.72,-3.453 v -14.922 c 0,-1.489 -0.16,-2.502 -0.48,-3.039 -0.32,-0.536 -0.9,-0.805 -1.74,-0.805 -0.76,0 -1.3,0.079 -1.63,0.235"/>
	<path d="m 1448.5368,341.91 v 1.14 h -15.3 v -1.14 c 1.6,-0.042 2.7,-0.201 3.3,-0.477 0.6,-0.276 0.91,-0.789 0.91,-1.539 0,-0.937 -0.38,-2.255 -1.14,-3.953 l -2.47,-5.672 h -15.72 l -2.77,6.922 c -0.31,0.823 -0.47,1.588 -0.47,2.297 0,1.614 1.36,2.422 4.08,2.422 v 1.14 h -11.87 v -1.14 c 1.48,-0.084 2.62,-0.654 3.44,-1.711 0.82,-1.058 2.15,-3.769 3.99,-8.133 l 12.47,-29.453 h 1.21 l 14.93,34.078 c 0.97,2.198 1.77,3.596 2.41,4.195 0.64,0.599 1.64,0.94 3,1.024 m -29.41,-14.282 h 13.86 l -6.95,-16.5 -6.91,16.5"/>
	<path d="m 1468.0068,316.644 c 0.04,0 0.36,-0.198 0.97,-0.594 h 0.65 l 0.24,8.157 h -0.89 c -0.69,-2.678 -1.53,-4.576 -2.53,-5.696 -1,-1.12 -2.36,-1.679 -4.08,-1.679 -1.36,0 -2.47,0.38 -3.33,1.14 -0.86,0.761 -1.3,1.74 -1.3,2.938 0,1.718 0.87,3.078 2.6,4.078 l 6.47,3.844 c 1.8,1.083 3.09,2.174 3.87,3.273 0.78,1.099 1.17,2.388 1.17,3.867 0,2.083 -0.83,3.883 -2.49,5.399 -1.66,1.515 -3.65,2.273 -5.98,2.273 -1,0 -2.33,-0.18 -4.01,-0.539 -1.68,-0.359 -2.72,-0.539 -3.13,-0.539 -0.59,0 -1.05,0.239 -1.37,0.719 h -0.78 v -9.36 h 0.97 c 0.63,2.802 1.39,4.782 2.28,5.938 1.27,1.646 3.04,2.469 5.33,2.469 1.52,0 2.73,-0.391 3.63,-1.172 0.9,-0.782 1.35,-1.834 1.35,-3.157 0,-1.791 -1.04,-3.291 -3.13,-4.5 l -3.46,-1.968 c -2.57,-1.438 -4.38,-2.818 -5.44,-4.141 -1.06,-1.323 -1.6,-2.823 -1.6,-4.5 0,-2.167 0.78,-3.937 2.32,-5.312 1.54,-1.375 3.49,-2.063 5.86,-2.063 1.31,0 2.55,0.188 3.71,0.563 1.16,0.375 1.86,0.562 2.1,0.562 m 34.73,23.281 v 0.844 c -3.11,0.875 -5.85,1.818 -8.22,2.828 l -0.23,-0.125 v -5.094 c -0.12,0.115 -0.48,0.472 -1.05,1.071 -0.58,0.599 -0.99,1.013 -1.23,1.242 -0.24,0.229 -0.65,0.583 -1.24,1.062 -0.58,0.48 -1.09,0.823 -1.53,1.032 -0.43,0.208 -0.99,0.403 -1.68,0.586 -0.68,0.182 -1.36,0.273 -2.04,0.273 -2.19,0 -3.95,-0.719 -5.28,-2.156 -1.32,-1.438 -1.98,-3.349 -1.98,-5.735 v -15.046 c 0,-1.386 -0.26,-2.349 -0.77,-2.891 -0.52,-0.542 -1.5,-0.849 -2.95,-0.922 v -0.844 h 8.77 v 19.469 c 0,1.229 0.42,2.292 1.25,3.188 0.84,0.895 1.84,1.343 3.01,1.343 0.44,0 0.96,-0.06 1.56,-0.179 0.6,-0.12 1.29,-0.349 2.07,-0.688 0.78,-0.338 1.44,-0.875 1.98,-1.609 0.54,-0.735 0.81,-1.638 0.81,-2.711 v -14.031 c 0,-1.469 -0.27,-2.443 -0.81,-2.922 -0.54,-0.48 -1.75,-0.761 -3.64,-0.844 v -1.016 h 9.48 v 20.485 c 0,1.385 0.23,2.297 0.67,2.734 0.44,0.438 1.36,0.656 2.76,0.656 h 0.29 m 16.68,-23.281 c 0.04,0 0.36,-0.198 0.96,-0.594 h 0.66 l 0.23,8.157 h -0.89 c -0.68,-2.678 -1.53,-4.576 -2.53,-5.696 -1,-1.12 -2.36,-1.679 -4.08,-1.679 -1.35,0 -2.46,0.38 -3.32,1.14 -0.87,0.761 -1.3,1.74 -1.3,2.938 0,1.718 0.86,3.078 2.59,4.078 l 6.47,3.844 c 1.8,1.083 3.1,2.174 3.88,3.273 0.78,1.099 1.17,2.388 1.17,3.867 0,2.083 -0.83,3.883 -2.49,5.399 -1.66,1.515 -3.66,2.273 -5.98,2.273 -1,0 -2.34,-0.18 -4.02,-0.539 -1.67,-0.359 -2.71,-0.539 -3.12,-0.539 -0.59,0 -1.05,0.239 -1.38,0.719 h -0.78 v -9.36 h 0.97 c 0.64,2.802 1.4,4.782 2.28,5.938 1.27,1.646 3.05,2.469 5.33,2.469 1.52,0 2.73,-0.391 3.63,-1.172 0.91,-0.782 1.36,-1.834 1.36,-3.157 0,-1.791 -1.05,-3.291 -3.13,-4.5 l -3.47,-1.968 c -2.56,-1.438 -4.37,-2.818 -5.44,-4.141 -1.06,-1.323 -1.59,-2.823 -1.59,-4.5 0,-2.167 0.77,-3.937 2.31,-5.312 1.55,-1.375 3.5,-2.063 5.86,-2.063 1.32,0 2.55,0.188 3.71,0.563 1.17,0.375 1.87,0.562 2.11,0.562"/>
	<path d="m 1527.2068,314.472 c 0.2,-0.917 0.4,-1.713 0.6,-2.39 0.21,-0.678 0.64,-1.667 1.29,-2.969 0.66,-1.302 1.4,-2.383 2.22,-3.242 0.82,-0.86 1.97,-1.628 3.42,-2.305 1.46,-0.677 3.11,-1.016 4.96,-1.016 3.11,0 5.74,1.018 7.88,3.055 2.14,2.036 3.21,4.549 3.21,7.539 0,4.552 -2.56,9.521 -7.67,14.906 l -10.08,10.625 h 14.33 c 1.36,0 2.37,-0.232 3.03,-0.695 0.66,-0.464 1.55,-1.56 2.67,-3.289 l 0.78,0.297 -3.29,8.062 h -23.41 v -0.687 l 10.69,-11.328 c 5.2,-5.521 7.79,-10.719 7.79,-15.594 0,-2.531 -0.78,-4.583 -2.34,-6.156 -1.56,-1.573 -3.6,-2.36 -6.12,-2.36 -2.08,0 -3.74,0.576 -5,1.727 -1.27,1.151 -2.49,3.19 -3.69,6.117 l -1.27,-0.297"/>
</svg>
