<?xml version="1.0" encoding="UTF-8" standalone="no"?>
<svg xmlns="http://www.w3.org/2000/svg" viewBox="0 0 2097.6367 329.60301">
	<polyline points="14.1732,316.743 2111.81,316.743" style="fill:none;stroke:#000000;stroke-width:2;stroke-linejoin:bevel" transform="translate(-14.1732,-275.139)"/>
	<polyline points="14.1732,341.745 2111.81,341.745" style="fill:none;stroke:#000000;stroke-width:2;stroke-linejoin:bevel" transform="translate(-14.1732,-275.139)"/>
	<polyline points="14.1732,366.746 2111.81,366.746" style="fill:none;stroke:#000000;stroke-width:2;stroke-linejoin:bevel" transform="translate(-14.1732,-275.139)"/>
	<polyline points="14.1732,391.748 2111.81,391.748" style="fill:none;stroke:#000000;stroke-width:2;stroke-linejoin:bevel" transform="translate(-14.1732,-275.139)"/>
	<polyline points="14.1732,416.75 2111.81,416.75" style="fill:none;stroke:#000000;stroke-width:2;stroke-linejoin:bevel" transform="translate(-14.1732,-275.139)"/>
	<polyline points="400.256,315.743 400.256,417.75" style="fill:none;stroke:#000000;stroke-width:4;stroke-linejoin:bevel" transform="translate(-14.1732,-275.139)"/>
	<polyline points="807.488,315.743 807.488,417.75" style="fill:none;stroke:#000000;stroke-width:4;stroke-linejoin:bevel" transform="translate(-14.1732,-275.139)"/>
	<polyline points="1216.61,315.743 1216.61,417.75" style="fill:none;stroke:#000000;stroke-width:4;stroke-linejoin:bevel" transform="translate(-14.1732,-275.139)"/>
	<polyline points="1623.84,315.743 1623.84,417.75" style="fill:none;stroke:#000000;stroke-width:4;stroke-linejoin:bevel" transform="translate(-14.1732,-275.139)"/>
	<polyline points="2089.31,315.743 2089.31,417.75" style="fill:none;stroke:#000000;stroke-width:4;stroke-linejoin:bevel" transform="translate(-14.1732,-275.139)"/>
	<polyline points="2105.56,315.743 2105.56,417.75" style="fill:none;stroke:#000000;stroke-width:12.5;stroke-linejoin:bevel" transform="translate(-14.1732,-275.139)"/>
	<polyline points="210.357,441.751 258.275,441.751" style="fill:none;stroke:#000000;stroke-width:4;stroke-linecap:square;stroke-linejoin:bevel" transform="translate(-14.1732,-275.139)"/>
	<polyline points="322.296,441.751 370.213,441.751" style="fill:none;stroke:#000000;stroke-width:4;stroke-linecap:square;stroke-linejoin:bevel" transform="translate(-14.1732,-275.139)"/>
	<polyline points="573.196,441.751 621.113,441.751" style="fill:none;stroke:#000000;stroke-width:4;stroke-linecap:square;stroke-linejoin:bevel" transform="translate(-14.1732,-275.139)"/>
	<polyline points="1022.35,441.751 1070.27,441.751" style="fill:none;stroke:#000000;stroke-width:4;stroke-linecap:square;stroke-linejoin:bevel" transform="translate(-14.1732,-275.139)"/>
	<polyline points="1138.65,441.751 1186.56,441.751" style="fill:none;stroke:#000000;stroke-width:4;stroke-linecap:square;stroke-linejoin:bevel" transform="translate(-14.1732,-275.139)"/>
	<polyline points="1389.55,441.751 1437.46,441.751" style="fill:none;stroke:#000000;stroke-width:4;stroke-linecap:square;stroke-linejoin:bevel" transform="translate(-14.1732,-275.139)"/>
	<polyline points="1849.34,441.751 1897.26,441.751" style="fill:none;stroke:#000000;stroke-width:4;stroke-linecap:square;stroke-linejoin:bevel" transform="translate(-14.1732,-275.139)"/>
	<polyline points="1973.04,441.751 2020.96,441.751" style="fill:none;stroke:#000000;stroke-width:4;stroke-linecap:square;stroke-linejoin:bevel" transform="translate(-14.1732,-275.139)"/>
	<polyline points="249.149,437.056 249.149,366.746" style="fill:none;stroke:#000000;stroke-width:3.25;stroke-linecap:round;stroke-linejoin:bevel" transform="translate(-14.1732,-275.139)"/>
	<polyline points="361.088,437.056 361.088,366.746" style="fill:none;stroke:#000000;stroke-width:3.25;stroke-linecap:round;stroke-linejoin:bevel" transform="translate(-14.1732,-275.139)"/>
	<polyline points="499.591,424.555 499.591,341.745" style="fill:none;stroke:#000000;stroke-width:3.25;stroke-linecap:round;stroke-linejoin:bevel" transform="translate(-14.1732,-275.139)"/>
	<polyline points="611.987,437.056 611.987,354.246" style="fill:none;stroke:#000000;stroke-width:3.25;stroke-linecap:round;stroke-linejoin:bevel" transform="translate(-14.1732,-275.139)"/>
	<polyline points="724.383,399.553 724.383,316.743" style="fill:none;stroke:#000000;stroke-width:3.25;stroke-linecap:round;stroke-linejoin:bevel" transform="translate(-14.1732,-275.139)"/>
	<polyline points="895.14,412.909 895.14,329.244" style="fill:none;stroke:#000000;stroke-width:3.25;stroke-linecap:round;stroke-linejoin:bevel" transform="translate(-14.1732,-275.139)"/>
	<polyline points="1061.14,437.056 1061.14,366.746" style="fill:none;stroke:#000000;stroke-width:3.25;stroke-linecap:round;stroke-linejoin:bevel" transform="translate(-14.1732,-275.139)"/>
	<polyline points="1177.44,437.056 1177.44,366.746" style="fill:none;stroke:#000000;stroke-width:3.25;stroke-linecap:round;stroke-linejoin:bevel" transform="translate(-14.1732,-275.139)"/>
	<polyline points="1315.94,424.555 1315.94,341.745" style="fill:none;stroke:#000000;stroke-width:3.25;stroke-linecap:round;stroke-linejoin:bevel" transform="translate(-14.1732,-275.139)"/>
	<polyline points="1428.34,437.056 1428.34,354.246" style="fill:none;stroke:#000000;stroke-width:3.25;stroke-linecap:round;stroke-linejoin:bevel" transform="translate(-14.1732,-275.139)"/>
	<polyline points="1540.73,387.052 1540.73,307.368" style="fill:none;stroke:#000000;stroke-width:3.25;stroke-linecap:round;stroke-linejoin:bevel" transform="translate(-14.1732,-275.139)"/>
	<polyline points="1711.49,400.409 1711.49,316.743" style="fill:none;stroke:#000000;stroke-width:3.25;stroke-linecap:round;stroke-linejoin:bevel" transform="translate(-14.1732,-275.139)"/>
	<polyline points="1888.13,437.056 1888.13,366.746" style="fill:none;stroke:#000000;stroke-width:3.25;stroke-linecap:round;stroke-linejoin:bevel" transform="translate(-14.1732,-275.139)"/>
	<polyline points="2011.84,437.056 2011.84,366.746" style="fill:none;stroke:#000000;stroke-width:3.25;stroke-linecap:round;stroke-linejoin:bevel" transform="translate(-14.1732,-275.139)"/>
	<path d="m 225.6538,152.847 c 3.125,0 5.765,0.812 7.922,2.437 2.01,1.76 3.015,3.974 3.015,6.641 0,4.489 -2.307,8.687 -6.922,12.593 -4.687,3.907 -9.703,5.86 -15.047,5.86 -3.125,0 -5.76,-0.813 -7.906,-2.438 -2.021,-1.76 -3.031,-3.974 -3.031,-6.64 0,-4.49 2.344,-8.688 7.031,-12.594 4.563,-3.906 9.542,-5.859 14.938,-5.859"/>
	<path d="m 337.5918,152.847 c 3.125,0 5.766,0.812 7.922,2.437 2.011,1.76 3.016,3.974 3.016,6.641 0,4.489 -2.307,8.687 -6.922,12.593 -4.688,3.907 -9.703,5.86 -15.047,5.86 -3.125,0 -5.76,-0.813 -7.906,-2.438 -2.021,-1.76 -3.031,-3.974 -3.031,-6.64 0,-4.49 2.343,-8.688 7.031,-12.594 4.562,-3.906 9.542,-5.859 14.937,-5.859"/>
	<path d="m 476.0958,140.346 c 3.125,0 5.766,0.812 7.922,2.437 2.01,1.761 3.016,3.974 3.016,6.641 0,4.489 -2.308,8.687 -6.922,12.594 -4.688,3.906 -9.703,5.859 -15.047,5.859 -3.125,0 -5.761,-0.812 -7.906,-2.437 -2.021,-1.761 -3.032,-3.974 -3.032,-6.641 0,-4.49 2.344,-8.688 7.032,-12.594 4.562,-3.906 9.541,-5.859 14.937,-5.859"/>
	<path d="m 588.4918,152.847 c 3.125,0 5.766,0.812 7.922,2.437 2.01,1.76 3.015,3.974 3.015,6.641 0,4.489 -2.307,8.687 -6.921,12.593 -4.688,3.907 -9.704,5.86 -15.047,5.86 -3.125,0 -5.761,-0.813 -7.907,-2.438 -2.02,-1.76 -3.031,-3.974 -3.031,-6.64 0,-4.49 2.344,-8.688 7.031,-12.594 4.563,-3.906 9.542,-5.859 14.938,-5.859"/>
	<path d="m 700.8878,115.344 c 3.125,0 5.766,0.813 7.922,2.438 2.01,1.76 3.015,3.974 3.015,6.64 0,4.49 -2.307,8.688 -6.921,12.594 -4.688,3.906 -9.704,5.859 -15.047,5.859 -3.125,0 -5.761,-0.812 -7.907,-2.437 -2.02,-1.76 -3.031,-3.974 -3.031,-6.641 0,-4.489 2.344,-8.687 7.031,-12.593 4.563,-3.907 9.542,-5.86 14.938,-5.86"/>
	<path d="m 879.4178,135.064 c 0,-1.104 -0.422,-2.047 -1.266,-2.828 -0.854,-0.844 -1.833,-1.266 -2.937,-1.266 -1.948,0 -5.886,1.953 -11.813,5.859 -6.125,3.969 -9.87,6.802 -11.234,8.5 -0.719,0.907 -1.078,1.849 -1.078,2.828 0,1.105 0.427,2.047 1.281,2.829 0.781,0.843 1.755,1.265 2.922,1.265 1.885,0 5.859,-1.953 11.922,-5.859 5.989,-3.906 9.698,-6.74 11.125,-8.5 0.718,-0.844 1.078,-1.787 1.078,-2.828 m -5.172,-7.219 c 5.594,0 8.39,2.406 8.39,7.219 0,2.343 -0.682,5.078 -2.046,8.203 -1.365,3.062 -3.188,5.406 -5.469,7.031 -5.011,3.386 -11.292,5.078 -18.844,5.078 -5.604,0 -8.406,-2.406 -8.406,-7.219 0,-2.145 0.682,-4.848 2.047,-8.109 1.302,-3.125 3.125,-5.5 5.468,-7.125 5.021,-3.385 11.308,-5.078 18.86,-5.078"/>
	<path d="m 1037.6468,152.847 c 3.13,0 5.77,0.812 7.92,2.437 2.01,1.76 3.02,3.974 3.02,6.641 0,4.489 -2.31,8.687 -6.92,12.593 -4.69,3.907 -9.71,5.86 -15.05,5.86 -3.13,0 -5.76,-0.813 -7.91,-2.438 -2.02,-1.76 -3.03,-3.974 -3.03,-6.64 0,-4.49 2.35,-8.688 7.03,-12.594 4.57,-3.906 9.54,-5.859 14.94,-5.859"/>
	<path d="m 1153.9468,152.847 c 3.12,0 5.76,0.812 7.92,2.437 2.01,1.76 3.01,3.974 3.01,6.641 0,4.489 -2.3,8.687 -6.92,12.593 -4.68,3.907 -9.7,5.86 -15.04,5.86 -3.13,0 -5.76,-0.813 -7.91,-2.438 -2.02,-1.76 -3.03,-3.974 -3.03,-6.64 0,-4.49 2.34,-8.688 7.03,-12.594 4.56,-3.906 9.54,-5.859 14.94,-5.859"/>
	<path d="m 1292.4468,140.346 c 3.13,0 5.77,0.812 7.92,2.437 2.01,1.761 3.02,3.974 3.02,6.641 0,4.489 -2.31,8.687 -6.92,12.594 -4.69,3.906 -9.71,5.859 -15.05,5.859 -3.13,0 -5.76,-0.812 -7.91,-2.437 -2.02,-1.761 -3.03,-3.974 -3.03,-6.641 0,-4.49 2.35,-8.688 7.03,-12.594 4.57,-3.906 9.54,-5.859 14.94,-5.859"/>
	<path d="m 1404.8468,152.847 c 3.12,0 5.76,0.812 7.92,2.437 2.01,1.76 3.01,3.974 3.01,6.641 0,4.489 -2.3,8.687 -6.92,12.593 -4.69,3.907 -9.7,5.86 -15.04,5.86 -3.13,0 -5.77,-0.813 -7.91,-2.438 -2.02,-1.76 -3.03,-3.974 -3.03,-6.64 0,-4.49 2.34,-8.688 7.03,-12.594 4.56,-3.906 9.54,-5.859 14.94,-5.859"/>
	<path d="m 1517.2368,102.843 c 3.13,0 5.77,0.813 7.92,2.438 2.01,1.76 3.02,3.974 3.02,6.641 0,4.489 -2.31,8.687 -6.92,12.593 -4.69,3.907 -9.7,5.86 -15.05,5.86 -3.12,0 -5.76,-0.813 -7.9,-2.438 -2.03,-1.76 -3.04,-3.974 -3.04,-6.64 0,-4.49 2.35,-8.688 7.04,-12.594 4.56,-3.906 9.54,-5.86 14.93,-5.86"/>
	<path d="m 1695.7668,122.563 c 0,-1.104 -0.42,-2.047 -1.26,-2.828 -0.86,-0.844 -1.84,-1.266 -2.94,-1.266 -1.95,0 -5.89,1.953 -11.81,5.86 -6.13,3.968 -9.87,6.802 -11.24,8.5 -0.72,0.906 -1.08,1.849 -1.08,2.828 0,1.104 0.43,2.047 1.29,2.828 0.78,0.844 1.75,1.265 2.92,1.265 1.88,0 5.86,-1.953 11.92,-5.859 5.99,-3.906 9.7,-6.74 11.12,-8.5 0.72,-0.844 1.08,-1.786 1.08,-2.828 m -5.17,-7.219 c 5.59,0 8.39,2.406 8.39,7.219 0,2.344 -0.68,5.078 -2.05,8.203 -1.36,3.063 -3.18,5.406 -5.46,7.031 -5.01,3.386 -11.3,5.078 -18.85,5.078 -5.6,0 -8.4,-2.406 -8.4,-7.218 0,-2.146 0.68,-4.849 2.04,-8.11 1.3,-3.125 3.13,-5.5 5.47,-7.125 5.02,-3.385 11.31,-5.078 18.86,-5.078"/>
	<path d="m 1864.6368,152.847 c 3.12,0 5.76,0.812 7.92,2.437 2.01,1.76 3.01,3.974 3.01,6.641 0,4.489 -2.3,8.687 -6.92,12.593 -4.68,3.907 -9.7,5.86 -15.04,5.86 -3.13,0 -5.76,-0.813 -7.91,-2.438 -2.02,-1.76 -3.03,-3.974 -3.03,-6.64 0,-4.49 2.34,-8.688 7.03,-12.594 4.56,-3.906 9.54,-5.859 14.94,-5.859"/>
	<path d="m 1988.3368,152.847 c 3.13,0 5.77,0.812 7.93,2.437 2.01,1.76 3.01,3.974 3.01,6.641 0,4.489 -2.31,8.687 -6.92,12.593 -4.69,3.907 -9.7,5.86 -15.05,5.86 -3.12,0 -5.76,-0.813 -7.9,-2.438 -2.02,-1.76 -3.03,-3.974 -3.03,-6.64 0,-4.49 2.34,-8.688 7.03,-12.594 4.56,-3.906 9.54,-5.859 14.93,-5.859"/>
	<path d="m 52.7198,91.015 c 0,0 0.1979,0 0.5937,0 0.2605,-0.062 0.4844,-0.093 0.6719,-0.093 7.2917,0 13.2813,2.572 17.9688,7.718 4.6875,5.073 7.0312,10.995 7.0312,17.766 0,8.406 -3.4792,15.245 -10.4375,20.516 -1.8229,1.437 -4.2031,2.609 -7.1406,3.515 0.3333,4.229 0.5,7.646 0.5,10.25 0,0.521 -0.0677,2.412 -0.2031,5.672 -0.2605,6.052 -2.3438,11.292 -6.25,15.719 -3.7709,4.364 -8.4584,6.547 -14.0625,6.547 -5.2709,0 -9.7605,-1.855 -13.4688,-5.563 -3.7187,-3.781 -5.5781,-8.338 -5.5781,-13.672 0,-2.802 1.0781,-5.182 3.2344,-7.14 2.2083,-1.948 4.776,-2.922 7.7031,-2.922 2.6042,0 4.7864,1.01 6.5469,3.031 1.8229,1.885 2.7343,4.229 2.7343,7.031 0,2.532 -0.9114,4.709 -2.7343,6.532 -1.823,1.822 -4.0052,2.734 -6.5469,2.734 -1.0417,0 -2.0469,-0.193 -3.0156,-0.578 2.8645,4.229 6.6718,6.344 11.4218,6.344 4.4896,0 8.1667,-1.823 11.0313,-5.469 3,-3.771 4.6302,-8.167 4.8906,-13.188 0.125,-3.125 0.1875,-4.911 0.1875,-5.359 0,-3.646 -0.1302,-6.641 -0.3906,-8.984 -3.25,0.52 -6.1458,0.781 -8.6875,0.781 -9.0521,0 -16.7656,-3.584 -23.1406,-10.75 -6.25,-7.229 -9.375,-15.823 -9.375,-25.781 0,-2.084 0.1927,-4.198 0.5781,-6.344 0.3958,-1.761 0.8854,-3.683 1.4687,-5.766 0.323,-1.177 1.2032,-3.068 2.6407,-5.672 0.5208,-0.781 1.1067,-1.758 1.7578,-2.929 0.651,-1.172 1.1067,-1.951 1.3672,-2.336 0.6458,-1.302 1.9114,-3.063 3.7968,-5.282 0.5209,-0.583 1.0599,-1.231 1.6172,-1.945 0.5573,-0.713 1.0313,-1.299 1.4219,-1.758 0.3906,-0.458 0.6823,-0.817 0.875,-1.078 0.1927,-0.26 1.6589,-1.984 4.3984,-5.172 0.6459,-0.656 1.2787,-1.356 1.8985,-2.101 0.6198,-0.745 1.125,-1.331 1.5156,-1.758 0.3906,-0.427 0.6849,-0.734 0.8828,-0.922 -2.3437,-7.75 -3.8125,-13.937 -4.4062,-18.562 -0.448,-3.709 -0.6719,-8.787 -0.6719,-15.235 0,-5.667 1.3021,-10.974 3.9062,-15.922 C 41.7823,7.755 45.3292,3.557 49.8917,0.297 50.1521,0.099 50.475,0 50.8604,0 c 0.4583,0 0.7865,0.099 0.9844,0.297 3.5104,4.229 6.5364,9.729 9.0781,16.5 2.6042,6.77 3.9063,12.927 3.9063,18.468 0,6.25 -1.4948,12.11 -4.4844,17.578 -3.3854,5.792 -7.75,11.782 -13.0938,17.969 1.3646,4.292 3.1875,11.026 5.4688,20.203 m 8.2969,45.422 c 3.3854,-1.239 6.026,-3.354 7.9218,-6.344 2.0834,-2.864 3.125,-6.088 3.125,-9.671 0,-4.625 -1.5625,-8.73 -4.6875,-12.313 -3.1979,-3.708 -7.2708,-5.792 -12.2187,-6.25 2.8021,13.74 4.7552,25.266 5.8594,34.578 M 23.2354,113.875 c 0,6.448 2.6042,12.114 7.8125,17 5.3333,4.75 11.3229,7.125 17.9688,7.125 2.7291,0 5.3958,-0.198 8,-0.594 -1.0417,-9.896 -3.0938,-21.745 -6.1563,-35.547 -3.7083,0.396 -6.6667,1.698 -8.875,3.906 -2.1562,2.282 -3.2344,4.854 -3.2344,7.719 0,4.948 2.6407,8.953 7.9219,12.016 0.4479,0.458 0.6719,0.948 0.6719,1.468 0,0.521 -0.224,1.006 -0.6719,1.454 -0.3958,0.458 -0.8854,0.687 -1.4687,0.687 -0.0625,0 -0.3542,-0.062 -0.875,-0.187 -3.7188,-2.021 -6.5834,-4.625 -8.5938,-7.813 -1.8958,-3.396 -2.8437,-6.818 -2.8437,-10.266 0,-4.489 1.401,-8.557 4.2031,-12.203 2.9271,-3.646 6.7344,-5.989 11.4219,-7.031 -1.823,-7.292 -3.3177,-12.99 -4.4844,-17.094 -1.0417,1.177 -2.2943,2.594 -3.7578,4.25 -1.4636,1.657 -2.3255,2.651 -2.586,2.985 -2.3437,3.052 -4.1354,5.427 -5.375,7.125 -2.2187,3.062 -3.8489,5.698 -4.8906,7.906 -1.1042,2.479 -2.0781,5.182 -2.9219,8.109 -0.8437,2.802 -1.2656,5.797 -1.2656,8.985 M 55.8448,14.562 c -4.8854,2.406 -8.724,5.854 -11.5156,10.344 -2.8646,4.625 -4.2969,9.604 -4.2969,14.937 0,4.688 1.1719,11.006 3.5156,18.954 4.6875,-5.667 8.2031,-10.907 10.5469,-15.719 2.4687,-5.084 3.7031,-10.391 3.7031,-15.922 0,-4.167 -0.651,-8.365 -1.9531,-12.594"/>
	<path d="m 133.9598,65.137 c 0,0.656 0.36,1.276 1.078,1.86 1.042,0.781 1.854,1.369 2.438,1.765 0.781,0.448 1.599,1.49 2.453,3.125 0.708,1.563 1.062,3.479 1.062,5.75 0,4.5 -1.656,7.953 -4.968,10.36 -3.386,2.406 -7.683,3.609 -12.891,3.609 -4.24,0 -7.823,-1.042 -10.75,-3.125 -3.125,-1.948 -4.687,-4.682 -4.687,-8.203 0,-1.688 0.651,-3.25 1.953,-4.688 1.364,-1.239 2.927,-1.859 4.687,-1.859 1.823,0 3.323,0.651 4.5,1.953 1.302,1.24 1.953,2.771 1.953,4.594 0,0.844 -0.651,1.755 -1.953,2.734 -1.375,0.917 -2.062,1.797 -2.062,2.641 0,1.239 0.619,2.151 1.859,2.734 1.24,0.583 2.74,0.875 4.5,0.875 2.271,0 3.896,-1.104 4.875,-3.312 0.917,-2.417 1.375,-5.188 1.375,-8.313 v -1.656 c 0,-1.886 -0.068,-3.547 -0.203,-4.984 -0.125,-1.105 -0.578,-2.11 -1.359,-3.016 -0.719,-0.917 -1.86,-1.375 -3.422,-1.375 h -8.016 c -0.906,0 -1.359,-0.49 -1.359,-1.469 0,-0.844 0.453,-1.333 1.359,-1.469 h 8.016 c 1.823,0 3.125,-0.583 3.906,-1.75 0.646,-0.916 1.005,-2.546 1.078,-4.89 v -3.219 -0.781 c 0,-6.052 -2.214,-9.078 -6.641,-9.078 -3.906,0 -5.895,1.073 -5.968,3.218 0,0.719 0.619,1.5 1.859,2.344 1.177,0.844 1.766,1.625 1.766,2.344 0,1.625 -0.589,3.026 -1.766,4.203 -1.104,1.104 -2.469,1.656 -4.094,1.656 -1.562,0 -2.901,-0.552 -4.015,-1.656 -1.105,-1.24 -1.657,-2.641 -1.657,-4.203 0,-3.063 1.37,-5.568 4.11,-7.516 2.864,-1.823 6.12,-2.734 9.765,-2.734 4.875,0 8.912,0.943 12.11,2.828 3.187,1.823 4.781,4.688 4.781,8.594 0,2.802 -0.292,4.916 -0.875,6.344 -0.594,1.5 -1.245,2.411 -1.953,2.734 -0.781,0.333 -1.432,0.724 -1.953,1.172 -0.594,0.458 -0.891,1.078 -0.891,1.859"/>
	<path d="m 126.7408,92.961 c 1.948,0 3.607,-0.227 4.977,-0.68 1.37,-0.453 2.247,-0.68 2.633,-0.68 0.458,0 0.817,0.13 1.078,0.391 0.198,0.187 0.328,0.411 0.39,0.672 0,0.135 -0.067,0.333 -0.203,0.593 l -28.406,33.016 h 16.687 v -13.094 c 0,-0.843 0.23,-1.562 0.688,-2.156 0.781,-0.646 1.432,-1.036 1.953,-1.172 0.844,-0.385 1.885,-1.297 3.125,-2.734 1.042,-1.167 2.281,-3.214 3.719,-6.141 0.187,-0.396 0.479,-0.594 0.875,-0.594 0.781,0 1.234,0.459 1.359,1.375 v 24.516 h 7.141 c 0.906,0 1.427,0.484 1.562,1.453 0,0.979 -0.521,1.469 -1.562,1.469 h -7.141 v 0.781 c 0,2.604 0.651,4.818 1.953,6.641 1.5,1.823 3.261,2.734 5.282,2.734 0.781,0 1.171,0.391 1.171,1.172 0,0.781 -0.39,1.172 -1.171,1.172 -1.365,0 -3.579,-0.193 -6.641,-0.578 -2.802,-0.458 -4.984,-0.688 -6.547,-0.688 -1.625,0 -3.807,0.23 -6.547,0.688 -2.927,0.385 -5.104,0.578 -6.531,0.578 -0.781,0 -1.172,-0.391 -1.172,-1.172 0,-0.781 0.391,-1.172 1.172,-1.172 2.01,0 3.766,-0.911 5.266,-2.734 1.364,-1.886 2.046,-4.099 2.046,-6.641 v -0.781 h -16.687 c -1.115,0 -1.896,-0.26 -2.344,-0.781 -0.531,-0.386 -0.797,-0.907 -0.797,-1.563 0,-0.198 0.49,-0.88 1.469,-2.047 1.115,-1.302 2.287,-2.895 3.516,-4.781 1.437,-2.219 2.807,-4.5 4.109,-6.844 1.427,-2.666 2.568,-5.729 3.422,-9.187 0.969,-3.511 1.453,-7.089 1.453,-10.735 0,-1.041 0.458,-1.562 1.375,-1.562 0.198,0 0.62,0.099 1.266,0.297 0.198,0.062 0.606,0.159 1.226,0.289 0.62,0.13 1.123,0.258 1.508,0.383 1.177,0.198 2.287,0.297 3.328,0.297"/>
	<path d="m 228.4398,216.242 -4.797,15.469 c -1.802,5.76 -4.583,11.14 -8.344,16.14 -3.958,5.24 -7.995,7.86 -12.109,7.86 -2.167,0 -4.07,-0.56 -5.711,-1.68 -1.641,-1.12 -2.461,-2.576 -2.461,-4.367 0,-2.042 0.443,-3.766 1.328,-5.172 0.917,-1.438 2.115,-2.156 3.594,-2.156 1.167,0 2.138,0.419 2.914,1.257 0.776,0.839 1.164,1.8 1.164,2.883 0,1.042 -0.557,1.943 -1.672,2.703 -1.239,0.834 -1.859,1.672 -1.859,2.516 0,0.646 0.859,0.969 2.578,0.969 1.802,0 3.182,-0.745 4.141,-2.235 1.041,-1.593 1.88,-3.869 2.515,-6.828 0.156,-0.802 0.276,-1.343 0.36,-1.625 l 6.421,-25.734 h -4.984 c -0.437,0 -0.776,-0.162 -1.016,-0.484 -0.239,-0.396 -0.359,-0.777 -0.359,-1.141 0,-0.479 0.12,-0.839 0.359,-1.078 0.323,-0.323 0.662,-0.485 1.016,-0.485 h 5.891 c 1.552,-4.718 4.229,-8.937 8.031,-12.656 3.719,-3.635 7.719,-5.453 12,-5.453 2.198,0 4.099,0.578 5.703,1.734 1.604,1.157 2.422,2.594 2.453,4.313 0,1.927 -0.417,3.63 -1.25,5.109 -1,1.438 -2.203,2.157 -3.609,2.157 -1.156,0 -2.136,-0.409 -2.938,-1.227 -0.802,-0.818 -1.203,-1.768 -1.203,-2.852 0,-0.958 0.591,-1.807 1.774,-2.546 1.182,-0.74 1.773,-1.631 1.773,-2.672 0,-0.719 -0.901,-1.078 -2.703,-1.078 -0.958,0 -1.938,0.338 -2.938,1.015 -0.635,0.438 -1.354,1.36 -2.156,2.766 -0.521,0.875 -0.963,1.953 -1.328,3.234 -0.073,0.281 -0.349,1.719 -0.828,4.313 -0.281,1.52 -0.583,2.802 -0.906,3.843 h 5.39 c 0.448,0 0.831,0.151 1.149,0.454 0.317,0.302 0.476,0.671 0.476,1.109 0,0.437 -0.159,0.818 -0.476,1.141 -0.318,0.322 -0.701,0.484 -1.149,0.484 h -6.234"/>
	<path d="m 233.3508,85.357 h 115.189 V 97.858 H 233.3508 V 85.357" style="fill-rule:evenodd"/>
	<path d="m 348.5398,104.108 h -33.002 v 12.501 h 33.002 v -12.501" style="fill-rule:evenodd"/>
	<path d="m 1045.3468,85.357 h 119.54 v 12.501 h -119.54 V 85.357" style="fill-rule:evenodd"/>
	<path d="m 1164.8868,104.108 h -33 v 12.501 h 33 v -12.501" style="fill-rule:evenodd"/>
	<path d="m 1872.3268,85.357 h 126.96 v 12.501 h -126.96 V 85.357" style="fill-rule:evenodd"/>
	<path d="m 1999.2868,104.108 h -33 v 12.501 h 33 v -12.501" style="fill-rule:evenodd"/>
	<path d="m 186.4238,297.868 h 16.657 v -10.656 c 0,-1.979 -0.277,-3.252 -0.829,-3.82 -0.552,-0.568 -1.89,-0.945 -4.015,-1.133 v -1.047 h 15.297 v 1.047 c -2.125,0.188 -3.464,0.565 -4.016,1.133 -0.552,0.568 -0.828,1.841 -0.828,3.82 v 24.406 c 0,1.948 0.294,3.217 0.883,3.805 0.588,0.589 1.909,0.972 3.961,1.149 v 1.046 h -15.297 v -1.046 c 2.125,-0.146 3.463,-0.532 4.015,-1.157 0.552,-0.625 0.829,-2.088 0.829,-4.39 V 300.29 h -16.657 v 11.328 c 0,1.948 0.292,3.217 0.875,3.805 0.584,0.589 1.901,0.972 3.953,1.149 v 1.046 h -15.281 v -1.046 c 2.125,-0.146 3.464,-0.532 4.016,-1.157 0.552,-0.625 0.828,-2.088 0.828,-4.39 v -23.813 c 0,-1.979 -0.276,-3.252 -0.828,-3.82 -0.552,-0.568 -1.891,-0.945 -4.016,-1.133 v -1.047 h 15.281 v 1.047 c -2.125,0.188 -3.461,0.565 -4.007,1.133 -0.547,0.568 -0.821,1.841 -0.821,3.82 v 10.656 m 29.36,14.313 c 0,-0.656 0.073,-1.266 0.218,-1.828 0.146,-0.563 0.404,-1.091 0.774,-1.586 0.37,-0.495 0.719,-0.943 1.047,-1.344 0.328,-0.401 0.823,-0.81 1.484,-1.226 0.662,-0.417 1.211,-0.763 1.649,-1.039 0.437,-0.276 1.106,-0.605 2.007,-0.985 0.901,-0.38 1.589,-0.672 2.063,-0.875 0.474,-0.203 1.224,-0.505 2.25,-0.906 1.026,-0.401 1.778,-0.69 2.258,-0.867 v -3.344 c 0,-3.031 -1.396,-4.547 -4.188,-4.547 -1.094,0 -2.026,0.268 -2.797,0.805 -0.771,0.536 -1.156,1.169 -1.156,1.898 0,0.292 0.047,0.696 0.141,1.211 0.093,0.516 0.14,0.847 0.14,0.992 0,0.625 -0.247,1.167 -0.742,1.625 -0.495,0.459 -1.075,0.688 -1.742,0.688 -0.625,0 -1.175,-0.24 -1.649,-0.719 -0.474,-0.479 -0.71,-1.031 -0.71,-1.656 0,-1.719 0.888,-3.175 2.664,-4.367 1.776,-1.193 3.966,-1.789 6.57,-1.789 3.01,0 5.083,0.721 6.219,2.164 1.135,1.442 1.703,3.643 1.703,6.601 v 10.656 c 0,1.209 0.12,2.042 0.359,2.5 0.24,0.459 0.672,0.688 1.297,0.688 0.76,0 1.563,-0.349 2.406,-1.047 v 1.438 c -0.948,1.104 -1.778,1.854 -2.492,2.25 -0.713,0.395 -1.529,0.593 -2.445,0.593 -1.136,0 -1.972,-0.32 -2.508,-0.961 -0.537,-0.64 -0.878,-1.69 -1.023,-3.148 -3.146,2.74 -5.818,4.109 -8.016,4.109 -1.688,0 -3.073,-0.557 -4.156,-1.672 -1.084,-1.114 -1.625,-2.552 -1.625,-4.312 m 13.75,-1.422 v -7.922 c -3.302,1.198 -5.612,2.362 -6.93,3.492 -1.318,1.131 -1.977,2.498 -1.977,4.102 0,1.5 0.365,2.615 1.094,3.344 0.729,0.729 1.516,1.093 2.36,1.093 1.25,0 2.588,-0.416 4.015,-1.25 0.594,-0.333 0.982,-0.682 1.164,-1.046 0.182,-0.365 0.274,-0.969 0.274,-1.813 m 9.562,-14.75 v -0.875 c 2.313,-0.698 4.953,-1.635 7.922,-2.812 l 0.328,0.109 v 4.234 c 2.344,-2.895 4.985,-4.343 7.922,-4.343 2.677,0 4.878,1.104 6.602,3.312 1.724,2.208 2.586,5.021 2.586,8.438 0,3.989 -1.11,7.336 -3.329,10.039 -2.218,2.703 -4.958,4.054 -8.218,4.054 -1.177,0 -2.159,-0.156 -2.946,-0.468 -0.786,-0.313 -1.659,-0.907 -2.617,-1.782 v 8.563 c 0,1.708 0.294,2.807 0.883,3.297 0.588,0.489 1.909,0.75 3.961,0.781 v 1 h -13.313 v -0.938 c 1.615,-0.145 2.662,-0.458 3.141,-0.937 0.479,-0.479 0.719,-1.432 0.719,-2.859 v -25.735 c 0,-1.281 -0.149,-2.125 -0.446,-2.531 -0.296,-0.406 -0.903,-0.609 -1.82,-0.609 -0.583,0 -1.042,0.02 -1.375,0.062 m 8.25,3.266 v 13.593 c 0,0.813 0.633,1.625 1.899,2.438 1.265,0.812 2.539,1.219 3.82,1.219 1.979,0 3.583,-0.951 4.812,-2.852 1.23,-1.901 1.844,-4.383 1.844,-7.445 0,-3.198 -0.614,-5.766 -1.844,-7.703 -1.229,-1.938 -2.869,-2.907 -4.921,-2.907 -1.282,0 -2.537,0.407 -3.766,1.219 -1.229,0.813 -1.844,1.625 -1.844,2.438"/>
	<path d="m 305.8468,296.009 v -0.875 c 2.313,-0.698 4.953,-1.635 7.922,-2.812 l 0.328,0.109 v 4.234 c 2.344,-2.895 4.985,-4.343 7.922,-4.343 2.677,0 4.878,1.104 6.602,3.312 1.724,2.208 2.586,5.021 2.586,8.438 0,3.989 -1.11,7.336 -3.328,10.039 -2.219,2.703 -4.959,4.054 -8.219,4.054 -1.177,0 -2.159,-0.156 -2.946,-0.468 -0.786,-0.313 -1.658,-0.907 -2.617,-1.782 v 8.563 c 0,1.708 0.295,2.807 0.883,3.297 0.589,0.489 1.909,0.75 3.961,0.781 v 1 h -13.312 v -0.938 c 1.614,-0.145 2.661,-0.458 3.14,-0.937 0.479,-0.479 0.719,-1.432 0.719,-2.859 v -25.735 c 0,-1.281 -0.149,-2.125 -0.445,-2.531 -0.297,-0.406 -0.904,-0.609 -1.821,-0.609 -0.583,0 -1.041,0.02 -1.375,0.062 m 8.25,3.266 v 13.593 c 0,0.813 0.633,1.625 1.899,2.438 1.265,0.812 2.539,1.219 3.82,1.219 1.979,0 3.583,-0.951 4.813,-2.852 1.229,-1.901 1.843,-4.383 1.843,-7.445 0,-3.198 -0.614,-5.766 -1.843,-7.703 -1.23,-1.938 -2.87,-2.907 -4.922,-2.907 -1.282,0 -2.537,0.407 -3.766,1.219 -1.229,0.813 -1.844,1.625 -1.844,2.438 m 26.297,25.718 c 1.021,0 2.102,-1.138 3.242,-3.414 1.141,-2.276 1.711,-3.945 1.711,-5.007 0,-0.48 -0.807,-2.329 -2.422,-5.547 l -7.265,-15.625 c -0.438,-0.948 -1.37,-1.537 -2.797,-1.766 v -0.766 h 11.328 v 0.829 c -1.177,0.041 -2.005,0.171 -2.484,0.39 -0.48,0.219 -0.719,0.584 -0.719,1.094 0,0.552 0.187,1.25 0.562,2.094 l 6.313,13.906 5.344,-15.172 c 0.145,-0.333 0.218,-0.646 0.218,-0.937 0,-0.917 -0.88,-1.375 -2.64,-1.375 v -0.829 h 7.422 v 0.829 c -0.657,0.073 -1.177,0.283 -1.563,0.632 -0.385,0.349 -0.745,0.961 -1.078,1.836 l -8.469,22.438 c -1.468,3.958 -2.927,6.781 -4.375,8.469 -1.448,1.687 -3.088,2.531 -4.922,2.531 -1.166,0 -2.135,-0.302 -2.906,-0.906 -0.771,-0.605 -1.156,-1.365 -1.156,-2.282 0,-0.656 0.237,-1.224 0.711,-1.703 0.474,-0.479 1.023,-0.719 1.648,-0.719 0.813,0 1.677,0.167 2.594,0.5 0.917,0.334 1.484,0.5 1.703,0.5"/>
	<path d="m 426.8818,280.165 v 16.688 c 0.552,-1.313 1.542,-2.396 2.969,-3.25 1.427,-0.854 2.984,-1.281 4.672,-1.281 2.75,0 5.052,1.14 6.906,3.421 1.854,2.282 2.781,5.099 2.781,8.454 0,3.937 -1.237,7.25 -3.711,9.937 -2.474,2.688 -5.528,4.031 -9.164,4.031 -2.198,0 -4.26,-0.367 -6.187,-1.101 -1.927,-0.735 -2.891,-1.513 -2.891,-2.336 v -28.625 c 0,-1.136 -0.172,-1.886 -0.515,-2.25 -0.344,-0.365 -1.068,-0.547 -2.172,-0.547 -0.406,0 -0.719,0.016 -0.938,0.047 v -0.875 c 2.823,-0.698 5.485,-1.505 7.985,-2.422 l 0.265,0.109 m 0,19.641 v 14.031 c 0,0.709 0.532,1.334 1.594,1.875 1.063,0.542 2.313,0.813 3.75,0.813 2.271,0 4.029,-0.857 5.273,-2.571 1.245,-1.713 1.868,-4.112 1.868,-7.195 0,-3.375 -0.633,-6.075 -1.899,-8.101 -1.265,-2.026 -2.976,-3.04 -5.133,-3.04 -1.437,0 -2.705,0.428 -3.804,1.282 -1.099,0.854 -1.649,1.823 -1.649,2.906 m 22.11,-3.797 c -0.802,0 -1.573,0.052 -2.313,0.156 v -0.812 c 2.573,-0.74 5.417,-1.75 8.531,-3.031 l 0.219,0.171 v 19.516 c 0,1.979 0.229,3.234 0.688,3.766 0.458,0.531 1.583,0.87 3.375,1.015 v 0.828 h -13.032 v -0.828 c 1.907,-0.104 3.107,-0.432 3.602,-0.984 0.495,-0.552 0.742,-1.818 0.742,-3.797 v -12.766 c 0,-1.208 -0.135,-2.049 -0.406,-2.523 -0.271,-0.474 -0.74,-0.711 -1.406,-0.711 m 3.64,-15.953 c 0.802,0 1.479,0.276 2.032,0.828 0.552,0.552 0.828,1.214 0.828,1.984 0,0.803 -0.276,1.469 -0.828,2 -0.553,0.532 -1.23,0.797 -2.032,0.797 -0.771,0 -1.422,-0.273 -1.953,-0.82 -0.531,-0.547 -0.797,-1.206 -0.797,-1.977 0,-0.77 0.274,-1.432 0.821,-1.984 0.546,-0.552 1.19,-0.828 1.929,-0.828 m 24.782,17.656 c -0.542,0 -1.217,-0.349 -2.024,-1.047 -0.807,-0.698 -1.341,-1.047 -1.601,-1.047 -0.73,0 -1.553,0.537 -2.469,1.61 -0.917,1.073 -1.375,2.052 -1.375,2.937 v 12.469 c 0,1.594 0.31,2.667 0.929,3.219 0.62,0.552 1.868,0.864 3.743,0.937 v 0.828 h -13.203 v -0.828 c 1.76,-0.333 2.851,-0.703 3.273,-1.109 0.422,-0.406 0.633,-1.313 0.633,-2.719 v -13.844 c 0,-1.218 -0.138,-2.078 -0.414,-2.578 -0.276,-0.5 -0.763,-0.75 -1.461,-0.75 -0.584,0 -1.224,0.073 -1.922,0.219 v -0.859 c 2.937,-0.907 5.651,-1.849 8.141,-2.828 l 0.281,0.109 v 4.906 c 1.354,-1.885 2.508,-3.192 3.461,-3.922 0.953,-0.729 1.997,-1.093 3.133,-1.093 0.958,0 1.703,0.257 2.234,0.773 0.531,0.516 0.797,1.232 0.797,2.148 0,0.761 -0.193,1.362 -0.578,1.805 -0.386,0.443 -0.912,0.664 -1.578,0.664 m 16.671,-4.844 v 1.657 h -5.562 v 15.718 c 0,1.73 0.221,2.987 0.664,3.774 0.443,0.786 1.174,1.18 2.195,1.18 1.136,0 2.235,-0.641 3.297,-1.922 l 0.719,0.609 c -1.761,2.854 -3.958,4.281 -6.594,4.281 -3.271,0 -4.906,-2.338 -4.906,-7.015 v -16.625 h -2.906 c -0.146,-0.104 -0.219,-0.224 -0.219,-0.36 0,-0.177 0.055,-0.317 0.164,-0.422 0.109,-0.104 0.32,-0.25 0.633,-0.437 0.312,-0.188 0.687,-0.458 1.125,-0.813 0.437,-0.354 1.041,-0.994 1.812,-1.921 0.771,-0.927 1.615,-2.042 2.532,-3.344 0.583,-0.854 0.947,-1.375 1.093,-1.563 0.261,0 0.391,0.245 0.391,0.735 v 6.468 h 5.562 m 10,5.891 v 13.25 c 0,1.906 0.222,3.136 0.664,3.688 0.443,0.552 1.467,0.916 3.071,1.093 v 0.828 h -11.875 v -0.828 c 1.583,-0.218 2.565,-0.583 2.945,-1.093 0.38,-0.511 0.57,-1.74 0.57,-3.688 v -25.906 c 0,-1.167 -0.153,-1.935 -0.461,-2.305 -0.307,-0.37 -0.992,-0.555 -2.054,-0.555 -0.261,0 -0.573,0.037 -0.938,0.11 v -0.875 c 2.604,-0.698 5.203,-1.505 7.797,-2.422 l 0.281,0.172 v 16.719 c 1.25,-1.657 2.508,-2.842 3.774,-3.555 1.265,-0.714 2.7,-1.07 4.305,-1.07 4.51,0 6.765,2.916 6.765,8.75 v 10.937 c 0,1.906 0.175,3.107 0.524,3.602 0.349,0.494 1.278,0.888 2.789,1.179 v 0.828 h -11.672 v -0.828 c 1.583,-0.145 2.604,-0.51 3.062,-1.093 0.459,-0.584 0.688,-1.813 0.688,-3.688 v -10.891 c 0,-3.885 -1.375,-5.828 -4.125,-5.828 -1.063,0 -2.063,0.266 -3,0.797 -0.938,0.531 -1.974,1.422 -3.11,2.672"/>
	<path d="m 562.7938,318.165 -0.219,-0.172 v -3.609 c -1.76,2.521 -4.109,3.781 -7.047,3.781 -3.041,0 -5.497,-1.091 -7.367,-3.273 -1.87,-2.182 -2.805,-5.039 -2.805,-8.57 0,-3.875 1.117,-7.177 3.352,-9.907 2.234,-2.729 4.93,-4.093 8.086,-4.093 1.979,0 3.906,0.823 5.781,2.468 v -8.656 c 0,-1.146 -0.167,-1.904 -0.5,-2.273 -0.333,-0.37 -1.01,-0.555 -2.031,-0.555 -0.521,0 -0.927,0.016 -1.219,0.047 v -0.875 c 3.344,-0.875 6.042,-1.682 8.094,-2.422 l 0.265,0.109 v 31.094 c 0,1.281 0.157,2.123 0.469,2.524 0.313,0.401 0.964,0.601 1.953,0.601 0.188,0 0.61,-0.021 1.266,-0.062 v 0.875 l -8.078,2.968 m -5.125,-2.968 c 1.396,0 2.562,-0.391 3.5,-1.172 0.937,-0.782 1.406,-1.479 1.406,-2.094 v -12.516 c 0,-1.448 -0.57,-2.716 -1.711,-3.804 -1.141,-1.089 -2.44,-1.633 -3.898,-1.633 -2.094,0 -3.763,0.924 -5.008,2.773 -1.245,1.849 -1.867,4.315 -1.867,7.399 0,3.333 0.695,6.008 2.086,8.023 1.39,2.016 3.221,3.024 5.492,3.024 m 15.125,-3.016 c 0,-0.656 0.073,-1.266 0.219,-1.828 0.145,-0.563 0.403,-1.091 0.773,-1.586 0.37,-0.495 0.719,-0.943 1.047,-1.344 0.328,-0.401 0.823,-0.81 1.484,-1.226 0.662,-0.417 1.211,-0.763 1.649,-1.039 0.437,-0.276 1.106,-0.605 2.007,-0.985 0.902,-0.38 1.589,-0.672 2.063,-0.875 0.474,-0.203 1.224,-0.505 2.25,-0.906 1.026,-0.401 1.779,-0.69 2.258,-0.867 v -3.344 c 0,-3.031 -1.396,-4.547 -4.188,-4.547 -1.093,0 -2.026,0.268 -2.797,0.805 -0.77,0.536 -1.156,1.169 -1.156,1.898 0,0.292 0.047,0.696 0.141,1.211 0.094,0.516 0.14,0.847 0.14,0.992 0,0.625 -0.247,1.167 -0.742,1.625 -0.495,0.459 -1.075,0.688 -1.742,0.688 -0.625,0 -1.174,-0.24 -1.648,-0.719 -0.474,-0.479 -0.711,-1.031 -0.711,-1.656 0,-1.719 0.888,-3.175 2.664,-4.367 1.776,-1.193 3.966,-1.789 6.57,-1.789 3.01,0 5.083,0.721 6.219,2.164 1.135,1.442 1.703,3.643 1.703,6.601 v 10.656 c 0,1.209 0.12,2.042 0.359,2.5 0.24,0.459 0.672,0.688 1.297,0.688 0.761,0 1.563,-0.349 2.406,-1.047 v 1.438 c -0.947,1.104 -1.778,1.854 -2.492,2.25 -0.713,0.395 -1.528,0.593 -2.445,0.593 -1.135,0 -1.971,-0.32 -2.508,-0.961 -0.536,-0.64 -0.877,-1.69 -1.023,-3.148 -3.146,2.74 -5.818,4.109 -8.016,4.109 -1.687,0 -3.073,-0.557 -4.156,-1.672 -1.084,-1.114 -1.625,-2.552 -1.625,-4.312 m 13.75,-1.422 v -7.922 c -3.302,1.198 -5.612,2.362 -6.93,3.492 -1.318,1.131 -1.976,2.498 -1.976,4.102 0,1.5 0.364,2.615 1.093,3.344 0.729,0.729 1.516,1.093 2.36,1.093 1.25,0 2.588,-0.416 4.015,-1.25 0.594,-0.333 0.982,-0.682 1.164,-1.046 0.183,-0.365 0.274,-0.969 0.274,-1.813 m 16.609,14.234 c 1.021,0 2.102,-1.138 3.242,-3.414 1.141,-2.276 1.711,-3.945 1.711,-5.007 0,-0.48 -0.807,-2.329 -2.422,-5.547 l -7.265,-15.625 c -0.438,-0.948 -1.37,-1.537 -2.797,-1.766 v -0.766 h 11.328 v 0.829 c -1.177,0.041 -2.005,0.171 -2.484,0.39 -0.479,0.219 -0.719,0.584 -0.719,1.094 0,0.552 0.187,1.25 0.562,2.094 l 6.313,13.906 5.344,-15.172 c 0.146,-0.333 0.218,-0.646 0.218,-0.937 0,-0.917 -0.88,-1.375 -2.64,-1.375 v -0.829 h 7.422 v 0.829 c -0.657,0.073 -1.177,0.283 -1.563,0.632 -0.385,0.349 -0.745,0.961 -1.078,1.836 l -8.469,22.438 c -1.468,3.958 -2.927,6.781 -4.375,8.469 -1.448,1.687 -3.088,2.531 -4.922,2.531 -1.166,0 -2.135,-0.302 -2.906,-0.906 -0.771,-0.605 -1.156,-1.365 -1.156,-2.282 0,-0.656 0.237,-1.224 0.711,-1.703 0.474,-0.479 1.023,-0.719 1.648,-0.719 0.813,0 1.677,0.167 2.594,0.5 0.917,0.334 1.484,0.5 1.703,0.5"/>
	<path d="m 688.6268,292.868 v 1.657 h -5.562 v 15.718 c 0,1.73 0.221,2.987 0.664,3.774 0.443,0.786 1.174,1.18 2.195,1.18 1.136,0 2.234,-0.641 3.297,-1.922 l 0.719,0.609 c -1.761,2.854 -3.959,4.281 -6.594,4.281 -3.271,0 -4.906,-2.338 -4.906,-7.015 v -16.625 h -2.907 c -0.145,-0.104 -0.218,-0.224 -0.218,-0.36 0,-0.177 0.054,-0.317 0.164,-0.422 0.109,-0.104 0.32,-0.25 0.633,-0.437 0.312,-0.188 0.687,-0.458 1.125,-0.813 0.437,-0.354 1.041,-0.994 1.812,-1.921 0.771,-0.927 1.615,-2.042 2.531,-3.344 0.584,-0.854 0.948,-1.375 1.094,-1.563 0.261,0 0.391,0.245 0.391,0.735 v 6.468 h 5.562 m 14.844,-0.546 c 3.521,0 6.417,1.174 8.687,3.523 2.271,2.349 3.407,5.32 3.407,8.914 0,3.813 -1.172,7 -3.516,9.563 -2.344,2.562 -5.239,3.843 -8.687,3.843 -3.448,0 -6.318,-1.237 -8.61,-3.711 -2.291,-2.474 -3.437,-5.559 -3.437,-9.257 0,-3.782 1.127,-6.873 3.383,-9.274 2.255,-2.401 5.179,-3.601 8.773,-3.601 m -7.203,10.203 c 0,3.885 0.713,7.19 2.14,9.914 1.428,2.724 3.297,4.086 5.61,4.086 2.052,0 3.664,-0.873 4.836,-2.617 1.172,-1.745 1.758,-4.159 1.758,-7.243 0,-3.739 -0.732,-6.789 -2.196,-9.148 -1.463,-2.359 -3.351,-3.539 -5.664,-3.539 -1.937,0 -3.502,0.779 -4.695,2.336 -1.193,1.557 -1.789,3.627 -1.789,6.211"/>
	<path d="m 833.1298,324.993 c 1.021,0 2.101,-1.138 3.242,-3.414 1.141,-2.276 1.711,-3.945 1.711,-5.007 0,-0.48 -0.807,-2.329 -2.422,-5.547 l -7.266,-15.625 c -0.437,-0.948 -1.369,-1.537 -2.797,-1.766 v -0.766 h 11.329 v 0.829 c -1.177,0.041 -2.006,0.171 -2.485,0.39 -0.479,0.219 -0.719,0.584 -0.719,1.094 0,0.552 0.188,1.25 0.563,2.094 l 6.312,13.906 5.344,-15.172 c 0.146,-0.333 0.219,-0.646 0.219,-0.937 0,-0.917 -0.88,-1.375 -2.641,-1.375 v -0.829 h 7.422 v 0.829 c -0.656,0.073 -1.177,0.283 -1.562,0.632 -0.386,0.349 -0.745,0.961 -1.078,1.836 l -8.469,22.438 c -1.469,3.958 -2.927,6.781 -4.375,8.469 -1.448,1.687 -3.089,2.531 -4.922,2.531 -1.167,0 -2.135,-0.302 -2.906,-0.906 -0.771,-0.605 -1.157,-1.365 -1.157,-2.282 0,-0.656 0.237,-1.224 0.711,-1.703 0.474,-0.479 1.024,-0.719 1.649,-0.719 0.812,0 1.677,0.167 2.594,0.5 0.916,0.334 1.484,0.5 1.703,0.5 m 31.609,-32.671 c 3.521,0 6.417,1.174 8.688,3.523 2.27,2.349 3.406,5.32 3.406,8.914 0,3.813 -1.172,7 -3.516,9.563 -2.344,2.562 -5.239,3.843 -8.687,3.843 -3.448,0 -6.318,-1.237 -8.61,-3.711 -2.291,-2.474 -3.437,-5.559 -3.437,-9.257 0,-3.782 1.127,-6.873 3.383,-9.274 2.255,-2.401 5.179,-3.601 8.773,-3.601 m -7.203,10.203 c 0,3.885 0.714,7.19 2.141,9.914 1.427,2.724 3.296,4.086 5.609,4.086 2.052,0 3.664,-0.873 4.836,-2.617 1.172,-1.745 1.758,-4.159 1.758,-7.243 0,-3.739 -0.732,-6.789 -2.196,-9.148 -1.463,-2.359 -3.351,-3.539 -5.664,-3.539 -1.937,0 -3.502,0.779 -4.695,2.336 -1.193,1.557 -1.789,3.627 -1.789,6.211 m 47.062,12.234 v 0.766 c -2.854,0.802 -5.364,1.666 -7.531,2.593 l -0.219,-0.125 v -4.656 c -0.104,0.104 -0.424,0.433 -0.96,0.985 -0.537,0.552 -0.915,0.932 -1.133,1.14 -0.219,0.209 -0.594,0.531 -1.125,0.969 -0.532,0.437 -0.998,0.75 -1.399,0.937 -0.401,0.188 -0.914,0.368 -1.539,0.54 -0.625,0.171 -1.25,0.257 -1.875,0.257 -2.01,0 -3.622,-0.658 -4.836,-1.976 -1.213,-1.318 -1.82,-3.071 -1.82,-5.258 V 297.15 c 0,-1.282 -0.237,-2.17 -0.711,-2.664 -0.474,-0.495 -1.372,-0.779 -2.695,-0.852 v -0.766 h 8.031 v 17.844 c 0,1.125 0.385,2.099 1.156,2.922 0.771,0.823 1.688,1.234 2.75,1.234 0.406,0 0.883,-0.054 1.43,-0.164 0.547,-0.109 1.177,-0.317 1.891,-0.625 0.713,-0.307 1.32,-0.799 1.82,-1.476 0.5,-0.677 0.75,-1.511 0.75,-2.5 v -12.844 c 0,-1.354 -0.25,-2.25 -0.75,-2.687 -0.5,-0.438 -1.61,-0.693 -3.328,-0.766 v -0.938 h 8.687 v 18.766 c 0,1.281 0.203,2.123 0.61,2.524 0.406,0.401 1.25,0.601 2.531,0.601 h 0.265 m 8.36,2.969 c 0,0 -0.146,0.036 -0.438,0.109 -0.333,0.073 -0.682,0.11 -1.047,0.11 -0.989,0 -1.778,-0.248 -2.367,-0.743 -0.588,-0.494 -0.883,-1.179 -0.883,-2.054 0,-0.917 0.303,-1.67 0.907,-2.258 0.604,-0.589 1.385,-0.883 2.343,-0.883 1.24,0 2.282,0.469 3.125,1.406 0.844,0.938 1.266,2.099 1.266,3.485 0,1.656 -0.568,3.252 -1.703,4.789 -1.135,1.536 -2.62,2.763 -4.453,3.679 l -0.5,-1.046 c 3.01,-2.052 4.515,-3.995 4.515,-5.829 0,-0.51 -0.255,-0.765 -0.765,-0.765"/>
	<path d="m 1001.8268,298.759 v 13.25 c 0,1.906 0.22,3.136 0.66,3.688 0.44,0.552 1.47,0.916 3.07,1.093 v 0.828 h -11.87 v -0.828 c 1.58,-0.218 2.56,-0.583 2.94,-1.093 0.38,-0.511 0.57,-1.74 0.57,-3.688 v -25.906 c 0,-1.167 -0.15,-1.935 -0.46,-2.305 -0.31,-0.37 -0.99,-0.555 -2.05,-0.555 -0.26,0 -0.58,0.037 -0.94,0.11 v -0.875 c 2.6,-0.698 5.2,-1.505 7.8,-2.422 l 0.28,0.172 v 16.719 c 1.25,-1.657 2.51,-2.842 3.77,-3.555 1.27,-0.714 2.7,-1.07 4.31,-1.07 4.51,0 6.76,2.916 6.76,8.75 v 10.937 c 0,1.906 0.18,3.107 0.52,3.602 0.35,0.494 1.28,0.888 2.79,1.179 v 0.828 h -11.67 v -0.828 c 1.59,-0.145 2.61,-0.51 3.06,-1.093 0.46,-0.584 0.69,-1.813 0.69,-3.688 v -10.891 c 0,-3.885 -1.37,-5.828 -4.12,-5.828 -1.07,0 -2.07,0.266 -3,0.797 -0.94,0.531 -1.98,1.422 -3.11,2.672 m 20.06,13.422 c 0,-0.656 0.07,-1.266 0.22,-1.828 0.14,-0.563 0.4,-1.091 0.77,-1.586 0.37,-0.495 0.72,-0.943 1.05,-1.344 0.33,-0.401 0.82,-0.81 1.48,-1.226 0.66,-0.417 1.21,-0.763 1.65,-1.039 0.44,-0.276 1.11,-0.605 2.01,-0.985 0.9,-0.38 1.59,-0.672 2.06,-0.875 0.48,-0.203 1.23,-0.505 2.25,-0.906 1.03,-0.401 1.78,-0.69 2.26,-0.867 v -3.344 c 0,-3.031 -1.4,-4.547 -4.19,-4.547 -1.09,0 -2.02,0.268 -2.79,0.805 -0.78,0.536 -1.16,1.169 -1.16,1.898 0,0.292 0.05,0.696 0.14,1.211 0.09,0.516 0.14,0.847 0.14,0.992 0,0.625 -0.25,1.167 -0.74,1.625 -0.5,0.459 -1.08,0.688 -1.74,0.688 -0.63,0 -1.18,-0.24 -1.65,-0.719 -0.48,-0.479 -0.71,-1.031 -0.71,-1.656 0,-1.719 0.88,-3.175 2.66,-4.367 1.78,-1.193 3.97,-1.789 6.57,-1.789 3.01,0 5.08,0.721 6.22,2.164 1.14,1.442 1.7,3.643 1.7,6.601 v 10.656 c 0,1.209 0.12,2.042 0.36,2.5 0.24,0.459 0.67,0.688 1.3,0.688 0.76,0 1.56,-0.349 2.41,-1.047 v 1.438 c -0.95,1.104 -1.78,1.854 -2.5,2.25 -0.71,0.395 -1.53,0.593 -2.44,0.593 -1.14,0 -1.97,-0.32 -2.51,-0.961 -0.54,-0.64 -0.88,-1.69 -1.02,-3.148 -3.15,2.74 -5.82,4.109 -8.02,4.109 -1.69,0 -3.07,-0.557 -4.15,-1.672 -1.09,-1.114 -1.63,-2.552 -1.63,-4.312 m 13.75,-1.422 v -7.922 c -3.3,1.198 -5.61,2.362 -6.93,3.492 -1.32,1.131 -1.98,2.498 -1.98,4.102 0,1.5 0.37,2.615 1.1,3.344 0.73,0.729 1.51,1.093 2.36,1.093 1.25,0 2.59,-0.416 4.01,-1.25 0.6,-0.333 0.98,-0.682 1.17,-1.046 0.18,-0.365 0.27,-0.969 0.27,-1.813 m 9.56,-14.75 v -0.875 c 2.32,-0.698 4.96,-1.635 7.92,-2.812 l 0.33,0.109 v 4.234 c 2.35,-2.895 4.99,-4.343 7.92,-4.343 2.68,0 4.88,1.104 6.61,3.312 1.72,2.208 2.58,5.021 2.58,8.438 0,3.989 -1.11,7.336 -3.33,10.039 -2.21,2.703 -4.95,4.054 -8.21,4.054 -1.18,0 -2.16,-0.156 -2.95,-0.468 -0.79,-0.313 -1.66,-0.907 -2.62,-1.782 v 8.563 c 0,1.708 0.3,2.807 0.89,3.297 0.58,0.489 1.9,0.75 3.96,0.781 v 1 h -13.32 v -0.938 c 1.62,-0.145 2.67,-0.458 3.14,-0.937 0.48,-0.479 0.72,-1.432 0.72,-2.859 v -25.735 c 0,-1.281 -0.15,-2.125 -0.44,-2.531 -0.3,-0.406 -0.91,-0.609 -1.82,-0.609 -0.59,0 -1.04,0.02 -1.38,0.062 m 8.25,3.266 v 13.593 c 0,0.813 0.64,1.625 1.9,2.438 1.27,0.812 2.54,1.219 3.82,1.219 1.98,0 3.58,-0.951 4.81,-2.852 1.23,-1.901 1.85,-4.383 1.85,-7.445 0,-3.198 -0.62,-5.766 -1.85,-7.703 -1.23,-1.938 -2.87,-2.907 -4.92,-2.907 -1.28,0 -2.53,0.407 -3.76,1.219 -1.23,0.813 -1.85,1.625 -1.85,2.438"/>
	<path d="m 1122.1968,296.009 v -0.875 c 2.31,-0.698 4.96,-1.635 7.92,-2.812 l 0.33,0.109 v 4.234 c 2.35,-2.895 4.99,-4.343 7.92,-4.343 2.68,0 4.88,1.104 6.61,3.312 1.72,2.208 2.58,5.021 2.58,8.438 0,3.989 -1.11,7.336 -3.33,10.039 -2.22,2.703 -4.96,4.054 -8.22,4.054 -1.17,0 -2.15,-0.156 -2.94,-0.468 -0.79,-0.313 -1.66,-0.907 -2.62,-1.782 v 8.563 c 0,1.708 0.3,2.807 0.88,3.297 0.59,0.489 1.91,0.75 3.97,0.781 v 1 h -13.32 v -0.938 c 1.62,-0.145 2.66,-0.458 3.14,-0.937 0.48,-0.479 0.72,-1.432 0.72,-2.859 v -25.735 c 0,-1.281 -0.15,-2.125 -0.44,-2.531 -0.3,-0.406 -0.91,-0.609 -1.82,-0.609 -0.59,0 -1.04,0.02 -1.38,0.062 m 8.25,3.266 v 13.593 c 0,0.813 0.63,1.625 1.9,2.438 1.27,0.812 2.54,1.219 3.82,1.219 1.98,0 3.58,-0.951 4.81,-2.852 1.23,-1.901 1.85,-4.383 1.85,-7.445 0,-3.198 -0.62,-5.766 -1.85,-7.703 -1.23,-1.938 -2.87,-2.907 -4.92,-2.907 -1.28,0 -2.54,0.407 -3.76,1.219 -1.23,0.813 -1.85,1.625 -1.85,2.438 m 26.3,25.718 c 1.02,0 2.1,-1.138 3.24,-3.414 1.14,-2.276 1.71,-3.945 1.71,-5.007 0,-0.48 -0.81,-2.329 -2.42,-5.547 l -7.27,-15.625 c -0.43,-0.948 -1.37,-1.537 -2.79,-1.766 v -0.766 h 11.33 v 0.829 c -1.18,0.041 -2.01,0.171 -2.49,0.39 -0.48,0.219 -0.72,0.584 -0.72,1.094 0,0.552 0.19,1.25 0.57,2.094 l 6.31,13.906 5.34,-15.172 c 0.15,-0.333 0.22,-0.646 0.22,-0.937 0,-0.917 -0.88,-1.375 -2.64,-1.375 v -0.829 h 7.42 v 0.829 c -0.65,0.073 -1.18,0.283 -1.56,0.632 -0.39,0.349 -0.75,0.961 -1.08,1.836 l -8.47,22.438 c -1.47,3.958 -2.93,6.781 -4.37,8.469 -1.45,1.687 -3.09,2.531 -4.92,2.531 -1.17,0 -2.14,-0.302 -2.91,-0.906 -0.77,-0.605 -1.16,-1.365 -1.16,-2.282 0,-0.656 0.24,-1.224 0.71,-1.703 0.48,-0.479 1.03,-0.719 1.65,-0.719 0.81,0 1.68,0.167 2.6,0.5 0.91,0.334 1.48,0.5 1.7,0.5"/>
	<path d="m 1243.2368,280.165 v 16.688 c 0.55,-1.313 1.54,-2.396 2.97,-3.25 1.42,-0.854 2.98,-1.281 4.67,-1.281 2.75,0 5.05,1.14 6.9,3.421 1.86,2.282 2.79,5.099 2.79,8.454 0,3.937 -1.24,7.25 -3.72,9.937 -2.47,2.688 -5.52,4.031 -9.16,4.031 -2.2,0 -4.26,-0.367 -6.19,-1.101 -1.92,-0.735 -2.89,-1.513 -2.89,-2.336 v -28.625 c 0,-1.136 -0.17,-1.886 -0.51,-2.25 -0.35,-0.365 -1.07,-0.547 -2.18,-0.547 -0.4,0 -0.71,0.016 -0.93,0.047 v -0.875 c 2.82,-0.698 5.48,-1.505 7.98,-2.422 l 0.27,0.109 m 0,19.641 v 14.031 c 0,0.709 0.53,1.334 1.59,1.875 1.06,0.542 2.31,0.813 3.75,0.813 2.27,0 4.03,-0.857 5.27,-2.571 1.25,-1.713 1.87,-4.112 1.87,-7.195 0,-3.375 -0.63,-6.075 -1.9,-8.101 -1.26,-2.026 -2.97,-3.04 -5.13,-3.04 -1.44,0 -2.71,0.428 -3.8,1.282 -1.1,0.854 -1.65,1.823 -1.65,2.906 m 22.11,-3.797 c -0.81,0 -1.58,0.052 -2.32,0.156 v -0.812 c 2.58,-0.74 5.42,-1.75 8.54,-3.031 l 0.21,0.171 v 19.516 c 0,1.979 0.23,3.234 0.69,3.766 0.46,0.531 1.58,0.87 3.38,1.015 v 0.828 h -13.03 v -0.828 c 1.9,-0.104 3.1,-0.432 3.6,-0.984 0.49,-0.552 0.74,-1.818 0.74,-3.797 v -12.766 c 0,-1.208 -0.14,-2.049 -0.41,-2.523 -0.27,-0.474 -0.74,-0.711 -1.4,-0.711 m 3.64,-15.953 c 0.8,0 1.48,0.276 2.03,0.828 0.55,0.552 0.83,1.214 0.83,1.984 0,0.803 -0.28,1.469 -0.83,2 -0.55,0.532 -1.23,0.797 -2.03,0.797 -0.77,0 -1.42,-0.273 -1.96,-0.82 -0.53,-0.547 -0.79,-1.206 -0.79,-1.977 0,-0.77 0.27,-1.432 0.82,-1.984 0.54,-0.552 1.19,-0.828 1.93,-0.828 m 24.78,17.656 c -0.54,0 -1.22,-0.349 -2.03,-1.047 -0.8,-0.698 -1.34,-1.047 -1.6,-1.047 -0.73,0 -1.55,0.537 -2.47,1.61 -0.91,1.073 -1.37,2.052 -1.37,2.937 v 12.469 c 0,1.594 0.31,2.667 0.93,3.219 0.62,0.552 1.87,0.864 3.74,0.937 v 0.828 h -13.2 v -0.828 c 1.76,-0.333 2.85,-0.703 3.27,-1.109 0.42,-0.406 0.63,-1.313 0.63,-2.719 v -13.844 c 0,-1.218 -0.13,-2.078 -0.41,-2.578 -0.28,-0.5 -0.76,-0.75 -1.46,-0.75 -0.58,0 -1.22,0.073 -1.92,0.219 v -0.859 c 2.94,-0.907 5.65,-1.849 8.14,-2.828 l 0.28,0.109 v 4.906 c 1.35,-1.885 2.51,-3.192 3.46,-3.922 0.95,-0.729 2,-1.093 3.13,-1.093 0.96,0 1.71,0.257 2.24,0.773 0.53,0.516 0.79,1.232 0.79,2.148 0,0.761 -0.19,1.362 -0.57,1.805 -0.39,0.443 -0.92,0.664 -1.58,0.664 m 16.67,-4.844 v 1.657 h -5.56 v 15.718 c 0,1.73 0.22,2.987 0.66,3.774 0.44,0.786 1.18,1.18 2.2,1.18 1.13,0 2.23,-0.641 3.29,-1.922 l 0.72,0.609 c -1.76,2.854 -3.96,4.281 -6.59,4.281 -3.27,0 -4.91,-2.338 -4.91,-7.015 v -16.625 h -2.9 c -0.15,-0.104 -0.22,-0.224 -0.22,-0.36 0,-0.177 0.05,-0.317 0.16,-0.422 0.11,-0.104 0.32,-0.25 0.63,-0.437 0.32,-0.188 0.69,-0.458 1.13,-0.813 0.44,-0.354 1.04,-0.994 1.81,-1.921 0.77,-0.927 1.62,-2.042 2.53,-3.344 0.59,-0.854 0.95,-1.375 1.1,-1.563 0.26,0 0.39,0.245 0.39,0.735 v 6.468 h 5.56 m 10,5.891 v 13.25 c 0,1.906 0.22,3.136 0.66,3.688 0.45,0.552 1.47,0.916 3.07,1.093 v 0.828 h -11.87 v -0.828 c 1.58,-0.218 2.56,-0.583 2.94,-1.093 0.38,-0.511 0.58,-1.74 0.58,-3.688 v -25.906 c 0,-1.167 -0.16,-1.935 -0.47,-2.305 -0.3,-0.37 -0.99,-0.555 -2.05,-0.555 -0.26,0 -0.57,0.037 -0.94,0.11 v -0.875 c 2.61,-0.698 5.21,-1.505 7.8,-2.422 l 0.28,0.172 v 16.719 c 1.25,-1.657 2.51,-2.842 3.77,-3.555 1.27,-0.714 2.7,-1.07 4.31,-1.07 4.51,0 6.76,2.916 6.76,8.75 v 10.937 c 0,1.906 0.18,3.107 0.53,3.602 0.35,0.494 1.28,0.888 2.79,1.179 v 0.828 h -11.68 v -0.828 c 1.59,-0.145 2.61,-0.51 3.07,-1.093 0.46,-0.584 0.68,-1.813 0.68,-3.688 v -10.891 c 0,-3.885 -1.37,-5.828 -4.12,-5.828 -1.06,0 -2.06,0.266 -3,0.797 -0.94,0.531 -1.97,1.422 -3.11,2.672"/>
	<path d="m 1379.1468,318.165 -0.22,-0.172 v -3.609 c -1.76,2.521 -4.11,3.781 -7.05,3.781 -3.04,0 -5.49,-1.091 -7.36,-3.273 -1.87,-2.182 -2.81,-5.039 -2.81,-8.57 0,-3.875 1.12,-7.177 3.35,-9.907 2.24,-2.729 4.93,-4.093 8.09,-4.093 1.98,0 3.9,0.823 5.78,2.468 v -8.656 c 0,-1.146 -0.17,-1.904 -0.5,-2.273 -0.33,-0.37 -1.01,-0.555 -2.03,-0.555 -0.52,0 -0.93,0.016 -1.22,0.047 v -0.875 c 3.34,-0.875 6.04,-1.682 8.09,-2.422 l 0.27,0.109 v 31.094 c 0,1.281 0.16,2.123 0.47,2.524 0.31,0.401 0.96,0.601 1.95,0.601 0.19,0 0.61,-0.021 1.27,-0.062 v 0.875 l -8.08,2.968 m -5.13,-2.968 c 1.4,0 2.57,-0.391 3.5,-1.172 0.94,-0.782 1.41,-1.479 1.41,-2.094 v -12.516 c 0,-1.448 -0.57,-2.716 -1.71,-3.804 -1.14,-1.089 -2.44,-1.633 -3.9,-1.633 -2.09,0 -3.76,0.924 -5.01,2.773 -1.24,1.849 -1.86,4.315 -1.86,7.399 0,3.333 0.69,6.008 2.08,8.023 1.39,2.016 3.22,3.024 5.49,3.024 m 15.13,-3.016 c 0,-0.656 0.07,-1.266 0.22,-1.828 0.14,-0.563 0.4,-1.091 0.77,-1.586 0.37,-0.495 0.72,-0.943 1.05,-1.344 0.33,-0.401 0.82,-0.81 1.48,-1.226 0.66,-0.417 1.21,-0.763 1.65,-1.039 0.44,-0.276 1.11,-0.605 2.01,-0.985 0.9,-0.38 1.59,-0.672 2.06,-0.875 0.47,-0.203 1.22,-0.505 2.25,-0.906 1.03,-0.401 1.78,-0.69 2.26,-0.867 v -3.344 c 0,-3.031 -1.4,-4.547 -4.19,-4.547 -1.09,0 -2.03,0.268 -2.8,0.805 -0.77,0.536 -1.15,1.169 -1.15,1.898 0,0.292 0.04,0.696 0.14,1.211 0.09,0.516 0.14,0.847 0.14,0.992 0,0.625 -0.25,1.167 -0.74,1.625 -0.5,0.459 -1.08,0.688 -1.75,0.688 -0.62,0 -1.17,-0.24 -1.64,-0.719 -0.48,-0.479 -0.71,-1.031 -0.71,-1.656 0,-1.719 0.88,-3.175 2.66,-4.367 1.78,-1.193 3.97,-1.789 6.57,-1.789 3.01,0 5.08,0.721 6.22,2.164 1.13,1.442 1.7,3.643 1.7,6.601 v 10.656 c 0,1.209 0.12,2.042 0.36,2.5 0.24,0.459 0.67,0.688 1.3,0.688 0.76,0 1.56,-0.349 2.4,-1.047 v 1.438 c -0.94,1.104 -1.77,1.854 -2.49,2.25 -0.71,0.395 -1.53,0.593 -2.44,0.593 -1.14,0 -1.97,-0.32 -2.51,-0.961 -0.54,-0.64 -0.88,-1.69 -1.02,-3.148 -3.15,2.74 -5.82,4.109 -8.02,4.109 -1.69,0 -3.07,-0.557 -4.16,-1.672 -1.08,-1.114 -1.62,-2.552 -1.62,-4.312 m 13.75,-1.422 v -7.922 c -3.3,1.198 -5.61,2.362 -6.93,3.492 -1.32,1.131 -1.98,2.498 -1.98,4.102 0,1.5 0.37,2.615 1.1,3.344 0.73,0.729 1.51,1.093 2.36,1.093 1.25,0 2.58,-0.416 4.01,-1.25 0.59,-0.333 0.98,-0.682 1.16,-1.046 0.19,-0.365 0.28,-0.969 0.28,-1.813 m 16.61,14.234 c 1.02,0 2.1,-1.138 3.24,-3.414 1.14,-2.276 1.71,-3.945 1.71,-5.007 0,-0.48 -0.81,-2.329 -2.42,-5.547 l -7.27,-15.625 c -0.43,-0.948 -1.37,-1.537 -2.79,-1.766 v -0.766 h 11.32 v 0.829 c -1.17,0.041 -2,0.171 -2.48,0.39 -0.48,0.219 -0.72,0.584 -0.72,1.094 0,0.552 0.19,1.25 0.56,2.094 l 6.32,13.906 5.34,-15.172 c 0.15,-0.333 0.22,-0.646 0.22,-0.937 0,-0.917 -0.88,-1.375 -2.64,-1.375 v -0.829 h 7.42 v 0.829 c -0.66,0.073 -1.18,0.283 -1.56,0.632 -0.39,0.349 -0.75,0.961 -1.08,1.836 l -8.47,22.438 c -1.47,3.958 -2.93,6.781 -4.37,8.469 -1.45,1.687 -3.09,2.531 -4.93,2.531 -1.16,0 -2.13,-0.302 -2.9,-0.906 -0.77,-0.605 -1.16,-1.365 -1.16,-2.282 0,-0.656 0.24,-1.224 0.71,-1.703 0.48,-0.479 1.03,-0.719 1.65,-0.719 0.81,0 1.68,0.167 2.59,0.5 0.92,0.334 1.49,0.5 1.71,0.5"/>
	<path d="m 1504.9768,292.868 v 1.657 h -5.56 v 15.718 c 0,1.73 0.22,2.987 0.66,3.774 0.45,0.786 1.18,1.18 2.2,1.18 1.13,0 2.23,-0.641 3.3,-1.922 l 0.71,0.609 c -1.76,2.854 -3.95,4.281 -6.59,4.281 -3.27,0 -4.91,-2.338 -4.91,-7.015 v -16.625 h -2.9 c -0.15,-0.104 -0.22,-0.224 -0.22,-0.36 0,-0.177 0.05,-0.317 0.16,-0.422 0.11,-0.104 0.32,-0.25 0.64,-0.437 0.31,-0.188 0.68,-0.458 1.12,-0.813 0.44,-0.354 1.04,-0.994 1.81,-1.921 0.77,-0.927 1.62,-2.042 2.53,-3.344 0.59,-0.854 0.95,-1.375 1.1,-1.563 0.26,0 0.39,0.245 0.39,0.735 v 6.468 h 5.56 m 14.85,-0.546 c 3.52,0 6.41,1.174 8.68,3.523 2.27,2.349 3.41,5.32 3.41,8.914 0,3.813 -1.17,7 -3.52,9.563 -2.34,2.562 -5.24,3.843 -8.68,3.843 -3.45,0 -6.32,-1.237 -8.61,-3.711 -2.29,-2.474 -3.44,-5.559 -3.44,-9.257 0,-3.782 1.13,-6.873 3.38,-9.274 2.26,-2.401 5.18,-3.601 8.78,-3.601 m -7.21,10.203 c 0,3.885 0.72,7.19 2.14,9.914 1.43,2.724 3.3,4.086 5.61,4.086 2.05,0 3.67,-0.873 4.84,-2.617 1.17,-1.745 1.76,-4.159 1.76,-7.243 0,-3.739 -0.74,-6.789 -2.2,-9.148 -1.46,-2.359 -3.35,-3.539 -5.66,-3.539 -1.94,0 -3.51,0.779 -4.7,2.336 -1.19,1.557 -1.79,3.627 -1.79,6.211"/>
	<path d="m 1649.4768,324.993 c 1.03,0 2.11,-1.138 3.25,-3.414 1.14,-2.276 1.71,-3.945 1.71,-5.007 0,-0.48 -0.81,-2.329 -2.42,-5.547 l -7.27,-15.625 c -0.44,-0.948 -1.37,-1.537 -2.8,-1.766 v -0.766 h 11.33 v 0.829 c -1.18,0.041 -2,0.171 -2.48,0.39 -0.48,0.219 -0.72,0.584 -0.72,1.094 0,0.552 0.19,1.25 0.56,2.094 l 6.31,13.906 5.35,-15.172 c 0.14,-0.333 0.22,-0.646 0.22,-0.937 0,-0.917 -0.88,-1.375 -2.65,-1.375 v -0.829 h 7.43 v 0.829 c -0.66,0.073 -1.18,0.283 -1.57,0.632 -0.38,0.349 -0.74,0.961 -1.07,1.836 l -8.47,22.438 c -1.47,3.958 -2.93,6.781 -4.38,8.469 -1.45,1.687 -3.09,2.531 -4.92,2.531 -1.17,0 -2.13,-0.302 -2.91,-0.906 -0.77,-0.605 -1.15,-1.365 -1.15,-2.282 0,-0.656 0.24,-1.224 0.71,-1.703 0.47,-0.479 1.02,-0.719 1.65,-0.719 0.81,0 1.67,0.167 2.59,0.5 0.92,0.334 1.49,0.5 1.7,0.5 m 31.61,-32.671 c 3.52,0 6.42,1.174 8.69,3.523 2.27,2.349 3.41,5.32 3.41,8.914 0,3.813 -1.17,7 -3.52,9.563 -2.34,2.562 -5.24,3.843 -8.69,3.843 -3.44,0 -6.31,-1.237 -8.61,-3.711 -2.29,-2.474 -3.43,-5.559 -3.43,-9.257 0,-3.782 1.13,-6.873 3.38,-9.274 2.26,-2.401 5.18,-3.601 8.77,-3.601 m -7.2,10.203 c 0,3.885 0.71,7.19 2.14,9.914 1.43,2.724 3.3,4.086 5.61,4.086 2.05,0 3.66,-0.873 4.84,-2.617 1.17,-1.745 1.75,-4.159 1.75,-7.243 0,-3.739 -0.73,-6.789 -2.19,-9.148 -1.46,-2.359 -3.35,-3.539 -5.67,-3.539 -1.93,0 -3.5,0.779 -4.69,2.336 -1.19,1.557 -1.79,3.627 -1.79,6.211 m 47.06,12.234 v 0.766 c -2.85,0.802 -5.36,1.666 -7.53,2.593 l -0.22,-0.125 v -4.656 c -0.1,0.104 -0.42,0.433 -0.96,0.985 -0.53,0.552 -0.91,0.932 -1.13,1.14 -0.22,0.209 -0.59,0.531 -1.13,0.969 -0.53,0.437 -0.99,0.75 -1.39,0.937 -0.41,0.188 -0.92,0.368 -1.54,0.54 -0.63,0.171 -1.25,0.257 -1.88,0.257 -2.01,0 -3.62,-0.658 -4.83,-1.976 -1.22,-1.318 -1.82,-3.071 -1.82,-5.258 V 297.15 c 0,-1.282 -0.24,-2.17 -0.72,-2.664 -0.47,-0.495 -1.37,-0.779 -2.69,-0.852 v -0.766 h 8.03 v 17.844 c 0,1.125 0.39,2.099 1.16,2.922 0.77,0.823 1.68,1.234 2.75,1.234 0.4,0 0.88,-0.054 1.43,-0.164 0.54,-0.109 1.17,-0.317 1.89,-0.625 0.71,-0.307 1.32,-0.799 1.82,-1.476 0.5,-0.677 0.75,-1.511 0.75,-2.5 v -12.844 c 0,-1.354 -0.25,-2.25 -0.75,-2.687 -0.5,-0.438 -1.61,-0.693 -3.33,-0.766 v -0.938 h 8.69 v 18.766 c 0,1.281 0.2,2.123 0.61,2.524 0.4,0.401 1.25,0.601 2.53,0.601 h 0.26 m 7.42,-2.641 c 0.85,0 1.57,0.313 2.18,0.938 0.6,0.625 0.9,1.359 0.9,2.203 0,0.802 -0.31,1.498 -0.93,2.086 -0.63,0.589 -1.36,0.883 -2.21,0.883 -0.8,0 -1.49,-0.294 -2.08,-0.883 -0.59,-0.588 -0.89,-1.284 -0.89,-2.086 0,-0.844 0.31,-1.578 0.92,-2.203 0.61,-0.625 1.31,-0.938 2.11,-0.938"/>
	<path d="m 1825.4068,297.868 h 16.65 v -10.656 c 0,-1.979 -0.27,-3.252 -0.82,-3.82 -0.56,-0.568 -1.89,-0.945 -4.02,-1.133 v -1.047 h 15.3 v 1.047 c -2.13,0.188 -3.47,0.565 -4.02,1.133 -0.55,0.568 -0.83,1.841 -0.83,3.82 v 24.406 c 0,1.948 0.3,3.217 0.89,3.805 0.58,0.589 1.91,0.972 3.96,1.149 v 1.046 h -15.3 v -1.046 c 2.13,-0.146 3.46,-0.532 4.02,-1.157 0.55,-0.625 0.82,-2.088 0.82,-4.39 V 300.29 h -16.65 v 11.328 c 0,1.948 0.29,3.217 0.87,3.805 0.59,0.589 1.9,0.972 3.96,1.149 v 1.046 h -15.29 v -1.046 c 2.13,-0.146 3.47,-0.532 4.02,-1.157 0.55,-0.625 0.83,-2.088 0.83,-4.39 v -23.813 c 0,-1.979 -0.28,-3.252 -0.83,-3.82 -0.55,-0.568 -1.89,-0.945 -4.02,-1.133 v -1.047 h 15.29 v 1.047 c -2.13,0.188 -3.46,0.565 -4.01,1.133 -0.55,0.568 -0.82,1.841 -0.82,3.82 v 10.656 m 29.36,14.313 c 0,-0.656 0.07,-1.266 0.22,-1.828 0.14,-0.563 0.4,-1.091 0.77,-1.586 0.37,-0.495 0.72,-0.943 1.05,-1.344 0.32,-0.401 0.82,-0.81 1.48,-1.226 0.66,-0.417 1.21,-0.763 1.65,-1.039 0.44,-0.276 1.11,-0.605 2.01,-0.985 0.9,-0.38 1.59,-0.672 2.06,-0.875 0.47,-0.203 1.22,-0.505 2.25,-0.906 1.03,-0.401 1.78,-0.69 2.26,-0.867 v -3.344 c 0,-3.031 -1.4,-4.547 -4.19,-4.547 -1.09,0 -2.03,0.268 -2.8,0.805 -0.77,0.536 -1.15,1.169 -1.15,1.898 0,0.292 0.04,0.696 0.14,1.211 0.09,0.516 0.14,0.847 0.14,0.992 0,0.625 -0.25,1.167 -0.74,1.625 -0.5,0.459 -1.08,0.688 -1.75,0.688 -0.62,0 -1.17,-0.24 -1.64,-0.719 -0.48,-0.479 -0.72,-1.031 -0.72,-1.656 0,-1.719 0.89,-3.175 2.67,-4.367 1.77,-1.193 3.96,-1.789 6.57,-1.789 3.01,0 5.08,0.721 6.22,2.164 1.13,1.442 1.7,3.643 1.7,6.601 v 10.656 c 0,1.209 0.12,2.042 0.36,2.5 0.24,0.459 0.67,0.688 1.3,0.688 0.76,0 1.56,-0.349 2.4,-1.047 v 1.438 c -0.94,1.104 -1.78,1.854 -2.49,2.25 -0.71,0.395 -1.53,0.593 -2.44,0.593 -1.14,0 -1.98,-0.32 -2.51,-0.961 -0.54,-0.64 -0.88,-1.69 -1.03,-3.148 -3.14,2.74 -5.81,4.109 -8.01,4.109 -1.69,0 -3.07,-0.557 -4.16,-1.672 -1.08,-1.114 -1.62,-2.552 -1.62,-4.312 m 13.75,-1.422 v -7.922 c -3.3,1.198 -5.61,2.362 -6.93,3.492 -1.32,1.131 -1.98,2.498 -1.98,4.102 0,1.5 0.37,2.615 1.09,3.344 0.73,0.729 1.52,1.093 2.36,1.093 1.25,0 2.59,-0.416 4.02,-1.25 0.59,-0.333 0.98,-0.682 1.16,-1.046 0.19,-0.365 0.28,-0.969 0.28,-1.813 m 9.56,-14.75 v -0.875 c 2.31,-0.698 4.95,-1.635 7.92,-2.812 l 0.33,0.109 v 4.234 c 2.34,-2.895 4.98,-4.343 7.92,-4.343 2.68,0 4.88,1.104 6.6,3.312 1.73,2.208 2.59,5.021 2.59,8.438 0,3.989 -1.11,7.336 -3.33,10.039 -2.22,2.703 -4.96,4.054 -8.22,4.054 -1.17,0 -2.16,-0.156 -2.94,-0.468 -0.79,-0.313 -1.66,-0.907 -2.62,-1.782 v 8.563 c 0,1.708 0.29,2.807 0.88,3.297 0.59,0.489 1.91,0.75 3.96,0.781 v 1 h -13.31 v -0.938 c 1.62,-0.145 2.66,-0.458 3.14,-0.937 0.48,-0.479 0.72,-1.432 0.72,-2.859 v -25.735 c 0,-1.281 -0.15,-2.125 -0.44,-2.531 -0.3,-0.406 -0.91,-0.609 -1.83,-0.609 -0.58,0 -1.04,0.02 -1.37,0.062 m 8.25,3.266 v 13.593 c 0,0.813 0.63,1.625 1.9,2.438 1.26,0.812 2.54,1.219 3.82,1.219 1.98,0 3.58,-0.951 4.81,-2.852 1.23,-1.901 1.84,-4.383 1.84,-7.445 0,-3.198 -0.61,-5.766 -1.84,-7.703 -1.23,-1.938 -2.87,-2.907 -4.92,-2.907 -1.28,0 -2.54,0.407 -3.77,1.219 -1.23,0.813 -1.84,1.625 -1.84,2.438"/>
	<path d="m 1956.8968,296.009 v -0.875 c 2.32,-0.698 4.96,-1.635 7.93,-2.812 l 0.32,0.109 v 4.234 c 2.35,-2.895 4.99,-4.343 7.93,-4.343 2.67,0 4.87,1.104 6.6,3.312 1.72,2.208 2.58,5.021 2.58,8.438 0,3.989 -1.11,7.336 -3.33,10.039 -2.21,2.703 -4.95,4.054 -8.21,4.054 -1.18,0 -2.16,-0.156 -2.95,-0.468 -0.79,-0.313 -1.66,-0.907 -2.62,-1.782 v 8.563 c 0,1.708 0.3,2.807 0.89,3.297 0.58,0.489 1.91,0.75 3.96,0.781 v 1 h -13.32 v -0.938 c 1.62,-0.145 2.67,-0.458 3.15,-0.937 0.47,-0.479 0.71,-1.432 0.71,-2.859 v -25.735 c 0,-1.281 -0.14,-2.125 -0.44,-2.531 -0.3,-0.406 -0.9,-0.609 -1.82,-0.609 -0.58,0 -1.04,0.02 -1.38,0.062 m 8.25,3.266 v 13.593 c 0,0.813 0.64,1.625 1.9,2.438 1.27,0.812 2.54,1.219 3.82,1.219 1.98,0 3.59,-0.951 4.81,-2.852 1.23,-1.901 1.85,-4.383 1.85,-7.445 0,-3.198 -0.62,-5.766 -1.85,-7.703 -1.22,-1.938 -2.87,-2.907 -4.92,-2.907 -1.28,0 -2.53,0.407 -3.76,1.219 -1.23,0.813 -1.85,1.625 -1.85,2.438 m 26.3,25.718 c 1.02,0 2.1,-1.138 3.24,-3.414 1.14,-2.276 1.71,-3.945 1.71,-5.007 0,-0.48 -0.8,-2.329 -2.42,-5.547 l -7.26,-15.625 c -0.44,-0.948 -1.37,-1.537 -2.8,-1.766 v -0.766 h 11.33 v 0.829 c -1.18,0.041 -2.01,0.171 -2.49,0.39 -0.48,0.219 -0.72,0.584 -0.72,1.094 0,0.552 0.19,1.25 0.57,2.094 l 6.31,13.906 5.34,-15.172 c 0.15,-0.333 0.22,-0.646 0.22,-0.937 0,-0.917 -0.88,-1.375 -2.64,-1.375 v -0.829 h 7.42 v 0.829 c -0.65,0.073 -1.17,0.283 -1.56,0.632 -0.39,0.349 -0.74,0.961 -1.08,1.836 l -8.47,22.438 c -1.47,3.958 -2.92,6.781 -4.37,8.469 -1.45,1.687 -3.09,2.531 -4.92,2.531 -1.17,0 -2.14,-0.302 -2.91,-0.906 -0.77,-0.605 -1.16,-1.365 -1.16,-2.282 0,-0.656 0.24,-1.224 0.72,-1.703 0.47,-0.479 1.02,-0.719 1.64,-0.719 0.82,0 1.68,0.167 2.6,0.5 0.91,0.334 1.48,0.5 1.7,0.5 m 24.95,-12.875 c 0.85,0 1.57,0.313 2.18,0.938 0.6,0.625 0.9,1.359 0.9,2.203 0,0.802 -0.31,1.498 -0.94,2.086 -0.62,0.589 -1.36,0.883 -2.2,0.883 -0.8,0 -1.5,-0.294 -2.08,-0.883 -0.59,-0.588 -0.89,-1.284 -0.89,-2.086 0,-0.844 0.31,-1.578 0.92,-2.203 0.61,-0.625 1.31,-0.938 2.11,-0.938 m 13.75,0 c 0.85,0 1.57,0.313 2.18,0.938 0.6,0.625 0.9,1.359 0.9,2.203 0,0.802 -0.31,1.498 -0.94,2.086 -0.62,0.589 -1.36,0.883 -2.2,0.883 -0.8,0 -1.5,-0.294 -2.08,-0.883 -0.59,-0.588 -0.89,-1.284 -0.89,-2.086 0,-0.844 0.31,-1.578 0.92,-2.203 0.61,-0.625 1.31,-0.938 2.11,-0.938 m 13.75,0 c 0.85,0 1.57,0.313 2.18,0.938 0.6,0.625 0.9,1.359 0.9,2.203 0,0.802 -0.31,1.498 -0.94,2.086 -0.62,0.589 -1.36,0.883 -2.2,0.883 -0.8,0 -1.5,-0.294 -2.08,-0.883 -0.59,-0.588 -0.89,-1.284 -0.89,-2.086 0,-0.844 0.31,-1.578 0.92,-2.203 0.61,-0.625 1.31,-0.938 2.11,-0.938"/>
	<polyline points="289.285,575.82 309.286,575.82" style="fill:none;stroke:#000000;stroke-width:3.75;stroke-linejoin:bevel" transform="translate(-14.1732,-275.139)"/>
	<polyline points="1100.46,575.82 1120.46,575.82" style="fill:none;stroke:#000000;stroke-width:3.75;stroke-linejoin:bevel" transform="translate(-14.1732,-275.139)"/>
	<polyline points="1354.86,575.82 1374.26,575.82" style="fill:none;stroke:#000000;stroke-width:3.75;stroke-linejoin:bevel" transform="translate(-14.1732,-275.139)"/>
	<polyline points="538.508,575.82 557.904,575.82" style="fill:none;stroke:#000000;stroke-width:3.75;stroke-linejoin:bevel" transform="translate(-14.1732,-275.139)"/>
	<polyline points="1934.3,575.82 1954.3,575.82" style="fill:none;stroke:#000000;stroke-width:3.75;stroke-linejoin:bevel" transform="translate(-14.1732,-275.139)"/>
	<path d="m 247.0158,158.119 c -1.11,-1.109 -1.664,-2.445 -1.664,-4.008 0,-1.562 0.554,-2.898 1.664,-4.007 1.109,-1.11 2.445,-1.664 4.007,-1.664 1.563,0 2.896,0.554 4,1.664 1.105,1.109 1.657,2.445 1.657,4.007 0,1.563 -0.552,2.899 -1.657,4.008 -1.104,1.11 -2.437,1.664 -4,1.664 -1.562,0 -2.898,-0.554 -4.007,-1.664"/>
	<path d="m 1059.0068,158.119 c -1.11,-1.109 -1.66,-2.445 -1.66,-4.008 0,-1.562 0.55,-2.898 1.66,-4.007 1.11,-1.11 2.45,-1.664 4.01,-1.664 1.56,0 2.9,0.554 4,1.664 1.1,1.109 1.66,2.445 1.66,4.007 0,1.563 -0.56,2.899 -1.66,4.008 -1.1,1.11 -2.44,1.664 -4,1.664 -1.56,0 -2.9,-0.554 -4.01,-1.664"/>
	<path d="m 1885.9968,158.119 c -1.11,-1.109 -1.66,-2.445 -1.66,-4.008 0,-1.562 0.55,-2.898 1.66,-4.007 1.11,-1.11 2.44,-1.664 4.01,-1.664 1.56,0 2.89,0.554 4,1.664 1.1,1.109 1.65,2.445 1.65,4.007 0,1.563 -0.55,2.899 -1.65,4.008 -1.11,1.11 -2.44,1.664 -4,1.664 -1.57,0 -2.9,-0.554 -4.01,-1.664"/>
</svg>
