<svg xmlns="http://www.w3.org/2000/svg" viewBox="0 0 9914.0365 2998.5182">
	<g transform="matrix(397.26964,0,0,352.55939,978723.89,1553643.9)">
		<path d="m -2456.91,-4406.6109 1.5905,-0.1472 v 8.5041 h -1.5905 v -5.809 c -0.8594,0.9653 -1.7106,1.948 -2.5776,2.9046 l -2.5776,-2.9046 v 5.809 h -1.561 v -8.5041 l 1.561,0.1472 2.6063,3.7189 z" />
	</g>
	<g transform="matrix(240.46996,0,0,234.31065,596568.25,1031895.2)">
		<path d="m -2465.8208,-4399.2796 h 1.8336 v 8.113 h -1.8336 z m 0.9249,-0.795 q -0.4543,0 -0.7626,-0.3083 -0.3083,-0.3246 -0.3083,-0.7464 0,-0.4544 0.3083,-0.7626 0.3083,-0.3083 0.7626,-0.3083 0.4381,0 0.7464,0.3083 0.3083,0.3082 0.3083,0.7626 0,0.4218 -0.3083,0.7464 -0.3083,0.3083 -0.7464,0.3083 z" />
		<path d="m -2459.857,-4391.1666 q -0.8113,0.016 -1.4279,-0.1298 -0.3083,-0.097 -0.6003,-0.2434 -0.2759,-0.1461 -0.503,-0.3732 -0.211,-0.2434 -0.357,-0.5679 -0.1298,-0.3408 -0.1298,-0.8113 v -4.1052 q 0,-0.5354 0.2596,-0.9411 0.2109,-0.3407 0.6653,-0.6328 0.4705,-0.3083 1.3305,-0.3083 l 2.6286,0.3894 v -2.4663 l 1.8822,0.3083 v 9.8816 h -1.152 l -0.3408,-0.4381 h -0.016 q -0.1623,0.1785 -0.4706,0.3083 -0.292,0.1298 -0.7788,0.1298 z m -1.0709,-1.9147 q 0.1298,0.049 0.2434,0.065 0.1298,0.016 0.2596,0.033 0.065,0.016 0.1623,0.016 0.097,-0.016 0.1947,-0.033 h 1.3143 q 0.2758,0 0.4381,-0.032 0.1622,-0.049 0.2434,-0.1298 l 0.016,-0.016 q 0.081,-0.049 0.049,-0.016 -0.016,0.033 0.016,-0.049 v -3.9592 q -0.2434,-0.032 -0.503,-0.032 -0.2596,0 -0.503,-0.033 l -1.0709,-0.097 q -0.4219,-0.065 -0.6491,0.032 -0.2109,0.081 -0.3082,0.211 -0.081,0.1785 -0.1136,0.3569 v 2.6286 q 0,0.4057 0.016,0.6977 0.032,0.2921 0.1623,0.3408 z" />
		<path d="m -2454.8239,-4399.2796 h 1.8335 v 8.113 h -1.8335 z m 0.9249,-0.795 q -0.4544,0 -0.7627,-0.3083 -0.3082,-0.3246 -0.3082,-0.7464 0,-0.4544 0.3082,-0.7626 0.3083,-0.3083 0.7627,-0.3083 0.4381,0 0.7464,0.3083 0.3083,0.3082 0.3083,0.7626 0,0.4218 -0.3083,0.7464 -0.3083,0.3083 -0.7464,0.3083 z" />
		<path d="m -2450.1907,-4391.1663 q -0.7139,0 -1.0546,-0.3082 -0.3408,-0.3246 -0.4706,-0.714 -0.146,-0.4219 -0.097,-0.9411 l -0.016,0.033 v -4.2512 l 0.016,0.032 q -0.049,-0.503 0.097,-0.9249 0.1136,-0.3894 0.4543,-0.7139 0.357,-0.3245 1.0709,-0.3245 0.568,0 1.1683,0.032 0.6004,0.033 1.0871,0.065 l 1.3955,0.1136 v 1.5253 l -3.1479,0.1135 q -0.032,0.033 -0.081,0.049 -0.032,0.016 -0.065,0.081 -0.081,0.081 -0.146,0.2596 -0.049,0.1622 -0.049,0.4705 v 2.9369 q 0,0.2758 0.097,0.4057 0.097,0.1135 0.2271,0.1784 0.1461,0.081 0.3732,0.081 l 2.7909,0.1785 v 1.5739 q -0.1298,0 -0.3245,0.016 -0.1785,0 -0.3732,0.016 -0.1947,0 -0.3895,0 -0.1784,0 -0.3245,0 -0.4705,0.016 -1.1033,0.016 -0.6329,0 -1.1359,0 z" />
		<path d="m -2443.4068,-4391.1663 q -0.9689,0 -1.4616,-0.2298 -0.4762,-0.2464 -0.7062,-0.5256 -0.2627,-0.3613 -0.2463,-0.8703 l -0.016,0.016 v -2.0199 q 0,-0.4434 0.098,-0.7391 0.1148,-0.312 0.2791,-0.509 0.1807,-0.2135 0.3941,-0.3285 0.23,-0.1149 0.4598,-0.1806 0.1807,-0.05 0.5913,-0.1314 0.4105,-0.098 0.8375,-0.1971 0.427,-0.1149 0.7882,-0.197 0.3778,-0.098 0.4927,-0.1478 l 0.098,-0.05 q 0.032,-0.016 0.032,-0.066 0.016,-0.066 0.016,-0.098 h -0.2629 q -0.1805,0 -0.3448,-0.016 -0.1477,-0.016 -0.2791,-0.016 l -0.3613,-0.05 q -0.1643,-0.033 -0.345,-0.05 -0.1805,-0.032 -0.3612,-0.066 -0.1479,-0.032 -0.3941,-0.066 -0.2299,-0.032 -0.3777,-0.066 l -0.3942,-1.5108 3.0217,0.016 q 0.3284,0.016 0.5912,0.082 0.2627,0.05 0.4927,0.1314 0.427,0.1807 0.7883,0.6405 0.3612,0.4598 0.3612,1.2645 v 5.9777 h -1.2152 l -0.3448,-0.3941 -0.016,0.016 q -0.1478,0.1642 -0.3777,0.2792 -0.2135,0.098 -0.4762,0.098 z m -0.1642,-3.9084 q -0.3449,0.1148 -0.3941,0.197 l -0.066,0.066 v 1.1331 0.032 0.5091 q 0,0.082 0.032,0.1314 0.05,0.033 0.082,0.066 v -0.016 q 0.082,0.033 0.1313,0.033 0.05,0 0.115,0.016 l -0.05,-0.016 h 1.5274 q 0.2627,0 0.4105,-0.115 0.1478,-0.115 0.23,-0.2627 h -0.016 q 0.066,-0.1314 0.098,-0.2464 0.05,-0.1149 0.082,-0.2463 l -0.016,0.082 v -1.7408 q 0,-0.098 -0.033,-0.1313 -0.016,-0.033 -0.05,-0.05 -0.066,-0.016 -0.1642,0 h 0.016 q -0.1806,0.05 -0.3449,0.115 -0.1642,0.066 -0.3284,0.098 z" />
	</g>
	<g transform="matrix(1.0001326,0,0,1.0001326,-7915.4481,-3038.4528)">
		<path d="M 8534.4543,3988.1223 V 6035.8527 H 10582.185 Z" style="opacity:1;fill:#4edf84;" />
		<path d="M 8534.4543,6035.8527 10582.185,3988.1223 v 2047.7304 z" style="opacity:1;fill:#ffb61a;" />
		<path d="M 8534.4626,3988.1334 V 6035.8638 H 10582.193 Z" style="opacity:0.5;fill:#4edf84;" />
	</g>
</svg>
